<svg id="linkedin" xmlns="http://www.w3.org/2000/svg" width="17.817" height="20" viewBox="0 0 17.817 20">
  <path id="Path_6" data-name="Path 6" d="M4.617,151.625H1.2a.7.7,0,0,0-.7.7v12.895a.7.7,0,0,0,.7.7H4.617a.7.7,0,0,0,.7-.7V152.321A.7.7,0,0,0,4.617,151.625Zm-.5,13.1H1.691v-11.9H4.121Zm0,0" transform="translate(-0.48 -145.911)" fill="#fff"/>
  <path id="Path_7" data-name="Path 7" d="M2.426,0A2.426,2.426,0,1,0,4.852,2.426,2.429,2.429,0,0,0,2.426,0Zm0,3.661A1.235,1.235,0,1,1,3.661,2.426,1.237,1.237,0,0,1,2.426,3.661Zm0,0" fill="#fff"/>
  <path id="Path_8" data-name="Path 8" d="M167.508,153.141a4.439,4.439,0,0,0-2.927-1.028,4.487,4.487,0,0,0-1.9.462v-.282a.664.664,0,0,0-.664-.664h-3.484a.664.664,0,0,0-.664.664v12.957a.664.664,0,0,0,.664.664h3.553a.6.6,0,0,0,.6-.6v-7.725a1.232,1.232,0,0,1,1.178-1.241,1.217,1.217,0,0,1,1.252,1.215v7.764a.583.583,0,0,0,.583.583h3.414a.583.583,0,0,0,.583-.583V157.8a6.06,6.06,0,0,0-2.183-4.664Zm.992,11.583h-2.2v-7.156a2.406,2.406,0,0,0-4.813,0v7.156h-2.431v-11.9h2.431v.865h0a.595.595,0,0,0,.99.446,3.3,3.3,0,0,1,2.123-.828,3.245,3.245,0,0,1,2.142.752A4.872,4.872,0,0,1,168.5,157.8Zm0,0" transform="translate(-151.874 -145.915)" fill="#fff"/>
</svg>
