<svg xmlns="http://www.w3.org/2000/svg" xmlns:xlink="http://www.w3.org/1999/xlink" width="479.507" height="473.239" viewBox="0 0 479.507 473.239">
  <defs>
    <linearGradient id="linear-gradient" x1="0.08" y1="-0.221" x2="0.739" y2="0.91" gradientUnits="objectBoundingBox">
      <stop offset="0.141" stop-color="#17193c"/>
      <stop offset="0.19" stop-color="#1a1c4e"/>
      <stop offset="0.307" stop-color="#212374"/>
      <stop offset="0.429" stop-color="#262894"/>
      <stop offset="0.555" stop-color="#2b2dac"/>
      <stop offset="0.687" stop-color="#2e30be"/>
      <stop offset="0.829" stop-color="#3032c8"/>
      <stop offset="0.999" stop-color="#3133cc"/>
    </linearGradient>
    <linearGradient id="linear-gradient-2" x1="0.068" y1="0.273" x2="0.975" y2="1.128" gradientUnits="objectBoundingBox">
      <stop offset="0" stop-color="#e7f2fe"/>
      <stop offset="0.037" stop-color="#e5f0fd"/>
      <stop offset="0.641" stop-color="#cad6f9"/>
      <stop offset="0.999" stop-color="#c1cdf8"/>
    </linearGradient>
    <linearGradient id="linear-gradient-3" y1="0.5" x2="1" y2="0.5" gradientUnits="objectBoundingBox">
      <stop offset="0" stop-color="#fcfdff" stop-opacity="0"/>
      <stop offset="0.017" stop-color="#fbf8fb" stop-opacity="0.024"/>
      <stop offset="0.292" stop-color="#f0b0c5" stop-opacity="0.365"/>
      <stop offset="0.537" stop-color="#e7769a" stop-opacity="0.639"/>
      <stop offset="0.743" stop-color="#e14d7b" stop-opacity="0.835"/>
      <stop offset="0.904" stop-color="#dd3468" stop-opacity="0.957"/>
      <stop offset="0.999" stop-color="#dc2b61"/>
    </linearGradient>
    <linearGradient id="linear-gradient-4" y1="0.5" x2="1" y2="0.5" gradientUnits="objectBoundingBox">
      <stop offset="0" stop-color="#fcfdff" stop-opacity="0"/>
      <stop offset="0.108" stop-color="#fbfae3" stop-opacity="0.141"/>
      <stop offset="0.357" stop-color="#fbf5a6" stop-opacity="0.443"/>
      <stop offset="0.579" stop-color="#faf076" stop-opacity="0.682"/>
      <stop offset="0.767" stop-color="#faed54" stop-opacity="0.855"/>
      <stop offset="0.913" stop-color="#faeb3e" stop-opacity="0.961"/>
      <stop offset="0.999" stop-color="#faeb37"/>
    </linearGradient>
    <linearGradient id="linear-gradient-5" x1="0.609" y1="0.31" x2="0.609" y2="-0.222" xlink:href="#linear-gradient-4"/>
    <linearGradient id="linear-gradient-6" x1="0.566" y1="0.242" x2="0.566" y2="-0.33" xlink:href="#linear-gradient-3"/>
    <linearGradient id="linear-gradient-7" x1="3739.389" y1="-78.298" x2="-2220.812" y2="47.32" gradientUnits="objectBoundingBox">
      <stop offset="0" stop-color="#fff"/>
      <stop offset="0.099" stop-color="#eee" stop-opacity="0.933"/>
      <stop offset="0.296" stop-color="#c3c4c2" stop-opacity="0.761"/>
      <stop offset="0.572" stop-color="#7e817b" stop-opacity="0.482"/>
      <stop offset="0.912" stop-color="#21241a" stop-opacity="0.102"/>
      <stop offset="1" stop-color="#080c01" stop-opacity="0"/>
    </linearGradient>
    <linearGradient id="linear-gradient-8" x1="1.882" y1="-0.567" x2="-1.14" y2="1.902" xlink:href="#linear-gradient-7"/>
    <linearGradient id="linear-gradient-9" x1="55.751" y1="-2.228" x2="-20.351" y2="1.53" xlink:href="#linear-gradient-7"/>
    <linearGradient id="linear-gradient-10" x1="0.939" y1="0.956" x2="0.074" y2="0.057" xlink:href="#linear-gradient-4"/>
    <linearGradient id="linear-gradient-11" x1="1.051" y1="1.046" x2="0.006" y2="0.011" xlink:href="#linear-gradient-3"/>
    <linearGradient id="linear-gradient-12" x1="0.908" y1="0.918" x2="0.072" y2="0.062" gradientUnits="objectBoundingBox">
      <stop offset="0" stop-color="#fcfdff" stop-opacity="0"/>
      <stop offset="0.118" stop-color="#edfafe" stop-opacity="0.153"/>
      <stop offset="0.364" stop-color="#d2f4fe" stop-opacity="0.451"/>
      <stop offset="0.584" stop-color="#bceffe" stop-opacity="0.686"/>
      <stop offset="0.77" stop-color="#adecfe" stop-opacity="0.855"/>
      <stop offset="0.914" stop-color="#a3eafe" stop-opacity="0.961"/>
      <stop offset="0.999" stop-color="#a0eafe"/>
    </linearGradient>
    <linearGradient id="linear-gradient-13" x1="1.203" y1="-0.215" x2="-0.059" y2="0.983" xlink:href="#linear-gradient-2"/>
    <linearGradient id="linear-gradient-14" x1="0.5" y1="1.206" x2="0.5" y2="-0.087" gradientUnits="objectBoundingBox">
      <stop offset="0.072" stop-color="#87d0fd"/>
      <stop offset="0.164" stop-color="#7ec2ec" stop-opacity="0.933"/>
      <stop offset="0.348" stop-color="#68a0c0" stop-opacity="0.761"/>
      <stop offset="0.606" stop-color="#446979" stop-opacity="0.478"/>
      <stop offset="0.924" stop-color="#141e18" stop-opacity="0.094"/>
      <stop offset="1" stop-color="#080c01" stop-opacity="0"/>
    </linearGradient>
    <linearGradient id="linear-gradient-15" x1="1.044" y1="0.509" x2="-0.049" y2="0.475" xlink:href="#linear-gradient-2"/>
    <linearGradient id="linear-gradient-16" x1="1.044" y1="0.509" x2="-0.049" y2="0.475" xlink:href="#linear-gradient-2"/>
    <linearGradient id="linear-gradient-17" x1="1.044" y1="0.509" x2="-0.049" y2="0.475" xlink:href="#linear-gradient-2"/>
    <linearGradient id="linear-gradient-18" x1="1.247" y1="-0.033" x2="-0.056" y2="0.784" xlink:href="#linear-gradient-2"/>
    <linearGradient id="linear-gradient-19" x1="1.015" y1="-0.324" x2="-0.679" y2="1.864" xlink:href="#linear-gradient-2"/>
    <linearGradient id="linear-gradient-20" x1="1.223" y1="-0.118" x2="-0.082" y2="0.787" xlink:href="#linear-gradient-2"/>
    <linearGradient id="linear-gradient-21" x1="-0.124" y1="0.93" x2="0.538" y2="0.474" gradientUnits="objectBoundingBox">
      <stop offset="0.072" stop-color="#becff4"/>
      <stop offset="0.637" stop-color="#adc0e7"/>
      <stop offset="1" stop-color="#a0b5de"/>
    </linearGradient>
    <linearGradient id="linear-gradient-22" x1="0.749" y1="0.107" x2="-0.559" y2="1.554" gradientUnits="objectBoundingBox">
      <stop offset="0" stop-color="#fff"/>
      <stop offset="0.335" stop-color="#e5eafc"/>
      <stop offset="0.752" stop-color="#cad4f9"/>
      <stop offset="0.999" stop-color="#c1cdf8"/>
    </linearGradient>
    <linearGradient id="linear-gradient-23" x1="-0.083" y1="0.938" x2="1.037" y2="0.141" xlink:href="#linear-gradient-2"/>
    <linearGradient id="linear-gradient-24" x1="2.207" x2="2.207" y2="1" gradientUnits="objectBoundingBox">
      <stop offset="0" stop-color="#a3e6e7"/>
      <stop offset="0.157" stop-color="#91d2e6"/>
      <stop offset="0.532" stop-color="#6aa7e5"/>
      <stop offset="0.826" stop-color="#528ce5"/>
      <stop offset="0.999" stop-color="#4a83e5"/>
    </linearGradient>
    <linearGradient id="linear-gradient-25" x1="1.385" y1="-0.264" x2="0.103" y2="0.843" gradientUnits="objectBoundingBox">
      <stop offset="0" stop-color="#e7f2fe"/>
      <stop offset="0.195" stop-color="#deeafc" stop-opacity="0.784"/>
      <stop offset="0.594" stop-color="#cedafa" stop-opacity="0.369"/>
      <stop offset="0.87" stop-color="#c4d0f8" stop-opacity="0.102"/>
      <stop offset="0.999" stop-color="#c1cdf8" stop-opacity="0"/>
    </linearGradient>
    <linearGradient id="linear-gradient-26" x1="-0.082" y1="1.071" x2="0.975" y2="0.035" xlink:href="#linear-gradient-2"/>
    <linearGradient id="linear-gradient-27" x1="0.707" y1="0.203" x2="0.41" y2="0.629" xlink:href="#linear-gradient-25"/>
    <linearGradient id="linear-gradient-28" x1="1.148" y1="0.364" x2="-2.256" y2="1.116" xlink:href="#linear-gradient-2"/>
    <linearGradient id="linear-gradient-30" x1="2.724" y1="0.899" x2="0.504" y2="0.505" xlink:href="#linear-gradient-2"/>
    <linearGradient id="linear-gradient-31" x1="0" y1="0.5" x2="1" y2="0.5" xlink:href="#linear-gradient-2"/>
    <linearGradient id="linear-gradient-33" x1="1.148" y1="0.364" x2="-2.256" y2="1.116" xlink:href="#linear-gradient-2"/>
    <linearGradient id="linear-gradient-35" x1="2.724" y1="0.899" x2="0.504" y2="0.505" xlink:href="#linear-gradient-2"/>
  </defs>
  <g id="Group_4939" data-name="Group 4939" transform="translate(-59.55 -54.087)">
    <g id="Group_4816" data-name="Group 4816" transform="translate(104.555 75.481)">
      <g id="Group_4810" data-name="Group 4810" transform="translate(22.553 29.391)">
        <path id="Path_10526" data-name="Path 10526" d="M122.123,123.854h0a4.084,4.084,0,0,1-4.723-3.29l-2.965-16.585a4.082,4.082,0,0,1,3.29-4.723h0a4.081,4.081,0,0,1,4.723,3.29l2.965,16.585A4.083,4.083,0,0,1,122.123,123.854Z" transform="translate(-111.224 -91.803)" fill="#e6a984"/>
        <path id="Path_10527" data-name="Path 10527" d="M126.228,108.746l-1.806-10.1a6.314,6.314,0,0,0-7.305-5.089h0a6.314,6.314,0,0,0-5.088,7.305l1.806,10.1S119.213,115.915,126.228,108.746Z" transform="translate(-111.931 -93.463)" fill="#b43c82"/>
        <path id="Path_10528" data-name="Path 10528" d="M139.652,121.587h0a4.082,4.082,0,0,1-5.1,2.661L120.5,120.153a4.082,4.082,0,0,1-3.8-4.323h0a4.082,4.082,0,0,1,4.323-3.8l15.964,4.453A4.081,4.081,0,0,1,139.652,121.587Z" transform="translate(-110.551 -88.086)" fill="#e6a984"/>
      </g>
      <g id="Group_4812" data-name="Group 4812" transform="translate(7.883 71.6)">
        <g id="Group_4811" data-name="Group 4811" transform="translate(0.621 47.507)">
          <path id="Path_10529" data-name="Path 10529" d="M101.044,171.879c-.178,1.776,4.076,2.879,7.644,4.938,4.959,2.863,10.3,4.421,12.847,2.952a1.675,1.675,0,0,0,.97-1.4v-2.912c.09-1.648-2.361-4.161-6.084-7.787-4.1-4-6.717-6.492-12.847-2.952-1.751,1.011-2.454,1.768-2.463,2.414Z" transform="translate(-101.039 -163.025)" fill="#080c01"/>
          <path id="Path_10530" data-name="Path 10530" d="M116.406,167.673c4.955,4.827,7.658,7.68,5.114,9.151s-7.63-.744-12.847-4.686c-4.57-3.453-11.244-3.878-5.114-7.417S112.3,163.676,116.406,167.673Z" transform="translate(-101.023 -163.025)" fill="#22223a"/>
        </g>
        <path id="Path_10531" data-name="Path 10531" d="M112.6,174.842a2.666,2.666,0,0,0,.284-1.233v-42.53c0-2.689-2.773-4.889-6.162-4.889h0c-3.389,0-6.162,2.2-6.162,4.889v46.246a1.547,1.547,0,0,0,1.095,1.486C104.016,179.527,109.621,180.55,112.6,174.842Z" transform="translate(-100.557 -126.19)" fill="#48486a"/>
      </g>
      <g id="Group_4814" data-name="Group 4814" transform="translate(21.222 61.763)">
        <g id="Group_4813" data-name="Group 4813" transform="translate(0.621 47.507)">
          <path id="Path_10532" data-name="Path 10532" d="M111.386,164.253c-.177,1.775,4.077,2.879,7.644,4.938,4.96,2.863,10.3,4.421,12.847,2.952a1.678,1.678,0,0,0,.971-1.4v-2.912c.09-1.648-2.361-4.161-6.084-7.789-4.1-4-6.716-6.491-12.846-2.952-1.753,1.012-2.456,1.768-2.463,2.414Z" transform="translate(-111.381 -155.398)" fill="#080c01"/>
          <path id="Path_10533" data-name="Path 10533" d="M126.748,160.046c4.955,4.829,7.658,7.682,5.114,9.151s-7.629-.743-12.847-4.686c-4.568-3.453-11.243-3.877-5.112-7.417S122.646,156.049,126.748,160.046Z" transform="translate(-111.365 -155.398)" fill="#22223a"/>
        </g>
        <path id="Path_10534" data-name="Path 10534" d="M122.94,167.215a2.66,2.66,0,0,0,.285-1.233v-42.53c0-2.689-2.774-4.889-6.164-4.889h0c-3.389,0-6.162,2.2-6.162,4.889V169.7a1.549,1.549,0,0,0,1.095,1.486C114.358,171.9,119.963,172.923,122.94,167.215Z" transform="translate(-110.899 -118.563)" fill="#31314f"/>
      </g>
      <path id="Path_10535" data-name="Path 10535" d="M103.947,148.695a1.131,1.131,0,0,0,.521.173c2.725.21,12.521-1.923,22.32-12.968a5.126,5.126,0,0,0,1.328-3.177V101.381c0-2.361-.843-4.019-2.2-4.782l-7.37-4.3c-1.34-.8-3.2-.7-5.251.481l-10.051,5.8a16.369,16.369,0,0,0-7.379,12.78v31.525a1.6,1.6,0,0,0,.711,1.509Z" transform="translate(-94.033 -64.56)" fill="#cf5598"/>
      <path id="Path_10536" data-name="Path 10536" d="M104.343,100.778a2.56,2.56,0,0,0,1.519,2.156,8.125,8.125,0,0,0,7.349,0,2.56,2.56,0,0,0,1.519-2.155V93.95a2.562,2.562,0,0,0-1.519-2.156,8.125,8.125,0,0,0-7.349,0,2.561,2.561,0,0,0-1.519,2.156Z" transform="translate(-91.577 -64.811)" fill="#cd8b68"/>
      <circle id="Ellipse_171" data-name="Ellipse 171" cx="14.308" cy="14.308" r="14.308" transform="translate(0.818 28.996) rotate(-77.095)" fill="#e6a984"/>
      <g id="Group_4815" data-name="Group 4815" transform="translate(0 39.42)">
        <path id="Path_10537" data-name="Path 10537" d="M107.393,130.972h0a4.082,4.082,0,0,1-5.065-2.734L97.5,112.1a4.082,4.082,0,0,1,2.734-5.065h0a4.082,4.082,0,0,1,5.065,2.734l4.824,16.142A4.082,4.082,0,0,1,107.393,130.972Z" transform="translate(-93.607 -99.61)" fill="#e6a984"/>
        <path id="Path_10538" data-name="Path 10538" d="M109.706,115.558l-2.937-9.828a6.313,6.313,0,0,0-7.834-4.228h0a6.313,6.313,0,0,0-4.229,7.833l2.937,9.828S103.549,123.474,109.706,115.558Z" transform="translate(-94.445 -101.239)" fill="#b43c82"/>
        <path id="Path_10539" data-name="Path 10539" d="M129.153,127.747h0a4.082,4.082,0,0,1-4.769,3.222l-19.018-3.49a4.082,4.082,0,0,1-4.265-3.865h0a4.081,4.081,0,0,1,3.865-4.265l20.966,3.629A4.082,4.082,0,0,1,129.153,127.747Z" transform="translate(-92.518 -95.992)" fill="#e6a984"/>
      </g>
      <path id="Path_10540" data-name="Path 10540" d="M104.48,100.134a11.428,11.428,0,0,0,2.95-4.768,1.323,1.323,0,0,0,.045-.348V88.169a7.333,7.333,0,0,1,1.047-3.877,3.152,3.152,0,0,1,2.79-1.777s11.481,5.005,15.779-4.343a1.257,1.257,0,0,0-.819-1.754c-.822-.2-1.906-.9-3.106-2.854a1.26,1.26,0,0,0-1.359-.587,5.055,5.055,0,0,1-5.151-1.9,1.223,1.223,0,0,0-.945-.4c-2.185.043-9.741.408-13.854,3.38-.03.022-.057.043-.085.066-.882.726-15.09,12.834,1.009,26.082A1.266,1.266,0,0,0,104.48,100.134Z" transform="translate(-94.243 -70.675)" fill="#70a1f3"/>
      <path id="Path_10541" data-name="Path 10541" d="M105.866,92.176c0,1.706-1.2,2.4-2.676,1.545a5.914,5.914,0,0,1-2.675-4.634c0-1.706,1.2-2.4,2.675-1.545A5.916,5.916,0,0,1,105.866,92.176Z" transform="translate(-92.686 -65.894)" fill="#e6a984"/>
    </g>
    <g id="Group_4828" data-name="Group 4828" transform="translate(141.493 232.501)">
      <g id="Group_4817" data-name="Group 4817">
        <ellipse id="Ellipse_172" data-name="Ellipse 172" cx="174.987" cy="101.029" rx="174.987" ry="101.029" transform="translate(12.383 7.207)" fill="url(#linear-gradient)"/>
        <path id="Path_10542" data-name="Path 10542" d="M310.456,408.893c-47.961,0-95.924-10.541-132.436-31.62-35.425-20.454-54.935-47.663-54.935-76.616s19.51-56.161,54.933-76.614c73.026-42.161,191.845-42.161,264.872,0,35.425,20.453,54.935,47.662,54.935,76.616s-19.51,56.161-54.935,76.614l-.133-.231.133.231C406.378,398.352,358.417,408.893,310.456,408.893Zm0-215.949c-47.866,0-95.729,10.519-132.169,31.557-35.253,20.353-54.668,47.4-54.668,76.155s19.414,55.8,54.669,76.156c72.879,42.076,191.46,42.076,264.339,0,35.253-20.353,54.669-47.4,54.669-76.153s-19.416-55.8-54.669-76.157C406.185,203.465,358.319,192.944,310.453,192.944Z" transform="translate(-123.085 -192.422)" fill="#c1cdf8"/>
        <path id="Path_10543" data-name="Path 10543" d="M183.937,236.632c68.336-39.454,179.132-39.454,247.468,0,32.179,18.579,49.2,42.592,51.073,66.922,2.106-27.338-14.914-55.078-51.073-75.953-68.336-39.454-179.132-39.455-247.468,0-36.159,20.876-53.178,48.614-51.072,75.953C134.739,279.223,151.758,255.21,183.937,236.632Z" transform="translate(-120.302 -190.803)" fill="url(#linear-gradient-2)"/>
      </g>
      <g id="Group_4823" data-name="Group 4823" transform="translate(24.908 23.204)">
        <g id="Group_4820" data-name="Group 4820" transform="translate(8.016 5.011)">
          <g id="Group_4818" data-name="Group 4818" transform="translate(119.04 71.638)">
            <path id="Path_10544" data-name="Path 10544" d="M283.265,291.878l-38.633,22.3-3.721-2.148,38.633-22.3Z" transform="translate(-240.911 -264.081)" fill="url(#linear-gradient-3)"/>
            <path id="Path_10545" data-name="Path 10545" d="M317.508,271.991l-37.73,21.784-3.721-2.148,37.73-21.784Z" transform="translate(-230.728 -269.843)" fill="url(#linear-gradient-4)"/>
          </g>
          <path id="Path_10546" data-name="Path 10546" d="M184.054,322.156l18.5-1.613c10.982-.957,19.352-6.177,20.164-12.571l3.316-26.158c.7-5.5,7.023-10.221,16.064-12l30.69-6.022c10.847-2.129,17.524-8.421,15.88-14.967h0c-2.284-9.1,11.277-16.9,27.034-15.548l17.322,1.49L358.006,249.2l-150.162,86.7Z" transform="translate(-138.344 -208.843)" fill="url(#linear-gradient-5)"/>
          <path id="Path_10547" data-name="Path 10547" d="M203.933,334.771,197.8,305.53c-1.933-9.213,7.678-18.13,23.13-20.687.595-.1,1.2-.188,1.8-.271h0c17.005-2.3,29.9-10.313,32.622-20.272l2.681-9.829c1.475-5.409,6.348-10.111,13.282-13.4,8.458-4.011,20-5.1,30.38-3.1l52.4,10.1Z" transform="translate(-134.433 -207.722)" fill="url(#linear-gradient-6)"/>
          <g id="Group_4819" data-name="Group 4819" transform="translate(0 0)">
            <rect id="Rectangle_993" data-name="Rectangle 993" width="0.785" height="80.025" transform="translate(0 87.376) rotate(-60)" fill="#fff"/>
            <rect id="Rectangle_994" data-name="Rectangle 994" width="0.785" height="80.025" transform="matrix(0.5, -0.866, 0.866, 0.5, 21.452, 74.99)" fill="#fff"/>
            <rect id="Rectangle_995" data-name="Rectangle 995" width="0.785" height="80.025" transform="translate(42.903 62.605) rotate(-60)" fill="#fff"/>
            <rect id="Rectangle_996" data-name="Rectangle 996" width="0.785" height="80.025" transform="translate(64.355 50.22) rotate(-59.999)" fill="#fff"/>
            <rect id="Rectangle_997" data-name="Rectangle 997" width="0.785" height="80.025" transform="translate(85.807 37.835) rotate(-60)" fill="#fff"/>
            <rect id="Rectangle_998" data-name="Rectangle 998" width="0.784" height="80.025" transform="translate(107.259 25.449) rotate(-59.999)" fill="#fff"/>
            <rect id="Rectangle_999" data-name="Rectangle 999" width="0.784" height="80.026" transform="translate(128.71 13.064) rotate(-60)" fill="#fff"/>
            <rect id="Rectangle_1000" data-name="Rectangle 1000" width="0.784" height="80.025" transform="translate(150.162 0.679) rotate(-60)" fill="#fff"/>
            <path id="Path_10548" data-name="Path 10548" d="M171.769,277.4,157.8,285.461l-4.907-2.833,13.969-8.065Z" transform="translate(-147.373 -196.838)" fill="#fff"/>
            <path id="Path_10549" data-name="Path 10549" d="M212.787,315.616l-5.308,3.065-4.907-2.833,5.308-3.065Z" transform="translate(-132.979 -185.764)" fill="#fff"/>
            <path id="Path_10550" data-name="Path 10550" d="M229.363,306.045l-5.308,3.065-4.908-2.834,5.308-3.064Z" transform="translate(-128.177 -188.537)" fill="#fff"/>
            <path id="Path_10551" data-name="Path 10551" d="M245.94,296.475l-5.308,3.064-4.908-2.833,5.308-3.065Z" transform="translate(-123.374 -191.31)" fill="#fff"/>
            <path id="Path_10552" data-name="Path 10552" d="M262.517,286.9l-5.308,3.065-4.908-2.833,5.308-3.065Z" transform="translate(-118.571 -194.083)" fill="#fff"/>
            <path id="Path_10553" data-name="Path 10553" d="M279.094,277.333l-5.308,3.065-4.908-2.833,5.308-3.065Z" transform="translate(-113.768 -196.856)" fill="#fff"/>
            <path id="Path_10554" data-name="Path 10554" d="M295.671,267.763l-5.308,3.065-4.907-2.833,5.308-3.065Z" transform="translate(-108.965 -199.629)" fill="#fff"/>
            <path id="Path_10555" data-name="Path 10555" d="M312.248,258.192l-5.308,3.065-4.908-2.833,5.308-3.065Z" transform="translate(-104.162 -202.402)" fill="#fff"/>
            <path id="Path_10556" data-name="Path 10556" d="M328.825,248.621l-5.308,3.065-4.908-2.833,5.308-3.065Z" transform="translate(-99.36 -205.175)" fill="#fff"/>
            <path id="Path_10557" data-name="Path 10557" d="M205.035,258.19l-13.969,8.065-4.908-2.833,13.969-8.065Z" transform="translate(-137.735 -202.402)" fill="#fff"/>
            <path id="Path_10558" data-name="Path 10558" d="M238.3,238.984l-13.969,8.065-4.908-2.834,13.969-8.065Z" transform="translate(-128.097 -207.967)" fill="#fff"/>
            <path id="Path_10559" data-name="Path 10559" d="M271.565,219.779,257.6,227.843l-4.908-2.833,13.969-8.065Z" transform="translate(-118.459 -213.531)" fill="#fff"/>
          </g>
        </g>
        <g id="Group_4821" data-name="Group 4821" transform="translate(0 94.364)">
          <path id="Path_10560" data-name="Path 10560" d="M147.543,286.549a4.71,4.71,0,0,1-4.263,0,1.3,1.3,0,0,1,0-2.461,4.71,4.71,0,0,1,4.263,0A1.3,1.3,0,0,1,147.543,286.549Z" transform="translate(-142.397 -283.579)" fill="#fff"/>
          <path id="Path_10561" data-name="Path 10561" d="M152.7,289.528a4.71,4.71,0,0,1-4.263,0,1.3,1.3,0,0,1,0-2.461,4.71,4.71,0,0,1,4.263,0A1.3,1.3,0,0,1,152.7,289.528Z" transform="translate(-140.903 -282.716)" fill="#fff"/>
          <path id="Path_10562" data-name="Path 10562" d="M157.861,292.506a4.713,4.713,0,0,1-4.264,0,1.3,1.3,0,0,1,0-2.461,4.713,4.713,0,0,1,4.264,0A1.3,1.3,0,0,1,157.861,292.506Z" transform="translate(-139.408 -281.853)" fill="#fff"/>
          <path id="Path_10563" data-name="Path 10563" d="M163.019,295.485a4.71,4.71,0,0,1-4.263,0,1.3,1.3,0,0,1,0-2.462,4.714,4.714,0,0,1,4.263,0A1.3,1.3,0,0,1,163.019,295.485Z" transform="translate(-137.913 -280.99)" fill="#fff"/>
          <path id="Path_10564" data-name="Path 10564" d="M168.178,298.463a4.71,4.71,0,0,1-4.263,0,1.3,1.3,0,0,1,0-2.461,4.71,4.71,0,0,1,4.263,0A1.3,1.3,0,0,1,168.178,298.463Z" transform="translate(-136.418 -280.127)" fill="#fff"/>
          <path id="Path_10565" data-name="Path 10565" d="M173.337,301.442a4.71,4.71,0,0,1-4.263,0,1.3,1.3,0,0,1,0-2.461,4.71,4.71,0,0,1,4.263,0A1.3,1.3,0,0,1,173.337,301.442Z" transform="translate(-134.924 -279.264)" fill="#fff"/>
          <path id="Path_10566" data-name="Path 10566" d="M178.5,304.42a4.71,4.71,0,0,1-4.263,0,1.3,1.3,0,0,1,0-2.461,4.71,4.71,0,0,1,4.263,0A1.3,1.3,0,0,1,178.5,304.42Z" transform="translate(-133.429 -278.401)" fill="#fff"/>
        </g>
        <g id="Group_4822" data-name="Group 4822" transform="translate(165.515)">
          <path id="Path_10567" data-name="Path 10567" d="M275.876,213.383a4.71,4.71,0,0,1-4.263,0,1.3,1.3,0,0,1,0-2.461,4.71,4.71,0,0,1,4.263,0A1.3,1.3,0,0,1,275.876,213.383Z" transform="translate(-270.73 -210.413)" fill="#fff"/>
          <path id="Path_10568" data-name="Path 10568" d="M281.035,216.363a4.721,4.721,0,0,1-4.264,0,1.3,1.3,0,0,1,0-2.462,4.713,4.713,0,0,1,4.264,0A1.3,1.3,0,0,1,281.035,216.363Z" transform="translate(-269.236 -209.55)" fill="#fff"/>
          <path id="Path_10569" data-name="Path 10569" d="M286.193,219.34a4.71,4.71,0,0,1-4.263,0,1.3,1.3,0,0,1,0-2.461,4.71,4.71,0,0,1,4.263,0A1.3,1.3,0,0,1,286.193,219.34Z" transform="translate(-267.741 -208.687)" fill="#fff"/>
          <ellipse id="Ellipse_173" data-name="Ellipse 173" cx="3.014" cy="1.74" rx="3.014" ry="1.74" transform="translate(19.96 11.524)" fill="#fff"/>
          <path id="Path_10570" data-name="Path 10570" d="M296.511,225.3a4.71,4.71,0,0,1-4.263,0,1.3,1.3,0,0,1,0-2.461,4.71,4.71,0,0,1,4.263,0A1.3,1.3,0,0,1,296.511,225.3Z" transform="translate(-264.752 -206.961)" fill="#fff"/>
          <path id="Path_10571" data-name="Path 10571" d="M301.67,228.275a4.71,4.71,0,0,1-4.263,0,1.3,1.3,0,0,1,0-2.461,4.71,4.71,0,0,1,4.263,0A1.3,1.3,0,0,1,301.67,228.275Z" transform="translate(-263.257 -206.098)" fill="#fff"/>
          <path id="Path_10572" data-name="Path 10572" d="M306.829,231.254a4.71,4.71,0,0,1-4.262,0,1.3,1.3,0,0,1,0-2.461,4.71,4.71,0,0,1,4.262,0A1.3,1.3,0,0,1,306.829,231.254Z" transform="translate(-261.762 -205.235)" fill="#fff"/>
        </g>
      </g>
      <g id="Group_4827" data-name="Group 4827" transform="translate(152.453 85.942)">
        <g id="Group_4824" data-name="Group 4824" transform="translate(0 60.721)">
          <path id="Path_10573" data-name="Path 10573" d="M277.939,322.588l22.65,16.707c-14.557,6.58-35.563,5.844-48.636-1.7-5.5-3.175-9.113-7.278-10.319-11.715Z" transform="translate(-241.191 -301.371)" fill="#e69022"/>
          <path id="Path_10574" data-name="Path 10574" d="M269.783,327.318l4.5-21.057c8.128.58,15.691,2.711,21.482,6.055,14.255,8.23,14.255,21.775,0,30q-1.577.911-3.335,1.705Z" transform="translate(-233.035 -306.102)" fill="#faeb37"/>
          <path id="Path_10575" data-name="Path 10575" d="M278.038,327.354l-36.3,3.289c-1.819-6.694,2.021-13.5,10.319-18.291,8-4.618,19.261-6.855,30.489-6.055Z" transform="translate(-241.29 -306.137)" fill="#a0eafe"/>
          <path id="Path_10576" data-name="Path 10576" d="M251.953,336.853c-5.5-3.175-9.113-7.278-10.319-11.715v11.944c1.206,4.435,4.82,8.538,10.319,11.713,13.073,7.548,34.079,8.284,48.637,1.705V338.556C286.032,345.137,265.026,344.4,251.953,336.853Z" transform="translate(-241.191 -300.632)" fill="#c1751b"/>
          <path id="Path_10577" data-name="Path 10577" d="M241.3,322.353v.629l.006.047C241.3,322.8,241.294,322.577,241.3,322.353Z" transform="translate(-241.288 -301.439)" fill="url(#linear-gradient-7)"/>
          <path id="Path_10578" data-name="Path 10578" d="M290.68,337.568q-1.577.911-3.334,1.705v11.944q1.755-.793,3.334-1.705c7.17-4.14,10.731-9.624,10.688-15.1V322.663C301.325,328.075,297.766,333.479,290.68,337.568Z" transform="translate(-227.946 -301.349)" fill="url(#linear-gradient-8)"/>
          <path id="Path_10579" data-name="Path 10579" d="M290.68,337.568q-1.577.911-3.334,1.705v11.944q1.755-.793,3.334-1.705c7.17-4.14,10.731-9.624,10.688-15.1V322.663C301.325,328.075,297.766,333.479,290.68,337.568Z" transform="translate(-227.946 -301.349)" fill="#cfc02d"/>
          <path id="Path_10580" data-name="Path 10580" d="M241.308,322.887l-.006-.046v11.12a12.447,12.447,0,0,0,.432,3.787V325.8A12.39,12.39,0,0,1,241.308,322.887Z" transform="translate(-241.29 -301.298)" fill="url(#linear-gradient-9)"/>
          <path id="Path_10581" data-name="Path 10581" d="M241.308,322.887l-.006-.046v11.12a12.447,12.447,0,0,0,.432,3.787V325.8A12.39,12.39,0,0,1,241.308,322.887Z" transform="translate(-241.29 -301.298)" fill="#76c1cf"/>
        </g>
        <g id="Group_4825" data-name="Group 4825" transform="translate(65.486 23.144)">
          <path id="Path_10582" data-name="Path 10582" d="M307.366,313.286l13.485-7.785c2.49-1.438,2.178-3.952-.7-5.612l-3.2-1.848c-2.876-1.661-7.229-1.842-9.721-.4l-13.484,7.785c-2.492,1.439-2.178,3.952.7,5.613l3.2,1.848C300.523,314.545,304.876,314.726,307.366,313.286Z" transform="translate(-292.065 -271.305)" fill="#fff"/>
          <path id="Path_10583" data-name="Path 10583" d="M345.077,277.973l-30.334,17.515c-2.492,1.438-2.18,3.951.7,5.612l3.2,1.848c2.877,1.661,7.229,1.842,9.721.4L358.7,285.837c2.492-1.438,2.18-3.952-.7-5.612l-3.2-1.848C351.922,276.716,347.569,276.535,345.077,277.973Z" transform="translate(-285.982 -277.002)" fill="#fff"/>
          <path id="Path_10584" data-name="Path 10584" d="M307.783,324.434l66.437-38.357-3.1-1.79-66.437,38.357Z" transform="translate(-288.409 -274.892)" fill="#fff"/>
          <path id="Path_10585" data-name="Path 10585" d="M311.2,323.855l46.758-27-3.1-1.79-46.757,27Z" transform="translate(-287.419 -271.768)" fill="#fff"/>
        </g>
        <g id="Group_4826" data-name="Group 4826" transform="translate(130.176)">
          <path id="Path_10586" data-name="Path 10586" d="M380.515,284.631l-6.049,3.493-32.243-18.616,6.049-3.493Z" transform="translate(-342.223 -257.041)" fill="url(#linear-gradient-10)"/>
          <path id="Path_10587" data-name="Path 10587" d="M386.069,278.2l-6.049,3.493-19.814-11.44,6.049-3.492Z" transform="translate(-337.013 -256.825)" fill="url(#linear-gradient-11)"/>
          <path id="Path_10588" data-name="Path 10588" d="M395.863,274.218l-6.049,3.493-26.26-15.161,6.049-3.493Z" transform="translate(-336.042 -259.057)" fill="url(#linear-gradient-12)"/>
        </g>
      </g>
    </g>
    <g id="Group_4834" data-name="Group 4834" transform="translate(376.615 169.635)">
      <g id="Group_4830" data-name="Group 4830">
        <g id="Group_4829" data-name="Group 4829" transform="translate(12.937 5.4)">
          <path id="Path_10589" data-name="Path 10589" d="M376.1,150.327,319.683,182.9a3.825,3.825,0,0,1-3.428-.142h0c-1.01-.583-1.121-1.474-.246-1.978l56.422-32.576a3.829,3.829,0,0,1,3.428.142h0C376.868,148.932,376.979,149.821,376.1,150.327Z" transform="translate(-315.419 -147.865)" fill="#c1cdf8"/>
          <path id="Path_10590" data-name="Path 10590" d="M372.508,169.7l-35.5,20.5a3.822,3.822,0,0,1-3.427-.143h0c-1.01-.583-1.121-1.473-.246-1.978l35.5-20.5a3.825,3.825,0,0,1,3.428.143h0C373.271,168.3,373.382,169.189,372.508,169.7Z" transform="translate(-310.399 -142.254)" fill="#c1cdf8"/>
          <path id="Path_10591" data-name="Path 10591" d="M369.969,158.768l-44.732,25.826a3.826,3.826,0,0,1-3.427-.142h0c-1.011-.584-1.121-1.474-.246-1.98L366.3,156.647a3.822,3.822,0,0,1,3.427.142h0C370.734,157.373,370.845,158.263,369.969,158.768Z" transform="translate(-313.809 -145.42)" fill="#c1cdf8"/>
          <path id="Path_10592" data-name="Path 10592" d="M381.411,159.341l-50.617,29.223a3.825,3.825,0,0,1-3.428-.142h0c-1.01-.583-1.121-1.474-.245-1.978l50.617-29.224a3.822,3.822,0,0,1,3.427.142h0C382.174,157.946,382.285,158.836,381.411,159.341Z" transform="translate(-312.199 -145.254)" fill="#c1cdf8"/>
        </g>
        <path id="Path_10593" data-name="Path 10593" d="M337.848,205.237a14.4,14.4,0,0,1-7.014-1.746l-22.271-12.857c-2.017-1.166-3.175-2.754-3.175-4.357a4.06,4.06,0,0,1,2.32-3.45l65.669-37.9c3.2-1.846,8.787-1.624,12.457.5l22.27,12.857c2.018,1.165,3.177,2.754,3.177,4.358a4.06,4.06,0,0,1-2.32,3.449l-65.669,37.9A11.1,11.1,0,0,1,337.848,205.237Zm40.959-60.491a10.036,10.036,0,0,0-4.9,1.1l-65.669,37.9a3.051,3.051,0,0,0-1.788,2.529c0,1.214.963,2.466,2.644,3.437l22.271,12.857c3.321,1.917,8.539,2.144,11.395.494l65.67-37.9a3.051,3.051,0,0,0,1.788-2.528c0-1.215-.963-2.467-2.645-3.438L385.3,146.344A13.424,13.424,0,0,0,378.807,144.746Z" transform="translate(-305.388 -143.678)" fill="#c1cdf8"/>
      </g>
      <g id="Group_4833" data-name="Group 4833" transform="translate(59.538 29.628)">
        <g id="Group_4832" data-name="Group 4832" transform="translate(4.818)">
          <path id="Path_10594" data-name="Path 10594" d="M380.344,207.74l-25.057-1.606.163-.845,23.463,1.5.8-19.144,23.987-2.606.979-14.959,1.47.032-1.022,15.636-23.972,2.6Z" transform="translate(-355.287 -165.655)" fill="#c1cdf8"/>
          <g id="Group_4831" data-name="Group 4831" transform="translate(44.714)">
            <path id="Path_10595" data-name="Path 10595" d="M400.657,172.116l-5-5.467-5.7,5.233Z" transform="translate(-389.956 -166.65)" fill="#c1cdf8"/>
          </g>
        </g>
        <path id="Path_10596" data-name="Path 10596" d="M359.915,196.344c1.913,1.1,1.913,2.9,0,4a7.661,7.661,0,0,1-6.928,0c-1.914-1.1-1.914-2.9,0-4A7.653,7.653,0,0,1,359.915,196.344Z" transform="translate(-351.551 -158.287)" fill="#c1cdf8"/>
        <path id="Path_10597" data-name="Path 10597" d="M378.725,197.549c1.914,1.105,1.914,2.9,0,4a7.661,7.661,0,0,1-6.928,0c-1.913-1.105-1.913-2.9,0-4A7.661,7.661,0,0,1,378.725,197.549Z" transform="translate(-346.101 -157.937)" fill="#c1cdf8"/>
        <path id="Path_10598" data-name="Path 10598" d="M379.348,182.613c1.913,1.1,1.913,2.9,0,4a7.664,7.664,0,0,1-6.93,0c-1.913-1.105-1.913-2.9,0-4A7.656,7.656,0,0,1,379.348,182.613Z" transform="translate(-345.921 -162.265)" fill="#c1cdf8"/>
        <path id="Path_10599" data-name="Path 10599" d="M397.94,180.593c1.914,1.1,1.914,2.9,0,4a7.653,7.653,0,0,1-6.928,0c-1.913-1.1-1.913-2.9,0-4A7.653,7.653,0,0,1,397.94,180.593Z" transform="translate(-340.534 -162.85)" fill="#c1cdf8"/>
      </g>
    </g>
    <g id="Group_4844" data-name="Group 4844" transform="translate(278.593 56.125)">
      <path id="Path_10600" data-name="Path 10600" d="M261.993,221.353H260.93V211.235a3.649,3.649,0,0,0-1.807-3.144l-27.4-15.977a4.7,4.7,0,0,1,0-8.123l30.3-17.7.536.917-30.3,17.7a3.64,3.64,0,0,0,0,6.287l27.4,15.977a4.72,4.72,0,0,1,2.334,4.063Z" transform="translate(-229.386 -23.615)" fill="#c1cdf8"/>
      <g id="Group_4836" data-name="Group 4836" transform="translate(17.379 59.83)">
        <path id="Path_10601" data-name="Path 10601" d="M397.817,128.275,288.03,191.66c-3.529,2.038-9.749,1.779-13.825-.574L246.234,174.8c-4.074-2.352-4.521-5.944-.992-7.981l109.786-63.385c3.529-2.038,9.75-1.78,13.825.573l27.972,16.288C400.9,122.645,401.346,126.237,397.817,128.275Z" transform="translate(-242.861 -102.057)" fill="#eaf2fd"/>
        <g id="Group_4835" data-name="Group 4835" transform="translate(0.002 22.903)">
          <path id="Path_10602" data-name="Path 10602" d="M397.816,123.13,288.03,186.515c-3.529,2.038-9.749,1.779-13.825-.574l-27.972-16.288c-2.266-1.308-3.4-3-3.367-4.594v7.266c0,.024,0,.049,0,.074-.075,1.616,1.067,3.339,3.367,4.668L274.2,193.354c4.076,2.354,10.3,2.61,13.825.574l109.787-63.385a4.121,4.121,0,0,0,2.374-3.388v-7.266c0-.025,0-.049,0-.074A4.156,4.156,0,0,1,397.816,123.13Z" transform="translate(-242.862 -119.815)" fill="url(#linear-gradient-13)"/>
        </g>
      </g>
      <g id="Group_4843" data-name="Group 4843" transform="translate(40.406)">
        <g id="Group_4838" data-name="Group 4838" transform="translate(63.309)">
          <path id="Path_10603" data-name="Path 10603" d="M356.774,71.068l-20.3,11.718a6.469,6.469,0,0,1-5.8-.24L311.217,71.309c-1.709-.987-1.9-2.493-.417-3.347l20.3-11.718a6.465,6.465,0,0,1,5.8.241l19.463,11.236C358.066,68.707,358.253,70.214,356.774,71.068Z" transform="translate(-309.802 -55.667)" fill="#faeb37"/>
          <g id="Group_4837" data-name="Group 4837" transform="translate(0.001 14.002)">
            <path id="Path_10604" data-name="Path 10604" d="M352.356,140.813V66.69h0a1.839,1.839,0,0,1-.97,1.184l-20.3,11.718a5.261,5.261,0,0,1-2.692.569v74.647a5.261,5.261,0,0,0,2.692-.569l20.3-11.718A1.63,1.63,0,0,0,352.356,140.813Z" transform="translate(-304.416 -66.476)" fill="#cfc02d"/>
            <path id="Path_10605" data-name="Path 10605" d="M330.68,79.4,311.216,68.163a2.592,2.592,0,0,1-1.386-1.639v74.123c-.15.734.324,1.549,1.386,2.163l19.463,11.237a6.7,6.7,0,0,0,3.106.809V80.209A6.7,6.7,0,0,1,330.68,79.4Z" transform="translate(-309.803 -66.524)" fill="#cfc02d"/>
            <path id="Path_10606" data-name="Path 10606" d="M330.68,79.4,311.216,68.163a2.592,2.592,0,0,1-1.386-1.639v74.123c-.15.734.324,1.549,1.386,2.163l19.463,11.237a6.7,6.7,0,0,0,3.106.809V80.209A6.7,6.7,0,0,1,330.68,79.4Z" transform="translate(-309.803 -66.524)" fill="#8d801e"/>
          </g>
        </g>
        <g id="Group_4840" data-name="Group 4840" transform="translate(31.302 44.171)">
          <path id="Path_10607" data-name="Path 10607" d="M331.956,105.316l-20.3,11.718a6.469,6.469,0,0,1-5.8-.24L286.4,105.557c-1.709-.987-1.9-2.493-.417-3.347l20.3-11.718a6.466,6.466,0,0,1,5.8.241l19.465,11.236C333.248,102.955,333.436,104.462,331.956,105.316Z" transform="translate(-284.985 -89.916)" fill="#e69022"/>
          <g id="Group_4839" data-name="Group 4839" transform="translate(0.001 14.002)">
            <path id="Path_10608" data-name="Path 10608" d="M327.539,149.318v-48.38h0a1.842,1.842,0,0,1-.971,1.184l-20.3,11.718a5.266,5.266,0,0,1-2.693.569v48.9a5.253,5.253,0,0,0,2.693-.569l20.3-11.717A1.633,1.633,0,0,0,327.539,149.318Z" transform="translate(-279.598 -100.724)" fill="#c1751b"/>
            <path id="Path_10609" data-name="Path 10609" d="M305.863,113.649,286.4,102.411a2.588,2.588,0,0,1-1.386-1.639v48.379c-.151.734.322,1.549,1.386,2.163l19.463,11.237a6.677,6.677,0,0,0,3.1.809v-48.9A6.693,6.693,0,0,1,305.863,113.649Z" transform="translate(-284.986 -100.772)" fill="url(#linear-gradient-14)"/>
            <path id="Path_10610" data-name="Path 10610" d="M305.863,113.649,286.4,102.411a2.588,2.588,0,0,1-1.386-1.639v48.379c-.151.734.322,1.549,1.386,2.163l19.463,11.237a6.677,6.677,0,0,0,3.1.809v-48.9A6.693,6.693,0,0,1,305.863,113.649Z" transform="translate(-284.986 -100.772)" fill="#a76217"/>
          </g>
        </g>
        <g id="Group_4842" data-name="Group 4842" transform="translate(0 80.831)">
          <path id="Path_10611" data-name="Path 10611" d="M307.687,133.741l-20.3,11.717a6.465,6.465,0,0,1-5.8-.24L262.13,133.981c-1.709-.987-1.9-2.492-.417-3.347l20.3-11.717a6.465,6.465,0,0,1,5.8.24l19.463,11.237C308.979,131.381,309.166,132.886,307.687,133.741Z" transform="translate(-260.715 -118.34)" fill="#a0eafe"/>
          <g id="Group_4841" data-name="Group 4841" transform="translate(0.001 14.002)">
            <path id="Path_10612" data-name="Path 10612" d="M303.269,159.157V129.363h0a1.846,1.846,0,0,1-.97,1.184L282,142.264a5.248,5.248,0,0,1-2.692.569v30.319a5.261,5.261,0,0,0,2.692-.569l20.3-11.718A1.63,1.63,0,0,0,303.269,159.157Z" transform="translate(-255.328 -129.148)" fill="#76c1cf"/>
            <path id="Path_10613" data-name="Path 10613" d="M281.593,142.073,262.13,130.835a2.589,2.589,0,0,1-1.387-1.639V158.99c-.151.735.324,1.55,1.387,2.164l19.463,11.237a6.7,6.7,0,0,0,3.106.809V142.881A6.682,6.682,0,0,1,281.593,142.073Z" transform="translate(-260.716 -129.196)" fill="#76c1cf"/>
            <path id="Path_10614" data-name="Path 10614" d="M281.593,142.073,262.13,130.835a2.589,2.589,0,0,1-1.387-1.639V158.99c-.151.735.324,1.55,1.387,2.164l19.463,11.237a6.7,6.7,0,0,0,3.106.809V142.881A6.682,6.682,0,0,1,281.593,142.073Z" transform="translate(-260.716 -129.196)" fill="#62a6ad"/>
          </g>
        </g>
      </g>
    </g>
    <g id="Group_4851" data-name="Group 4851" transform="translate(358.812 445.459)">
      <g id="Group_4846" data-name="Group 4846" transform="translate(0 64.395)">
        <path id="Path_10615" data-name="Path 10615" d="M308.33,409.126c3.83,2.212,3.83,5.8,0,8.009a15.33,15.33,0,0,1-13.872,0c-3.831-2.212-3.831-5.8,0-8.009A15.338,15.338,0,0,1,308.33,409.126Z" transform="translate(-291.585 -407.469)" fill="#eaf2fd"/>
        <g id="Group_4845" data-name="Group 4845" transform="translate(0.003 5.694)">
          <path id="Path_10616" data-name="Path 10616" d="M308.329,415.857a15.33,15.33,0,0,1-13.872,0c-1.9-1.1-2.857-2.534-2.87-3.974v6.086c-.014,1.459.941,2.921,2.87,4.034a15.33,15.33,0,0,0,13.872,0c1.928-1.113,2.884-2.576,2.87-4.034v-6.086C311.186,413.322,310.23,414.759,308.329,415.857Z" transform="translate(-291.587 -411.883)" fill="url(#linear-gradient-15)"/>
        </g>
      </g>
      <g id="Group_4848" data-name="Group 4848" transform="translate(44.245 42.207)">
        <path id="Path_10617" data-name="Path 10617" d="M342.634,391.924c3.831,2.211,3.831,5.8,0,8.008a15.327,15.327,0,0,1-13.871,0c-3.831-2.212-3.831-5.8,0-8.008A15.327,15.327,0,0,1,342.634,391.924Z" transform="translate(-325.891 -390.265)" fill="#eaf2fd"/>
        <g id="Group_4847" data-name="Group 4847" transform="translate(0.002 5.693)">
          <path id="Path_10618" data-name="Path 10618" d="M342.634,398.653a15.327,15.327,0,0,1-13.871,0c-1.9-1.1-2.858-2.534-2.871-3.974v6.086c-.013,1.46.942,2.921,2.871,4.034a15.327,15.327,0,0,0,13.871,0c1.928-1.113,2.884-2.574,2.871-4.034v-6.086C345.491,396.118,344.536,397.555,342.634,398.653Z" transform="translate(-325.892 -394.679)" fill="url(#linear-gradient-16)"/>
        </g>
      </g>
      <g id="Group_4850" data-name="Group 4850" transform="translate(87.153 17.241)">
        <path id="Path_10619" data-name="Path 10619" d="M375.9,372.565c3.83,2.212,3.83,5.8,0,8.009a15.33,15.33,0,0,1-13.872,0c-3.831-2.212-3.831-5.8,0-8.009A15.338,15.338,0,0,1,375.9,372.565Z" transform="translate(-359.159 -370.908)" fill="#eaf2fd"/>
        <g id="Group_4849" data-name="Group 4849" transform="translate(0.003 5.694)">
          <path id="Path_10620" data-name="Path 10620" d="M375.9,379.3a15.33,15.33,0,0,1-13.872,0c-1.9-1.1-2.857-2.534-2.87-3.974v6.086c-.014,1.459.942,2.921,2.87,4.034a15.33,15.33,0,0,0,13.872,0c1.928-1.113,2.884-2.576,2.87-4.034v-6.086C378.761,376.761,377.805,378.2,375.9,379.3Z" transform="translate(-359.162 -375.322)" fill="url(#linear-gradient-17)"/>
        </g>
      </g>
      <path id="Path_10621" data-name="Path 10621" d="M299.5,423.641a.531.531,0,0,1-.53-.531V401.623a4.722,4.722,0,0,1,2.355-4.079l34.011-19.636a4.711,4.711,0,0,1,7.066,4.079V400.23a.531.531,0,1,1-1.061,0V381.987a3.649,3.649,0,0,0-5.474-3.16l-34.011,19.636a3.658,3.658,0,0,0-1.825,3.16V423.11A.531.531,0,0,1,299.5,423.641Z" transform="translate(-289.444 -351.823)" fill="#c1cdf8"/>
      <path id="Path_10622" data-name="Path 10622" d="M333.615,405.94a.531.531,0,0,1-.531-.531V381.9a4.725,4.725,0,0,1,2.355-4.079l34.01-19.636a4.711,4.711,0,0,1,7.068,4.079V380.5a.531.531,0,1,1-1.063,0V362.259a3.649,3.649,0,0,0-5.474-3.16l-34.01,19.636a3.66,3.66,0,0,0-1.825,3.16v23.513A.53.53,0,0,1,333.615,405.94Z" transform="translate(-279.561 -357.539)" fill="#c1cdf8"/>
    </g>
    <g id="Group_4867" data-name="Group 4867" transform="translate(75.282 54.087)">
      <g id="Group_4854" data-name="Group 4854" transform="translate(0 83.025)">
        <g id="Group_4853" data-name="Group 4853">
          <path id="Path_10623" data-name="Path 10623" d="M240.321,153.408,130.535,216.793c-3.529,2.036-9.75,1.779-13.825-.574L75.121,191.2c-4.074-2.352-4.521-5.944-.992-7.982l109.786-63.385c3.529-2.036,9.749-1.779,13.825.574l41.589,25.017C243.4,147.778,243.85,151.37,240.321,153.408Z" transform="translate(-71.748 -118.461)" fill="#eaf2fd"/>
          <g id="Group_4852" data-name="Group 4852" transform="translate(0.004 31.632)">
            <path id="Path_10624" data-name="Path 10624" d="M240.32,146.3,130.534,209.687c-3.529,2.036-9.75,1.779-13.825-.574L75.12,184.1c-2.266-1.309-3.406-3-3.367-4.594L85.37,244.2c0,.025,0,.049,0,.074-.076,1.615,1.067,3.339,3.367,4.668l27.972,16.288c4.074,2.352,10.3,2.61,13.825.573L240.32,202.416a4.125,4.125,0,0,0,2.376-3.387V143.061c0-.025,0-.049,0-.074A4.158,4.158,0,0,1,240.32,146.3Z" transform="translate(-71.751 -142.987)" fill="url(#linear-gradient-18)"/>
          </g>
        </g>
        <path id="Path_10625" data-name="Path 10625" d="M75.963,200.823,115.489,224.6c4.074,2.352,10.3,2.61,13.825.574L239.1,161.788a4.152,4.152,0,0,0,2.378-3.333l0,6.6A4.1,4.1,0,0,1,239.1,168.5L129.314,231.888c-3.529,2.038-9.75,1.78-13.825-.573l-37.908-22.8Z" transform="translate(-70.527 -106.873)" fill="url(#linear-gradient-19)"/>
      </g>
      <g id="Group_4861" data-name="Group 4861" transform="translate(38.773 72.061)">
        <g id="Group_4859" data-name="Group 4859" transform="translate(0 13.367)">
          <g id="Group_4856" data-name="Group 4856">
            <path id="Path_10626" data-name="Path 10626" d="M185.584,141.535,138.55,168.69a6.608,6.608,0,0,1-5.922-.245l-29.371-16.959c-1.746-1.007-1.937-2.546-.426-3.419l47.034-27.155a6.608,6.608,0,0,1,5.922.246l29.371,16.957C186.9,139.123,187.1,140.662,185.584,141.535Z" transform="translate(-101.811 -120.324)" fill="#eaf2fd"/>
            <g id="Group_4855" data-name="Group 4855" transform="translate(0.001 19.791)">
              <path id="Path_10627" data-name="Path 10627" d="M185.584,137.089,138.55,164.244a6.607,6.607,0,0,1-5.922-.245l-29.371-16.959a2.4,2.4,0,0,1-1.443-1.967v26.488a.266.266,0,0,0,0,.032,2.381,2.381,0,0,0,1.443,2l29.371,16.957a6.608,6.608,0,0,0,5.922.246l47.034-27.155a1.768,1.768,0,0,0,1.018-1.452V135.669A1.781,1.781,0,0,1,185.584,137.089Z" transform="translate(-101.812 -135.669)" fill="url(#linear-gradient-20)"/>
            </g>
          </g>
          <g id="Group_4858" data-name="Group 4858" transform="translate(40.063 32.404)">
            <path id="Path_10628" data-name="Path 10628" d="M137.622,164.944l30.1-17.3a4.837,4.837,0,0,1,7.256,4.189v1.53a4.838,4.838,0,0,1-2.42,4.19l-30.1,17.289a4.838,4.838,0,0,1-7.255-4.19v-1.515A4.84,4.84,0,0,1,137.622,164.944Z" transform="translate(-132.199 -145.003)" fill-rule="evenodd" fill="url(#linear-gradient-21)"/>
            <g id="Group_4857" data-name="Group 4857">
              <path id="Path_10629" data-name="Path 10629" d="M135.876,171.1V169.58a4.84,4.84,0,0,1,2.42-4.19l30.1-17.3a4.81,4.81,0,0,1,5.347.338,4.909,4.909,0,0,0-.509-.338l-2.974-1.966a4.793,4.793,0,0,0-4.866-.021l-30.1,17.3a4.838,4.838,0,0,0-2.418,4.189v1.515a4.79,4.79,0,0,0,2.418,4.189l2.973,1.967h0A4.791,4.791,0,0,1,135.876,171.1Z" transform="translate(-132.874 -145.448)" fill-rule="evenodd" fill="url(#linear-gradient-22)"/>
            </g>
            <path id="Path_10630" data-name="Path 10630" d="M171.875,147.268a4.833,4.833,0,0,1,.35,1.807V150.6a4.834,4.834,0,0,1-2.421,4.19l-30.1,17.29a4.775,4.775,0,0,1-4.229.291,4.839,4.839,0,0,0,6.9,2.383l30.1-17.289a4.838,4.838,0,0,0,2.42-4.19v-1.53A4.807,4.807,0,0,0,171.875,147.268Z" transform="translate(-132.121 -144.921)" fill-rule="evenodd" fill="url(#linear-gradient-23)"/>
          </g>
        </g>
        <g id="Group_4860" data-name="Group 4860" transform="translate(13.495)">
          <path id="Path_10631" data-name="Path 10631" d="M173.263,140.114l-34.514,19.86L112.274,145.54,147.6,125.328Z" transform="translate(-112.274 -105.507)" fill="#a3e6e7"/>
          <path id="Path_10632" data-name="Path 10632" d="M167.316,144.567l5.429-34.607-34.374,19.82L132.8,164.427Z" transform="translate(-106.327 -109.96)" fill="url(#linear-gradient-24)"/>
        </g>
      </g>
      <g id="Group_4865" data-name="Group 4865" transform="translate(83.124 122.734)">
        <g id="Group_4862" data-name="Group 4862" transform="translate(0 15.969)">
          <path id="Path_10633" data-name="Path 10633" d="M183.532,237.046c3.079,1.777,3.079,4.659,0,6.436a12.322,12.322,0,0,1-11.148,0c-3.077-1.777-3.077-4.658,0-6.436A12.319,12.319,0,0,1,183.532,237.046Z" transform="translate(-126.384 -140.168)" fill="#cf8720"/>
          <path id="Path_10634" data-name="Path 10634" d="M188.3,261.728h-1.061v-6.913a8.765,8.765,0,0,0-4.371-7.568l-17.794-10.274a9.828,9.828,0,0,1-4.9-8.488V181.436a8.763,8.763,0,0,0-4.35-7.558L136.2,162.553l.531-.921,19.628,11.326a9.833,9.833,0,0,1,4.88,8.477v47.049a8.763,8.763,0,0,0,4.37,7.568L183.4,246.327a9.828,9.828,0,0,1,4.9,8.488Z" transform="translate(-136.199 -161.632)" fill="#cf8720"/>
        </g>
        <g id="Group_4863" data-name="Group 4863" transform="translate(13.364 7.866)">
          <path id="Path_10635" data-name="Path 10635" d="M194.418,231.087c3.079,1.777,3.079,4.659,0,6.437a12.322,12.322,0,0,1-11.148,0c-3.079-1.779-3.079-4.66,0-6.437A12.322,12.322,0,0,1,194.418,231.087Z" transform="translate(-136.594 -133.791)" fill="#faeb37"/>
          <path id="Path_10636" data-name="Path 10636" d="M199.341,255.863h-1.061v-6.912a8.762,8.762,0,0,0-4.37-7.568l-17.794-10.274a9.83,9.83,0,0,1-4.9-8.489V175.571a8.767,8.767,0,0,0-4.352-7.558l-20.3-11.744.533-.92,20.3,11.744a9.832,9.832,0,0,1,4.88,8.477V222.62a8.763,8.763,0,0,0,4.371,7.568l17.794,10.274a9.829,9.829,0,0,1,4.9,8.489Z" transform="translate(-146.561 -155.349)" fill="#faeb37"/>
        </g>
        <g id="Group_4864" data-name="Group 4864" transform="translate(27.138)">
          <path id="Path_10637" data-name="Path 10637" d="M205.3,225.128c3.079,1.777,3.079,4.66,0,6.437a12.322,12.322,0,0,1-11.148,0c-3.079-1.777-3.079-4.66,0-6.437A12.322,12.322,0,0,1,205.3,225.128Z" transform="translate(-147.215 -127.652)" fill="#a0eafe"/>
          <path id="Path_10638" data-name="Path 10638" d="M210.286,249.946h-1.063v-6.913a8.762,8.762,0,0,0-4.37-7.568L187.06,225.191a9.828,9.828,0,0,1-4.9-8.488V169.652a8.769,8.769,0,0,0-4.35-7.558L157.241,150.17l.533-.92,20.567,11.926a9.831,9.831,0,0,1,4.88,8.476V216.7a8.763,8.763,0,0,0,4.37,7.568l17.794,10.274a9.828,9.828,0,0,1,4.9,8.488Z" transform="translate(-157.241 -149.25)" fill="#a0eafe"/>
        </g>
      </g>
      <g id="Group_4866" data-name="Group 4866" transform="translate(47.483)">
        <path id="Path_10639" data-name="Path 10639" d="M213.1,176.565,122.454,228.9a9.26,9.26,0,0,1-13.89-8.02V115.7a9.262,9.262,0,0,1,4.63-8.02l90.647-52.335a9.261,9.261,0,0,1,13.892,8.02V168.545A9.261,9.261,0,0,1,213.1,176.565Z" transform="translate(-108.564 -54.087)" fill="url(#linear-gradient-25)"/>
        <path id="Path_10640" data-name="Path 10640" d="M206.635,66.72l-90.112,52.026c-1.4.807-2.541-.058-2.541-1.92h0a6.106,6.106,0,0,1,2.541-4.855l90.112-52.025c1.4-.807,2.539.057,2.539,1.92h0A6.106,6.106,0,0,1,206.635,66.72Z" transform="translate(-106.994 -52.477)" fill="url(#linear-gradient-26)"/>
      </g>
    </g>
    <g id="Group_4877" data-name="Group 4877" transform="translate(70.499 196.41)">
      <g id="Group_4868" data-name="Group 4868" transform="translate(27.038 29.383)">
        <path id="Path_10641" data-name="Path 10641" d="M98.052,236.166h0A4.235,4.235,0,0,1,93.4,232.42L89.027,191.9a4.237,4.237,0,0,1,3.748-4.651h0a4.236,4.236,0,0,1,4.651,3.748l4.373,40.523A4.236,4.236,0,0,1,98.052,236.166Z" transform="translate(-89.003 -187.22)" fill="#dfaa86"/>
      </g>
      <g id="Group_4871" data-name="Group 4871" transform="translate(9.498 89.295)">
        <g id="Group_4870" data-name="Group 4870" transform="translate(2.085 36.941)">
          <g id="Group_4869" data-name="Group 4869">
            <path id="Path_10642" data-name="Path 10642" d="M77.025,270.06c-.055.561.4,1.046,1.141,1.522.214.135-.027-3.032.709-2.5.214.152,10.389,8.075,16.069,6.612a1.206,1.206,0,0,0,.85-1.221v-1.278c.079-1.441-2.065-3.638-5.32-6.81-3.587-3.5-5.873-5.677-11.234-2.582-1.532.885-2.147,1.546-2.155,2.111Z" transform="translate(-77.02 -262.316)" fill="#080c01"/>
            <path id="Path_10643" data-name="Path 10643" d="M90.459,266.381c4.333,4.221,6.7,6.717,4.471,8s-6.672-.65-11.234-4.1c-4-3.019-9.833-3.391-4.471-6.486S86.872,262.886,90.459,266.381Z" transform="translate(-77.007 -262.316)" fill="#39355f"/>
          </g>
        </g>
        <path id="Path_10644" data-name="Path 10644" d="M86.586,272.664l-.317-38.99-10.782,3.5.1,7.037a46.943,46.943,0,0,0,1.629,17.086s1.838,3.753,1.474,12.488C78.693,273.781,83.426,276.472,86.586,272.664Z" transform="translate(-75.404 -233.674)" fill="#dfaa86"/>
      </g>
      <g id="Group_4874" data-name="Group 4874" transform="translate(19.912 79.074)">
        <g id="Group_4873" data-name="Group 4873" transform="translate(4.111 36.941)">
          <g id="Group_4872" data-name="Group 4872">
            <path id="Path_10645" data-name="Path 10645" d="M86.67,262.135c-.057.562.395,1.047,1.14,1.522.214.137-.027-3.032.709-2.5.214.153,10.389,8.076,16.07,6.614a1.206,1.206,0,0,0,.849-1.223v-1.277c.079-1.442-2.065-3.638-5.32-6.811-3.587-3.5-5.873-5.677-11.234-2.582-1.532.885-2.147,1.546-2.155,2.111Z" transform="translate(-86.665 -254.391)" fill="#080c01"/>
            <path id="Path_10646" data-name="Path 10646" d="M100.1,258.456c4.333,4.223,6.7,6.717,4.473,8s-6.673-.65-11.235-4.1c-4-3.018-9.833-3.391-4.471-6.486S96.516,254.961,100.1,258.456Z" transform="translate(-86.652 -254.391)" fill="#39355f"/>
          </g>
        </g>
        <path id="Path_10647" data-name="Path 10647" d="M96.685,264.739l-.317-38.99-12.89,4.179,2.211,6.353a46.949,46.949,0,0,0,1.629,17.088s1.838,3.752,1.474,12.488C88.792,265.857,93.525,268.547,96.685,264.739Z" transform="translate(-83.478 -225.749)" fill="#dfaa86"/>
      </g>
      <path id="Path_10648" data-name="Path 10648" d="M70.3,229.749v14.4s16.872,5.7,32.731-14.4V215.813Z" transform="translate(-67.383 -149.554)" fill="#e69022"/>
      <path id="Path_10649" data-name="Path 10649" d="M78.4,244.189a1.164,1.164,0,0,0,.54.179c2.828.219,12.994-2,23.164-13.457a5.319,5.319,0,0,0,1.379-3.3V195.089c0-2.45-.877-4.171-2.284-4.963l-7.648-4.462c-1.39-.828-3.322-.729-5.449.5l-10.43,6.022a16.985,16.985,0,0,0-7.656,13.262v32.715a1.66,1.66,0,0,0,.736,1.566Z" transform="translate(-67.466 -158.445)" fill="#ffffeb"/>
      <g id="Group_4875" data-name="Group 4875" transform="translate(2.933 39.082)">
        <path id="Path_10650" data-name="Path 10650" d="M114.217,219.96h0a4.236,4.236,0,0,1-5.708,1.758l-35.95-19.024a4.235,4.235,0,0,1-1.757-5.708h0a4.236,4.236,0,0,1,5.708-1.758l35.95,19.024A4.236,4.236,0,0,1,114.217,219.96Z" transform="translate(-70.313 -194.741)" fill="#dfaa86"/>
      </g>
      <path id="Path_10651" data-name="Path 10651" d="M78.813,194.463A2.657,2.657,0,0,0,80.39,196.7a8.426,8.426,0,0,0,7.626,0,2.658,2.658,0,0,0,1.576-2.236v-7.087a2.659,2.659,0,0,0-1.576-2.238,8.434,8.434,0,0,0-7.626,0,2.658,2.658,0,0,0-1.577,2.238Z" transform="translate(-64.918 -158.705)" fill="#cd8b68"/>
      <g id="Group_4876" data-name="Group 4876">
        <path id="Path_10652" data-name="Path 10652" d="M96.247,176.248l5.33,20.69a2.414,2.414,0,0,1-3.264,2.831l-12.269-5.1a2.414,2.414,0,0,1-1.441-2.7l4.019-20.352a2.415,2.415,0,0,1,4.428-.793l2.919,4.767A2.388,2.388,0,0,1,96.247,176.248Z" transform="translate(-63.253 -162.923)" fill="#6d3f91"/>
        <path id="Path_10653" data-name="Path 10653" d="M80.393,185.538c0,1.771-1.242,2.488-2.775,1.6a6.139,6.139,0,0,1-2.777-4.809c0-1.771,1.243-2.488,2.777-1.6A6.137,6.137,0,0,1,80.393,185.538Z" transform="translate(-66.068 -159.829)" fill="#e6a984"/>
        <circle id="Ellipse_174" data-name="Ellipse 174" cx="14.848" cy="14.848" r="14.848" transform="translate(4.363 2.413)" fill="#dfaa86"/>
        <path id="Path_10654" data-name="Path 10654" d="M71.83,183.681s12.547,6.882,18.662-11.018c0,0,3.269,7.56,11.43,5.89,0,0,0-11.77-12.147-14.054C89.775,164.5,68.3,162.354,71.83,183.681Z" transform="translate(-67.055 -164.438)" fill="#6d3f91"/>
        <path id="Path_10655" data-name="Path 10655" d="M79.729,181.292l5.33,20.69a2.414,2.414,0,0,1-3.266,2.831l-12.268-5.1a2.413,2.413,0,0,1-1.441-2.7L72.1,176.66a2.414,2.414,0,0,1,4.426-.793l2.919,4.767A2.431,2.431,0,0,1,79.729,181.292Z" transform="translate(-68.039 -161.461)" fill="#6d3f91"/>
      </g>
    </g>
    <g id="Group_4913" data-name="Group 4913" transform="translate(59.55 319.288)">
      <g id="Group_4883" data-name="Group 4883" transform="translate(12.47 94.874)">
        <path id="Path_10656" data-name="Path 10656" d="M168.013,351.415l-67.588,39.023a4.585,4.585,0,0,1-4.106-.17h0c-1.21-.7-1.343-1.766-.294-2.371l67.588-39.023a4.583,4.583,0,0,1,4.105.17h0C168.928,349.744,169.061,350.81,168.013,351.415Z" transform="translate(-61.656 -328.871)" fill="#c1cdf8"/>
        <path id="Path_10657" data-name="Path 10657" d="M160.664,361.527l-53.584,30.937a4.581,4.581,0,0,1-4.107-.17h0c-1.21-.7-1.343-1.766-.294-2.371l53.584-30.937a4.581,4.581,0,0,1,4.107.17h0C161.58,359.856,161.712,360.923,160.664,361.527Z" transform="translate(-59.728 -325.942)" fill="#c1cdf8"/>
        <g id="Group_4882" data-name="Group 4882">
          <g id="Group_4878" data-name="Group 4878" transform="translate(0 37.896)">
            <path id="Path_10658" data-name="Path 10658" d="M87.968,365.914a.481.481,0,0,0-.455-.023,36.5,36.5,0,0,1-9.139,1.924.528.528,0,0,0-.237.061h0l-.006,0a.247.247,0,0,0-.1.139,19.426,19.426,0,0,1-.744,1.888,11.409,11.409,0,0,1-2.687,3.509c-.085.076-.133.139.019.232a24.076,24.076,0,0,0,4.06,2c.666.251,1.356.48,2.031.672l.01-.006,0,.014a33.457,33.457,0,0,0,7.526,1.216,36.594,36.594,0,0,0,6.109-.17l-.006,0a7.473,7.473,0,0,0-.4-5.853,8.853,8.853,0,0,0-1.352-2.047l0,0A16.01,16.01,0,0,0,87.968,365.914Z" transform="translate(-67.681 -361.733)" fill="#c1cdf8"/>
            <path id="Path_10659" data-name="Path 10659" d="M87.769,384.442a26.638,26.638,0,0,1-13.024-3.11c-3.565-2.058-5.528-4.822-5.528-7.784s1.963-5.725,5.528-7.782c7.183-4.146,18.867-4.148,26.049,0h0c3.565,2.057,5.528,4.821,5.528,7.782s-1.963,5.725-5.528,7.784A26.643,26.643,0,0,1,87.769,384.442Zm0-20.886a25.692,25.692,0,0,0-12.568,3c-3.271,1.888-5.071,4.371-5.071,6.992s1.8,5.1,5.071,6.993c6.93,4,18.206,4,25.134,0,3.271-1.889,5.073-4.372,5.073-6.993s-1.8-5.1-5.071-6.992A25.69,25.69,0,0,0,87.771,363.556Z" transform="translate(-69.218 -362.656)" fill="#c1cdf8"/>
          </g>
          <g id="Group_4879" data-name="Group 4879" transform="translate(32.818 18.948)">
            <path id="Path_10660" data-name="Path 10660" d="M112.776,353.857c-.526-.308-1.051-.614-1.583-.923a8.372,8.372,0,0,0-4.7-1.02,8.058,8.058,0,0,0-2.892.664,3.755,3.755,0,0,0-.413.21l-.382.221a2.618,2.618,0,0,0-.339.224c-1.386,1.119-1.555,2.3-.534,3.531a4.126,4.126,0,0,0,1.144.88l1.577.9c-1.083.676-1.065,1.73.074,2.386l6.721,3.881a4.669,4.669,0,0,0,4.224,0l7.92-4.572a1.287,1.287,0,0,0,0-2.439l-6.722-3.881A4.688,4.688,0,0,0,112.776,353.857Zm-7.809.743a3.043,3.043,0,0,1,2.436-.693,2.868,2.868,0,0,1,1.163.331c.592.343,1.167.684,1.746,1.027l-3.228,1.864c-.574-.325-1.145-.645-1.711-.978C104.649,355.728,104.5,355.114,104.967,354.6Zm10.794,4.677,2.274,1.313c.466.268.472.7.008.973a1.866,1.866,0,0,1-1.686,0l-2.274-1.313a4.186,4.186,0,0,1-2.772-.352c-1.045-.6-1.063-1.57-.018-2.173a4.226,4.226,0,0,1,3.8-.012A1.192,1.192,0,0,1,115.76,359.277Z" transform="translate(-92.749 -346.824)" fill="#c1cdf8"/>
            <path id="Path_10661" data-name="Path 10661" d="M113.217,369.75a26.632,26.632,0,0,1-13.025-3.109c-3.565-2.058-5.528-4.822-5.528-7.784s1.963-5.724,5.528-7.782c7.183-4.146,18.866-4.146,26.049,0,3.565,2.058,5.529,4.822,5.529,7.782s-1.964,5.725-5.529,7.784A26.624,26.624,0,0,1,113.217,369.75Zm0-20.885a25.706,25.706,0,0,0-12.568,3c-3.269,1.888-5.071,4.372-5.071,6.992s1.8,5.1,5.071,6.993c6.93,4,18.206,4,25.136,0,3.271-1.888,5.071-4.371,5.071-6.993s-1.8-5.1-5.071-6.992A25.7,25.7,0,0,0,113.217,348.865Z" transform="translate(-94.664 -347.965)" fill="#c1cdf8"/>
          </g>
          <g id="Group_4881" data-name="Group 4881" transform="translate(65.637)">
            <g id="Group_4880" data-name="Group 4880" transform="translate(4.629 6.162)">
              <path id="Path_10662" data-name="Path 10662" d="M136.284,338.415l-2.27-.355a.673.673,0,0,0-.671.266l-.353.753v0a13.377,13.377,0,0,0-2.272.161l-.682-.678a.8.8,0,0,0-.743-.116l-2.039.676c-.261.086-.351.279-.2.428l.673.676h0a4.851,4.851,0,0,0-1.4,1.034l-1.305-.2a.71.71,0,0,0-.7.228l-.614,1.312c-.079.168.148.277.439.322l1.305.2h.006a2.259,2.259,0,0,0,.267,1.34l-1.189.423c-.261.086-.35.279-.2.428l1.172,1.178a.8.8,0,0,0,.744.117l1.176-.388h.013a7.045,7.045,0,0,0,1.816.811l-.353.755c-.079.168.084.293.374.338l2.271.355c.29.045.5-.022.579-.19l.353-.753v0a10.732,10.732,0,0,0,2.3-.157l.707.681a.8.8,0,0,0,.744.115l2.04-.678c.261-.086.352-.282.2-.433l-.668-.686.005-.022a5.048,5.048,0,0,0,1.419-1.076l1.305.2c.291.045.529.016.607-.152l.614-1.312c.079-.166-.058-.353-.348-.4l-1.305-.2h-.006a2.153,2.153,0,0,0-.286-1.3l1.167-.379c.26-.086.35-.279.2-.429l-1.174-1.178a.8.8,0,0,0-.748-.117l-1.183.387h-.026a7.219,7.219,0,0,0-1.84-.815l.353-.755C136.648,338.661,136.574,338.46,136.284,338.415Zm-6.9,5.124a1.165,1.165,0,0,1,.1-.742,1.982,1.982,0,0,1,.76-.8c.036-.023.075-.046.113-.068l.058-.034.121-.063c.041-.021.083-.04.125-.059l.064-.028c.088-.037.178-.072.27-.1l.071-.024.142-.045.074-.021c.049-.013.1-.027.148-.039l.075-.018.107-.023c.041-.008.083-.017.124-.023s.1-.019.156-.027l.214-.028.107-.01c.054-.005.108-.01.164-.013.081-.006.165-.009.248-.012h.168a5.883,5.883,0,0,1,.845.068,4.594,4.594,0,0,1,1.33.408c.062.031.123.063.181.1.039.022.076.045.112.068l.107.071a2.737,2.737,0,0,1,.239.19c.03.027.057.054.084.081a1.471,1.471,0,0,1,.113.124c.025.028.046.057.068.085l.031.044c.019.03.039.059.055.089a1.127,1.127,0,0,1,.071.135c.014.03.027.061.039.092a1.162,1.162,0,0,1-.045.914,1.88,1.88,0,0,1-.6.7l-.1.073a3.589,3.589,0,0,1-.347.2c-.041.021-.084.04-.126.059l-.064.03c-.064.027-.132.054-.2.08a5.554,5.554,0,0,1-2.71.24,4.67,4.67,0,0,1-1.215-.352,3.309,3.309,0,0,1-.415-.224c-.041-.027-.083-.055-.121-.084a2.329,2.329,0,0,1-.27-.222,1.932,1.932,0,0,1-.213-.241l-.031-.044c-.021-.03-.039-.058-.057-.088s-.034-.061-.049-.09a1.494,1.494,0,0,1-.076-.184c-.006-.019-.012-.04-.017-.061S129.393,343.561,129.388,343.539Z" transform="translate(-123.699 -338.052)" fill="#c1cdf8"/>
              <path id="Path_10663" data-name="Path 10663" d="M143.226,338.729l-1.464.106c-.187.013-.3.138-.28.246l.1.485v0a6.617,6.617,0,0,0-1.254.406l-.675-.3a.525.525,0,0,0-.48.035l-.905.672c-.116.086-.089.209.061.276l.669.3h0a1.609,1.609,0,0,0-.387.793l-.841.061c-.187.013-.334.12-.311.228l.183.845c.023.108.2.141.387.128l.842-.061h0a2.382,2.382,0,0,0,.707.742l-.516.409c-.115.086-.088.21.061.276l1.166.524a.533.533,0,0,0,.48-.035l.522-.387.008,0a6.3,6.3,0,0,0,1.388.222l.106.486c.023.108.169.159.356.144l1.465-.106c.187-.013.281-.081.258-.19l-.106-.485v0a5.24,5.24,0,0,0,1.269-.408l.691.3a.529.529,0,0,0,.48-.036l.905-.673c.115-.086.088-.213-.062-.28l-.671-.307-.005-.013a1.7,1.7,0,0,0,.38-.82l.842-.061c.187-.013.312-.063.289-.172l-.183-.845c-.023-.108-.179-.2-.366-.184l-.842.062h0a2.27,2.27,0,0,0-.7-.714l.521-.382c.116-.085.089-.209-.061-.276l-1.166-.522a.53.53,0,0,0-.482.035l-.528.387-.015,0a6.44,6.44,0,0,0-1.4-.221l-.106-.486A.3.3,0,0,0,143.226,338.729Zm-1.895,3.921a.935.935,0,0,1-.25-.444.754.754,0,0,1,.111-.57c.012-.019.025-.037.037-.055l.021-.027c.014-.018.028-.036.044-.054l.049-.052.026-.026c.035-.034.072-.066.112-.1l.031-.023c.022-.015.043-.031.064-.045l.034-.022a.8.8,0,0,1,.071-.043l.036-.022.053-.027.061-.031.081-.037c.036-.015.074-.031.112-.045l.058-.022c.028-.01.058-.021.089-.03s.092-.028.139-.04q.048-.014.1-.023a3.381,3.381,0,0,1,.518-.077,3.625,3.625,0,0,1,.94.054c.049.009.1.021.144.031l.093.025.092.027q.112.035.217.077l.083.035c.04.018.079.037.117.057l.074.04.036.022c.023.013.046.028.07.043s.066.045.1.07.04.031.059.048a1,1,0,0,1,.351.538.734.734,0,0,1-.063.485c-.009.019-.019.039-.03.057a1.022,1.022,0,0,1-.12.164c-.015.018-.031.036-.048.053l-.026.026c-.026.025-.054.049-.084.074a2.668,2.668,0,0,1-1.474.512,3.621,3.621,0,0,1-.85-.039,3.3,3.3,0,0,1-.333-.074c-.036-.009-.071-.019-.106-.031a2.464,2.464,0,0,1-.248-.093,2.249,2.249,0,0,1-.223-.111l-.035-.021c-.024-.014-.048-.028-.07-.044l-.066-.045c-.043-.031-.083-.063-.12-.1l-.035-.034Z" transform="translate(-119.71 -337.855)" fill="#c1cdf8"/>
            </g>
            <path id="Path_10664" data-name="Path 10664" d="M138.663,355.059a26.638,26.638,0,0,1-13.024-3.11c-3.565-2.058-5.529-4.822-5.529-7.784s1.964-5.724,5.529-7.782c7.181-4.148,18.866-4.147,26.047,0h0c3.565,2.058,5.529,4.822,5.529,7.782s-1.964,5.725-5.529,7.784A26.638,26.638,0,0,1,138.663,355.059Zm0-20.886a25.7,25.7,0,0,0-12.567,3c-3.271,1.888-5.071,4.371-5.071,6.992s1.8,5.1,5.071,6.993c6.93,4,18.2,4,25.134,0,3.271-1.889,5.071-4.372,5.071-6.993s-1.8-5.1-5.071-6.992h0A25.7,25.7,0,0,0,138.663,334.173Z" transform="translate(-120.11 -333.273)" fill="#c1cdf8"/>
          </g>
        </g>
      </g>
      <g id="Group_4884" data-name="Group 4884" transform="translate(25.906)">
        <path id="Path_10665" data-name="Path 10665" d="M206.491,383.382a.531.531,0,0,1-.531-.531V333.789L80.7,261.167l0,47.421a.531.531,0,1,1-1.063,0V260.243a.53.53,0,0,1,.8-.459l126.325,73.24a.531.531,0,0,1,.264.459V382.85A.532.532,0,0,1,206.491,383.382Z" transform="translate(-79.636 -259.712)" fill="#c1cdf8"/>
        <path id="Path_10666" data-name="Path 10666" d="M80.048,260.124l126.363,73.239v49.368L80.05,308.469Z" transform="translate(-79.517 -259.593)" fill="url(#linear-gradient-27)"/>
      </g>
      <g id="Group_4912" data-name="Group 4912" transform="translate(0 39.235)">
        <g id="Group_4897" data-name="Group 4897">
          <g id="Group_4886" data-name="Group 4886">
            <path id="Path_10667" data-name="Path 10667" d="M111.326,307.11,88.955,320.026a7.127,7.127,0,0,1-6.391-.266L61.109,307.374c-1.884-1.087-2.091-2.747-.459-3.69l22.373-12.917a7.129,7.129,0,0,1,6.389.266l21.456,12.387C112.751,304.507,112.958,306.167,111.326,307.11Z" transform="translate(-59.55 -290.133)" fill="#eaf2fd"/>
            <g id="Group_4885" data-name="Group 4885" transform="translate(0 15.434)">
              <path id="Path_10668" data-name="Path 10668" d="M106.458,346.193V302.284h0a2.035,2.035,0,0,1-1.07,1.306L83.016,316.506a5.8,5.8,0,0,1-2.968.627v44.485a5.8,5.8,0,0,0,2.968-.627l22.372-12.917A1.8,1.8,0,0,0,106.458,346.193Z" transform="translate(-53.611 -302.047)" fill="url(#linear-gradient-28)"/>
              <path id="Path_10669" data-name="Path 10669" d="M82.564,316.293,61.109,303.907a2.856,2.856,0,0,1-1.53-1.807v43.909c-.165.809.357,1.708,1.53,2.385L82.564,360.78a7.368,7.368,0,0,0,3.423.891V317.186A7.369,7.369,0,0,1,82.564,316.293Z" transform="translate(-59.55 -302.1)" fill="url(#linear-gradient-14)"/>
              <path id="Path_10670" data-name="Path 10670" d="M82.564,316.293,61.109,303.907a2.856,2.856,0,0,1-1.53-1.807v43.909c-.165.809.357,1.708,1.53,2.385L82.564,360.78a7.368,7.368,0,0,0,3.423.891V317.186A7.369,7.369,0,0,1,82.564,316.293Z" transform="translate(-59.55 -302.1)" fill="url(#linear-gradient-30)"/>
            </g>
          </g>
          <g id="Group_4894" data-name="Group 4894" transform="translate(3.101 25.66)">
            <g id="Group_4890" data-name="Group 4890">
              <g id="Group_4887" data-name="Group 4887" transform="translate(0 2.103)">
                <path id="Path_10671" data-name="Path 10671" d="M75.634,319.558l1.726,1v1.993l-1.726-1Z" transform="translate(-57.99 -309.371)" fill="#fff"/>
                <path id="Path_10672" data-name="Path 10672" d="M72.9,317.978l1.726,1v1.993l-1.726-1Z" transform="translate(-58.783 -309.829)" fill="#fff"/>
                <path id="Path_10673" data-name="Path 10673" d="M70.162,316.4l1.726,1v1.993l-1.726-1Z" transform="translate(-59.576 -310.286)" fill="#fff"/>
                <path id="Path_10674" data-name="Path 10674" d="M67.426,314.819l1.726,1v1.993l-1.726-1Z" transform="translate(-60.368 -310.744)" fill="#fff"/>
                <path id="Path_10675" data-name="Path 10675" d="M64.69,313.239l1.726,1v1.993l-1.726-1Z" transform="translate(-61.161 -311.202)" fill="#fff"/>
                <path id="Path_10676" data-name="Path 10676" d="M61.954,311.659l1.726,1v1.993l-1.726-1Z" transform="translate(-61.954 -311.659)" fill="#fff"/>
              </g>
              <g id="Group_4888" data-name="Group 4888">
                <path id="Path_10677" data-name="Path 10677" d="M69.987,314.666l9.01,5.2v1l-9.01-5.2Z" transform="translate(-59.626 -308.685)" fill="#fff"/>
                <path id="Path_10678" data-name="Path 10678" d="M61.954,310.028l8.8,5.08v1l-8.8-5.08Z" transform="translate(-61.954 -310.028)" fill="#fff"/>
              </g>
              <g id="Group_4889" data-name="Group 4889" transform="translate(1.027 5.874)">
                <path id="Path_10679" data-name="Path 10679" d="M72.487,320.2l4.758,2.747v.787l-4.758-2.747Z" transform="translate(-59.929 -312.954)" fill="#fff"/>
                <path id="Path_10680" data-name="Path 10680" d="M67.619,317.393l4.758,2.747v.787l-4.758-2.747Z" transform="translate(-61.34 -313.768)" fill="#fff"/>
                <path id="Path_10681" data-name="Path 10681" d="M62.75,314.582l4.758,2.747v.787L62.75,315.37Z" transform="translate(-62.75 -314.582)" fill="#fff"/>
              </g>
            </g>
            <g id="Group_4893" data-name="Group 4893" transform="translate(29.908 18.232)">
              <g id="Group_4892" data-name="Group 4892">
                <g id="Group_4891" data-name="Group 4891">
                  <path id="Path_10682" data-name="Path 10682" d="M98.4,328.917A14.649,14.649,0,0,1,91.771,340.4c-3.66,2.114-6.628.4-6.628-3.827a14.65,14.65,0,0,1,6.628-11.479C95.431,322.978,98.4,324.69,98.4,328.917Z" transform="translate(-85.143 -324.159)" fill="#27007f"/>
                  <path id="Path_10683" data-name="Path 10683" d="M94.323,324.175a6.242,6.242,0,0,1,.569,2.759,14.715,14.715,0,0,1-6.656,11.53,6.264,6.264,0,0,1-2.675.887c1.031,2.11,3.365,2.656,6.089,1.083a14.715,14.715,0,0,0,6.656-11.529C98.306,325.762,96.666,324.013,94.323,324.175Z" transform="translate(-85.022 -324.165)" fill="url(#linear-gradient-31)"/>
                </g>
              </g>
            </g>
          </g>
          <g id="Group_4896" data-name="Group 4896" transform="translate(16.63 3.979)">
            <path id="Path_10684" data-name="Path 10684" d="M89.189,294.877c3.831,2.211,3.831,5.8,0,8.008a15.33,15.33,0,0,1-13.872,0c-3.83-2.212-3.83-5.8,0-8.008A15.33,15.33,0,0,1,89.189,294.877Z" transform="translate(-72.443 -293.218)" fill="#fff"/>
            <g id="Group_4895" data-name="Group 4895" transform="translate(0.003 5.693)">
              <path id="Path_10685" data-name="Path 10685" d="M89.188,301.606a15.33,15.33,0,0,1-13.872,0c-1.9-1.1-2.857-2.534-2.87-3.974v6.086c-.014,1.46.942,2.921,2.87,4.034a15.33,15.33,0,0,0,13.872,0c1.928-1.113,2.884-2.574,2.87-4.034v-6.086C92.045,299.071,91.089,300.508,89.188,301.606Z" transform="translate(-72.446 -297.632)" fill="url(#linear-gradient-15)"/>
            </g>
          </g>
        </g>
        <g id="Group_4911" data-name="Group 4911" transform="translate(126.322 70.081)">
          <path id="Path_10686" data-name="Path 10686" d="M178.311,369.626l-.52-.926,42.142-23.694a4.134,4.134,0,0,1,6.157,3.6v.775h-1.063v-.775a3.071,3.071,0,0,0-4.575-2.677Z" transform="translate(-151.614 -344.47)" fill="#c1cdf8"/>
          <g id="Group_4910" data-name="Group 4910" transform="translate(0 3.227)">
            <g id="Group_4899" data-name="Group 4899">
              <path id="Path_10687" data-name="Path 10687" d="M209.271,363.949,186.9,376.865a7.127,7.127,0,0,1-6.391-.264l-21.455-12.387c-1.883-1.089-2.089-2.748-.458-3.69l22.372-12.917a7.131,7.131,0,0,1,6.391.264l21.455,12.387C210.7,361.347,210.9,363.007,209.271,363.949Z" transform="translate(-157.495 -346.972)" fill="#eaf2fd"/>
              <g id="Group_4898" data-name="Group 4898" transform="translate(0 15.434)">
                <path id="Path_10688" data-name="Path 10688" d="M204.4,403.032V359.123h0a2.026,2.026,0,0,1-1.069,1.305L180.96,373.345a5.793,5.793,0,0,1-2.968.627v44.487a5.794,5.794,0,0,0,2.968-.627l22.373-12.917A1.8,1.8,0,0,0,204.4,403.032Z" transform="translate(-151.556 -358.886)" fill="url(#linear-gradient-33)"/>
                <path id="Path_10689" data-name="Path 10689" d="M180.508,373.134l-21.455-12.387a2.862,2.862,0,0,1-1.528-1.808v43.909c-.165.81.356,1.709,1.528,2.385l21.455,12.388a7.377,7.377,0,0,0,3.423.891V374.025A7.376,7.376,0,0,1,180.508,373.134Z" transform="translate(-157.495 -358.939)" fill="url(#linear-gradient-14)"/>
                <path id="Path_10690" data-name="Path 10690" d="M180.508,373.134l-21.455-12.387a2.862,2.862,0,0,1-1.528-1.808v43.909c-.165.81.356,1.709,1.528,2.385l21.455,12.388a7.377,7.377,0,0,0,3.423.891V374.025A7.376,7.376,0,0,1,180.508,373.134Z" transform="translate(-157.495 -358.939)" fill="url(#linear-gradient-35)"/>
              </g>
            </g>
            <g id="Group_4907" data-name="Group 4907" transform="translate(3.534 25.284)">
              <g id="Group_4903" data-name="Group 4903">
                <g id="Group_4900" data-name="Group 4900" transform="translate(0 2.103)">
                  <path id="Path_10691" data-name="Path 10691" d="M173.915,376.105l1.726,1v1.993l-1.726-1Z" transform="translate(-156.271 -365.918)" fill="#fff"/>
                  <path id="Path_10692" data-name="Path 10692" d="M171.179,374.526l1.726,1v1.993l-1.726-1Z" transform="translate(-157.063 -366.376)" fill="#fff"/>
                  <path id="Path_10693" data-name="Path 10693" d="M168.443,372.946l1.726,1v1.993l-1.726-1Z" transform="translate(-157.856 -366.834)" fill="#fff"/>
                  <path id="Path_10694" data-name="Path 10694" d="M165.707,371.366l1.726,1v1.993l-1.726-1Z" transform="translate(-158.649 -367.292)" fill="#fff"/>
                  <path id="Path_10695" data-name="Path 10695" d="M162.97,369.787l1.726,1v1.993l-1.726-1Z" transform="translate(-159.442 -367.749)" fill="#fff"/>
                  <path id="Path_10696" data-name="Path 10696" d="M160.234,368.207l1.726,1V371.2l-1.726-1Z" transform="translate(-160.234 -368.207)" fill="#fff"/>
                </g>
                <g id="Group_4901" data-name="Group 4901">
                  <path id="Path_10697" data-name="Path 10697" d="M168.267,371.214l9.01,5.2v1l-9.01-5.2Z" transform="translate(-157.907 -365.232)" fill="#fff"/>
                  <path id="Path_10698" data-name="Path 10698" d="M160.234,366.576l8.8,5.08v1l-8.8-5.08Z" transform="translate(-160.234 -366.576)" fill="#fff"/>
                </g>
                <g id="Group_4902" data-name="Group 4902" transform="translate(1.027 5.874)">
                  <path id="Path_10699" data-name="Path 10699" d="M170.768,376.752l4.758,2.747v.787l-4.758-2.747Z" transform="translate(-158.21 -369.502)" fill="#fff"/>
                  <path id="Path_10700" data-name="Path 10700" d="M165.9,373.941l4.758,2.747v.787l-4.758-2.747Z" transform="translate(-159.62 -370.316)" fill="#fff"/>
                  <path id="Path_10701" data-name="Path 10701" d="M161.031,371.13l4.758,2.747v.787l-4.758-2.747Z" transform="translate(-161.031 -371.13)" fill="#fff"/>
                </g>
              </g>
              <g id="Group_4906" data-name="Group 4906" transform="translate(29.908 18.232)">
                <g id="Group_4905" data-name="Group 4905">
                  <g id="Group_4904" data-name="Group 4904">
                    <path id="Path_10702" data-name="Path 10702" d="M196.679,385.464a14.649,14.649,0,0,1-6.627,11.48c-3.66,2.113-6.628.4-6.628-3.827a14.648,14.648,0,0,1,6.628-11.479C193.712,379.525,196.679,381.239,196.679,385.464Z" transform="translate(-183.424 -380.706)" fill="#27007f"/>
                    <path id="Path_10703" data-name="Path 10703" d="M192.6,380.722a6.27,6.27,0,0,1,.567,2.76,14.71,14.71,0,0,1-6.656,11.529,6.25,6.25,0,0,1-2.674.889c1.031,2.109,3.365,2.656,6.089,1.083a14.715,14.715,0,0,0,6.656-11.529C196.587,382.309,194.947,380.561,192.6,380.722Z" transform="translate(-183.303 -380.712)" fill="url(#linear-gradient-31)"/>
                  </g>
                </g>
              </g>
            </g>
            <g id="Group_4909" data-name="Group 4909" transform="translate(16.67 4.934)">
              <path id="Path_10704" data-name="Path 10704" d="M187.163,352.457c3.831,2.212,3.831,5.8,0,8.008a15.331,15.331,0,0,1-13.871,0c-3.831-2.212-3.831-5.8,0-8.009A15.327,15.327,0,0,1,187.163,352.457Z" transform="translate(-170.42 -350.798)" fill="#fff"/>
              <g id="Group_4908" data-name="Group 4908" transform="translate(0.002 5.693)">
                <path id="Path_10705" data-name="Path 10705" d="M187.163,359.186a15.327,15.327,0,0,1-13.871,0c-1.9-1.1-2.857-2.534-2.871-3.974V361.3c-.013,1.46.941,2.921,2.871,4.036a15.335,15.335,0,0,0,13.871,0c1.928-1.114,2.884-2.576,2.871-4.036v-6.086C190.02,356.651,189.065,358.088,187.163,359.186Z" transform="translate(-170.421 -355.212)" fill="url(#linear-gradient-16)"/>
              </g>
            </g>
          </g>
        </g>
      </g>
    </g>
    <g id="Group_4922" data-name="Group 4922" transform="translate(295.186 82.269)">
      <g id="Group_4914" data-name="Group 4914" transform="translate(0 14.947)">
        <path id="Path_10706" data-name="Path 10706" d="M242.5,89.79h0a3.6,3.6,0,0,0,2.009,4.661L270.566,104.8a3.6,3.6,0,0,0,4.661-2.011h0a3.6,3.6,0,0,0-2.011-4.66L247.163,87.78A3.6,3.6,0,0,0,242.5,89.79Z" transform="translate(-242.251 -87.527)" fill="#e6a984"/>
        <path id="Path_10707" data-name="Path 10707" d="M264.726,93.072l8.406,3.34a5.567,5.567,0,0,1,3.108,7.208h0a5.567,5.567,0,0,1-7.208,3.108l-8.405-3.34S257.3,97.869,264.726,93.072Z" transform="translate(-237.143 -85.921)" fill="#313974"/>
      </g>
      <g id="Group_4915" data-name="Group 4915" transform="translate(16.925 57.481)">
        <path id="Path_10708" data-name="Path 10708" d="M282.4,130.99a2.357,2.357,0,0,1-.819.758l-18.887,10.805c-2.057,1.18-4.956.025-6.445-2.568h0c-1.487-2.592-1.021-5.679,1.036-6.86l21.728-12.436a1.365,1.365,0,0,1,1.617.186C282.211,122.369,285.453,126.209,282.4,130.99Z" transform="translate(-255.374 -120.507)" fill="#5786d4"/>
      </g>
      <g id="Group_4916" data-name="Group 4916" transform="translate(29.431 63.887)">
        <path id="Path_10709" data-name="Path 10709" d="M292.092,135.956a2.36,2.36,0,0,1-.819.76l-18.887,10.8c-2.056,1.181-4.956.026-6.445-2.567h0c-1.487-2.594-1.021-5.68,1.036-6.86l21.728-12.437a1.369,1.369,0,0,1,1.619.186C291.908,127.337,295.15,131.175,292.092,135.956Z" transform="translate(-265.071 -125.473)" fill="#73a1f9"/>
      </g>
      <g id="Group_4918" data-name="Group 4918" transform="translate(7.98 69.417)">
        <g id="Group_4917" data-name="Group 4917" transform="translate(0 29.654)">
          <path id="Path_10710" data-name="Path 10710" d="M267.367,160.562c.156,1.566-3.594,2.538-6.741,4.355-4.374,2.525-9.085,3.9-11.329,2.6a1.476,1.476,0,0,1-.855-1.232v-2.568c-.079-1.454,2.082-3.669,5.364-6.868,3.618-3.525,5.924-5.725,11.329-2.6,1.545.892,2.165,1.559,2.173,2.129Z" transform="translate(-248.438 -152.754)" fill="#080c01"/>
          <path id="Path_10711" data-name="Path 10711" d="M253.806,156.853c-4.368,4.257-6.753,6.774-4.509,8.07s6.728-.656,11.329-4.132c4.029-3.045,9.915-3.42,4.509-6.542S257.423,153.328,253.806,156.853Z" transform="translate(-248.439 -152.754)" fill="#22223a"/>
        </g>
        <path id="Path_10712" data-name="Path 10712" d="M255.368,160.426a2.334,2.334,0,0,1-.251-1.087V134.073c0-2.372,2.445-4.312,5.435-4.312h0c2.99,0,5.435,1.94,5.435,4.312v28.543a1.366,1.366,0,0,1-.966,1.31C262.936,164.557,257.992,165.458,255.368,160.426Z" transform="translate(-246.504 -129.761)" fill="#5786d4"/>
      </g>
      <path id="Path_10713" data-name="Path 10713" d="M289.353,146.586a.981.981,0,0,1-.459.152c-2.4.187-11.043-1.695-19.684-11.435a4.522,4.522,0,0,1-1.171-2.8V104.863c0-2.083.744-3.544,1.94-4.219l6.5-3.791c1.183-.7,2.823-.62,4.631.423l8.862,5.118a14.434,14.434,0,0,1,6.507,11.27v27.8a1.407,1.407,0,0,1-.627,1.33Z" transform="translate(-234.78 -70.011)" fill="#42498f"/>
      <g id="Group_4919" data-name="Group 4919" transform="translate(53.094 37.351)">
        <path id="Path_10714" data-name="Path 10714" d="M288.528,145.22h0a3.6,3.6,0,0,0,3.589-3.589V113.6a3.6,3.6,0,0,0-3.589-3.588h0a3.6,3.6,0,0,0-3.589,3.588v28.035A3.6,3.6,0,0,0,288.528,145.22Z" transform="translate(-282.977 -103.419)" fill="#e6a984"/>
        <path id="Path_10715" data-name="Path 10715" d="M283.418,119.495V110.45a5.568,5.568,0,0,1,5.551-5.551h0a5.568,5.568,0,0,1,5.551,5.551v9.045S290.62,124.629,283.418,119.495Z" transform="translate(-283.418 -104.899)" fill="#313974"/>
      </g>
      <g id="Group_4921" data-name="Group 4921" transform="translate(20.931 75.142)">
        <g id="Group_4920" data-name="Group 4920" transform="translate(0 29.654)">
          <path id="Path_10716" data-name="Path 10716" d="M277.408,165c.157,1.566-3.593,2.538-6.74,4.355-4.373,2.525-9.085,3.9-11.329,2.6a1.475,1.475,0,0,1-.856-1.232V168.16c-.08-1.454,2.082-3.669,5.364-6.868,3.616-3.525,5.922-5.725,11.329-2.6,1.545.893,2.164,1.559,2.172,2.129Z" transform="translate(-258.48 -157.193)" fill="#080c01"/>
          <path id="Path_10717" data-name="Path 10717" d="M263.848,161.292c-4.37,4.257-6.754,6.774-4.509,8.07s6.727-.656,11.329-4.132c4.029-3.045,9.914-3.419,4.509-6.542S267.464,157.767,263.848,161.292Z" transform="translate(-258.48 -157.193)" fill="#22223a"/>
        </g>
        <path id="Path_10718" data-name="Path 10718" d="M265.408,164.865a2.349,2.349,0,0,1-.25-1.087V138.512c0-2.372,2.445-4.312,5.434-4.312h0c2.99,0,5.435,1.94,5.435,4.312v28.543a1.365,1.365,0,0,1-.966,1.31C272.976,169,268.033,169.9,265.408,164.865Z" transform="translate(-256.545 -134.2)" fill="#73a1f9"/>
      </g>
      <path id="Path_10719" data-name="Path 10719" d="M285.861,104.331a2.258,2.258,0,0,1-1.34,1.9,7.163,7.163,0,0,1-6.481,0,2.254,2.254,0,0,1-1.339-1.9V98.309a2.255,2.255,0,0,1,1.339-1.9,7.163,7.163,0,0,1,6.481,0,2.259,2.259,0,0,1,1.34,1.9Z" transform="translate(-232.27 -70.232)" fill="#d5a69b"/>
      <circle id="Ellipse_175" data-name="Ellipse 175" cx="12.617" cy="12.617" r="12.617" transform="translate(36.272 5.853)" fill="#edc3b6"/>
      <path id="Path_10720" data-name="Path 10720" d="M293.881,79.489c10.781,3.7,5.421,19.45-2.422,25.13-3.834-2.1.828-5.846-4.4-3.236-1.041-5.073,1.3-3.527-.12-9.9-5.483,2.859-16.154-.607-17.811-5.891,1.91-.847,3.91-6.271,8.378-8.261C283.251,74.767,290.609,75.9,293.881,79.489Z" transform="translate(-234.465 -75.938)" fill="#cf8720" fill-rule="evenodd"/>
      <path id="Path_10721" data-name="Path 10721" d="M283.426,96.747c0,1.5,1.056,2.114,2.359,1.362a5.217,5.217,0,0,0,2.359-4.087c0-1.505-1.056-2.115-2.359-1.362A5.215,5.215,0,0,0,283.426,96.747Z" transform="translate(-230.322 -71.187)" fill="#edc3b6"/>
      <path id="Path_10722" data-name="Path 10722" d="M270.031,94.043a8.74,8.74,0,0,0,3.956,6.85c2.185,1.261,3.956.24,3.956-2.283a8.742,8.742,0,0,0-3.956-6.851C271.8,90.5,270.031,91.521,270.031,94.043Zm.9-.724c0-.686,1.366-.455,3.052.518s3.051,2.319,3.051,3.006-1.366.455-3.051-.518S270.935,94.007,270.935,93.32Z" transform="translate(-234.203 -71.511)" fill="#cf8720"/>
      <path id="Path_10723" data-name="Path 10723" d="M285.5,90.682s-2.834,8.337-9.78,6.1v3.487s6.957,2.787,9.429-3.155C285.146,97.112,286.561,90.527,285.5,90.682Z" transform="translate(-232.555 -71.668)" fill="#cf8720"/>
    </g>
    <g id="Group_4929" data-name="Group 4929" transform="translate(490.144 299.994)">
      <g id="Group_4923" data-name="Group 4923" transform="translate(10.781 114.281)">
        <path id="Path_10724" data-name="Path 10724" d="M401.777,339.152c-.094,1.625,2.36,3.908,6.1,6.066,4.972,2.87,6.732,6.507,12.877,2.959,1.759-1.015,2.5-1.822,2.538-2.525v-3.821c.172-1.777-4.088-2.883-7.664-4.946-4.971-2.87-10.326-4.432-12.877-2.959a1.678,1.678,0,0,0-.972,1.406Z" transform="translate(-401.773 -333.361)"/>
        <path id="Path_10725" data-name="Path 10725" d="M407.875,341.359c-4.971-2.87-7.676-5.961-5.125-7.434s7.906.089,12.877,2.959,11.271,3.887,5.125,7.434S412.847,344.228,407.875,341.359Z" transform="translate(-401.773 -333.361)" fill="#4981fb"/>
      </g>
      <g id="Group_4924" data-name="Group 4924" transform="translate(24.598 104.762)">
        <path id="Path_10726" data-name="Path 10726" d="M412.49,331.772c-.094,1.625,2.361,3.908,6.1,6.066,4.972,2.87,6.732,6.507,12.878,2.96,1.758-1.016,2.494-1.824,2.537-2.527v-3.821c.173-1.777-4.089-2.883-7.662-4.946-4.972-2.87-10.327-4.432-12.878-2.959a1.681,1.681,0,0,0-.972,1.406Z" transform="translate(-412.486 -325.981)"/>
        <path id="Path_10727" data-name="Path 10727" d="M418.588,333.979c-4.971-2.87-7.677-5.961-5.125-7.434s7.906.089,12.878,2.959,11.27,3.887,5.125,7.435S423.56,336.848,418.588,333.979Z" transform="translate(-412.486 -325.981)" fill="#4981fb"/>
      </g>
      <g id="Group_4925" data-name="Group 4925" transform="translate(0 29.066)">
        <path id="Path_10728" data-name="Path 10728" d="M393.43,271.007h0a4.093,4.093,0,0,1,4.426-3.7l31.739,2.831a4.091,4.091,0,0,1,3.7,4.425h0a4.093,4.093,0,0,1-4.426,3.7l-31.739-2.831A4.091,4.091,0,0,1,393.43,271.007Z" transform="translate(-393.414 -267.29)" fill="#dfaa86"/>
        <path id="Path_10729" data-name="Path 10729" d="M417.323,280l10.24.913a6.327,6.327,0,0,0,6.845-5.724h0a6.329,6.329,0,0,0-5.724-6.846l-10.24-.913S412.237,271.327,417.323,280Z" transform="translate(-387.066 -267.249)" fill="#c1cdf8"/>
      </g>
      <g id="Group_4926" data-name="Group 4926" transform="translate(20.053 72.239)">
        <path id="Path_10730" data-name="Path 10730" d="M421.031,349.533a2.683,2.683,0,0,0,.285-1.237V305.665c0-2.7-2.781-4.9-6.178-4.9h0c-3.4,0-6.177,2.205-6.177,4.9V352.02a1.551,1.551,0,0,0,1.1,1.49C412.429,354.227,418.048,355.253,421.031,349.533Z" transform="translate(-408.962 -300.764)" fill="#6d3f91"/>
      </g>
      <g id="Group_4927" data-name="Group 4927" transform="translate(33.423 62.381)">
        <path id="Path_10731" data-name="Path 10731" d="M431.4,341.887a2.675,2.675,0,0,0,.285-1.236V298.021c0-2.7-2.781-4.9-6.178-4.9h0c-3.4,0-6.178,2.205-6.178,4.9v46.355a1.555,1.555,0,0,0,1.1,1.49C422.8,346.583,428.414,347.607,431.4,341.887Z" transform="translate(-419.328 -293.12)" fill="#620e95"/>
      </g>
      <path id="Path_10732" data-name="Path 10732" d="M412.361,323.322a1.1,1.1,0,0,0,.521.173c2.732.211,12.55-1.927,22.374-13a5.148,5.148,0,0,0,1.331-3.184V275.9c0-2.368-.846-4.029-2.205-4.794l-7.388-4.31c-1.343-.8-3.209-.7-5.263.482l-10.074,5.815a16.409,16.409,0,0,0-7.4,12.811v31.6a1.6,1.6,0,0,0,.712,1.512Z" transform="translate(-390.271 -238.518)" fill="#e7f2fe"/>
      <path id="Path_10733" data-name="Path 10733" d="M412.757,275.293a2.565,2.565,0,0,0,1.522,2.16,8.139,8.139,0,0,0,7.367,0,2.565,2.565,0,0,0,1.522-2.16v-6.846a2.565,2.565,0,0,0-1.522-2.16,8.147,8.147,0,0,0-7.367,0,2.565,2.565,0,0,0-1.522,2.16Z" transform="translate(-387.809 -238.769)" fill="#ca9270"/>
      <circle id="Ellipse_176" data-name="Ellipse 176" cx="14.341" cy="14.341" r="14.341" transform="translate(11.394 11.051) rotate(-22.662)" fill="#dfaa86"/>
      <g id="Group_4928" data-name="Group 4928" transform="translate(9.541 42.18)">
        <path id="Path_10734" data-name="Path 10734" d="M404.426,322.158h0a4.092,4.092,0,0,1-3.588-4.518l4.332-30.788a4.091,4.091,0,0,1,4.518-3.588h0a4.093,4.093,0,0,1,3.588,4.518l-4.332,30.788A4.091,4.091,0,0,1,404.426,322.158Z" transform="translate(-400.811 -275.783)" fill="#dfaa86"/>
        <path id="Path_10735" data-name="Path 10735" d="M414.566,294.7l1.171-10.215a6.328,6.328,0,0,0-5.55-6.988h0a6.328,6.328,0,0,0-6.987,5.55l-1.172,10.215S405.769,299.565,414.566,294.7Z" transform="translate(-400.459 -277.457)" fill="#c1cdf8"/>
      </g>
      <path id="Path_10736" data-name="Path 10736" d="M428.107,276.518c-4.522,2.635-7.98.632-9.207-1.277-3.1-4.8-3.607-1.6-5.452-3.855-2.417-3.971-1.875-9.384-5.227-11.885-4.809-3.591-3.493-10.738,9.054-13.937,16.857-4.3,23.5,16.943,12.977,29.219A6.658,6.658,0,0,1,428.107,276.518Z" transform="translate(-389.871 -244.682)" fill="#4981fb" fill-rule="evenodd"/>
      <path id="Path_10737" data-name="Path 10737" d="M413.613,267.425c-1.21,1.21-2.548.85-2.991-.8a5.925,5.925,0,0,1,1.388-5.182c1.21-1.208,2.549-.85,2.991.8A5.927,5.927,0,0,1,413.613,267.425Z" transform="translate(-388.469 -240.125)" fill="#dfaa86"/>
    </g>
    <g id="Group_4938" data-name="Group 4938" transform="translate(497.631 160.627)">
      <g id="Group_4930" data-name="Group 4930" transform="translate(2.519 25.62)">
        <path id="Path_10738" data-name="Path 10738" d="M404.491,200.239h0a3.786,3.786,0,0,0,4.2-3.29l4.417-36.159a3.788,3.788,0,0,0-3.291-4.2h0a3.787,3.787,0,0,0-4.2,3.291L401.2,196.035A3.786,3.786,0,0,0,404.491,200.239Z" transform="translate(-401.172 -156.558)" fill="#dfaa86"/>
      </g>
      <g id="Group_4933" data-name="Group 4933" transform="translate(11.117 80.333)">
        <g id="Group_4932" data-name="Group 4932" transform="translate(0 33.015)">
          <g id="Group_4931" data-name="Group 4931">
            <path id="Path_10739" data-name="Path 10739" d="M424.613,231.5c.05.5-.352.935-1.019,1.359-.192.121.025-2.71-.635-2.238-.191.137-9.283,7.219-14.361,5.911a1.075,1.075,0,0,1-.758-1.092V234.3c-.07-1.288,1.846-3.251,4.755-6.086,3.2-3.125,5.249-5.074,10.041-2.309,1.368.791,1.919,1.383,1.926,1.888Z" transform="translate(-407.838 -224.579)" fill="#080c01"/>
            <path id="Path_10740" data-name="Path 10740" d="M412.6,228.212c-3.873,3.772-5.986,6-4,7.152s5.962-.582,10.041-3.663c3.571-2.7,8.788-3.031,4-5.8S415.8,225.087,412.6,228.212Z" transform="translate(-407.838 -224.579)" fill="#4a4a67"/>
          </g>
        </g>
        <path id="Path_10741" data-name="Path 10741" d="M414.545,233.827l.284-34.847,11.52,3.735-1.976,5.677a41.964,41.964,0,0,1-1.455,15.272s-1.643,3.353-1.318,11.161C421.6,234.825,417.37,237.231,414.545,233.827Z" transform="translate(-405.895 -198.98)" fill="#dfaa86"/>
      </g>
      <g id="Group_4936" data-name="Group 4936" transform="translate(0 71.199)">
        <g id="Group_4935" data-name="Group 4935" transform="translate(0 33.015)">
          <g id="Group_4934" data-name="Group 4934">
            <path id="Path_10742" data-name="Path 10742" d="M415.994,224.417c.05.5-.352.935-1.02,1.361-.191.121.026-2.71-.633-2.238-.191.137-9.285,7.217-14.361,5.911a1.079,1.079,0,0,1-.76-1.092v-1.141c-.071-1.288,1.846-3.253,4.754-6.088,3.206-3.124,5.25-5.074,10.042-2.307,1.368.791,1.918,1.383,1.924,1.887Z" transform="translate(-399.219 -217.496)" fill="#080c01"/>
            <path id="Path_10743" data-name="Path 10743" d="M403.976,221.129c-3.872,3.774-5.986,6-4,7.152s5.962-.58,10.041-3.662c3.571-2.7,8.788-3.031,4-5.8S407.182,218.005,403.976,221.129Z" transform="translate(-399.219 -217.496)" fill="#4a4a67"/>
          </g>
        </g>
        <path id="Path_10744" data-name="Path 10744" d="M405.926,226.744l.284-34.846,11.52,3.734-1.976,5.679a41.981,41.981,0,0,1-1.456,15.272s-1.643,3.353-1.318,11.161C412.98,227.743,408.749,230.149,405.926,226.744Z" transform="translate(-397.275 -191.898)" fill="#dfaa86"/>
      </g>
      <path id="Path_10745" data-name="Path 10745" d="M433.423,195.472v12.868s-15.078,5.091-29.251-12.868V183.018Z" transform="translate(-397.784 -123.272)" fill="#72a3f5"/>
      <path id="Path_10746" data-name="Path 10746" d="M426.333,208.378a1.036,1.036,0,0,1-.482.16c-2.528.2-11.613-1.784-20.7-12.027a4.76,4.76,0,0,1-1.232-2.946V164.5c0-2.191.783-3.729,2.042-4.437l6.834-3.988c1.243-.74,2.969-.651,4.87.446l9.322,5.381a15.185,15.185,0,0,1,6.843,11.854v29.239a1.481,1.481,0,0,1-.659,1.4Z" transform="translate(-397.858 -131.218)" fill="#72a3f5"/>
      <path id="Path_10747" data-name="Path 10747" d="M421.411,163.937a2.374,2.374,0,0,1-1.41,2,7.53,7.53,0,0,1-6.816,0,2.375,2.375,0,0,1-1.408-2V157.6a2.373,2.373,0,0,1,1.41-2,7.527,7.527,0,0,1,6.815,0,2.373,2.373,0,0,1,1.41,2Z" transform="translate(-395.58 -131.45)" fill="#ca9270"/>
      <g id="Group_4937" data-name="Group 4937" transform="translate(28.983 35.907)">
        <path id="Path_10748" data-name="Path 10748" d="M425.466,208.434h0a3.786,3.786,0,0,0,3.775-3.775v-36.35a3.786,3.786,0,0,0-3.775-3.775h0a3.786,3.786,0,0,0-3.775,3.775v36.35A3.786,3.786,0,0,0,425.466,208.434Z" transform="translate(-421.691 -164.534)" fill="#dfaa86"/>
      </g>
      <path id="Path_10749" data-name="Path 10749" d="M418.949,155.959c0,1.582,1.112,2.225,2.481,1.433a5.481,5.481,0,0,0,2.481-4.3c0-1.584-1.11-2.225-2.481-1.433A5.485,5.485,0,0,0,418.949,155.959Z" transform="translate(-393.502 -132.455)" fill="#e6a984"/>
      <path id="Path_10750" data-name="Path 10750" d="M410.616,175.433s-12.832-11.666-5.005-32.421l6.013,21.545Z" transform="translate(-398.1 -134.863)" fill="#444990"/>
      <circle id="Ellipse_177" data-name="Ellipse 177" cx="13.27" cy="13.27" r="13.27" transform="translate(5.127 6.071) rotate(-13.223)" fill="#dfaa86"/>
      <path id="Path_10751" data-name="Path 10751" d="M414.732,177.254s9.87-10.876,3.022-31.019l-12.287,4.23s-4.23-10.475,9.668-13.5c0,0,9.267-2.015,12.488,5.64,0,0,7.453.6,4.634,15.913C432.257,158.522,431.854,173.025,414.732,177.254Z" transform="translate(-397.584 -136.683)" fill="#444990"/>
    </g>
  </g>
</svg>
