<svg xmlns="http://www.w3.org/2000/svg" width="20" height="20" viewBox="0 0 20 20">
  <g id="instagram_1_" data-name="instagram (1)" transform="translate(0.001)">
    <path id="Path_3" data-name="Path 3" d="M14.585,0H5.413A5.42,5.42,0,0,0,0,5.414v9.173A5.42,5.42,0,0,0,5.413,20h9.173A5.42,5.42,0,0,0,20,14.586V5.414A5.42,5.42,0,0,0,14.585,0Zm4.241,14.586a4.246,4.246,0,0,1-4.241,4.241H5.413a4.246,4.246,0,0,1-4.241-4.241V5.414A4.246,4.246,0,0,1,5.413,1.172h9.173a4.246,4.246,0,0,1,4.241,4.241Zm0,0" transform="translate(0)" fill="#fff"/>
    <path id="Path_4" data-name="Path 4" d="M121.62,116a5.616,5.616,0,1,0,5.616,5.616A5.622,5.622,0,0,0,121.62,116Zm0,10.028a4.412,4.412,0,1,1,4.412-4.412A4.417,4.417,0,0,1,121.62,126.032Zm0,0" transform="translate(-111.621 -111.62)" fill="#fff"/>
    <path id="Path_5" data-name="Path 5" d="M359.54,66.285a1.563,1.563,0,1,0,1.564,1.563A1.565,1.565,0,0,0,359.54,66.285Zm0,1.992a.429.429,0,1,1,.429-.429A.43.43,0,0,1,359.54,68.278Zm0,0" transform="translate(-343.799 -63.78)" fill="#fff"/>
  </g>
</svg>
