<svg xmlns="http://www.w3.org/2000/svg" xmlns:xlink="http://www.w3.org/1999/xlink" width="227.39" height="209.291" viewBox="0 0 227.39 209.291">
  <defs>
    <filter id="Path_214" x="19.149" y="61.925" width="208.241" height="126.415" filterUnits="userSpaceOnUse">
      <feOffset dy="3" input="SourceAlpha"/>
      <feGaussianBlur stdDeviation="3" result="blur"/>
      <feFlood flood-opacity="0.161"/>
      <feComposite operator="in" in2="blur"/>
      <feComposite in="SourceGraphic"/>
    </filter>
    <linearGradient id="linear-gradient" x1="0.165" y1="1.032" x2="0.847" y2="-0.052" gradientUnits="objectBoundingBox">
      <stop offset="0" stop-color="#2aa9ce"/>
      <stop offset="1" stop-color="#ef73db"/>
    </linearGradient>
    <linearGradient id="linear-gradient-2" x1="0" y1="0.5" x2="1" y2="0.5" xlink:href="#linear-gradient"/>
    <linearGradient id="linear-gradient-5" y1="0.5" x2="1" y2="0.5" gradientUnits="objectBoundingBox">
      <stop offset="0.249" stop-color="#df1e68"/>
      <stop offset="1" stop-color="#cc1f5e"/>
    </linearGradient>
    <linearGradient id="linear-gradient-6" y1="0.5" x2="1" y2="0.5" gradientUnits="objectBoundingBox">
      <stop offset="0" stop-color="#e01e68"/>
      <stop offset="0.312" stop-color="#e11f69"/>
      <stop offset="0.433" stop-color="#e52670"/>
      <stop offset="0.521" stop-color="#eb317c"/>
      <stop offset="0.522" stop-color="#ec327d"/>
      <stop offset="0.755" stop-color="#d9276b"/>
      <stop offset="0.992" stop-color="#cc1f5e"/>
    </linearGradient>
    <linearGradient id="linear-gradient-7" y1="0.5" x2="1" y2="0.5" gradientUnits="objectBoundingBox">
      <stop offset="0" stop-color="#e01e68"/>
      <stop offset="0.314" stop-color="#e11f69"/>
      <stop offset="0.436" stop-color="#e52670"/>
      <stop offset="0.524" stop-color="#ec327c"/>
      <stop offset="0.593" stop-color="#f6428d"/>
      <stop offset="0.603" stop-color="#f23f89"/>
      <stop offset="0.664" stop-color="#e13075"/>
      <stop offset="0.736" stop-color="#d52668"/>
      <stop offset="0.826" stop-color="#ce2060"/>
      <stop offset="0.992" stop-color="#cc1f5e"/>
    </linearGradient>
    <linearGradient id="linear-gradient-8" x1="0.418" y1="0.719" x2="0.582" y2="0.165" gradientUnits="objectBoundingBox">
      <stop offset="0" stop-color="#e01e68"/>
      <stop offset="0.594" stop-color="#ee3681"/>
      <stop offset="1" stop-color="#f6428d"/>
    </linearGradient>
    <linearGradient id="linear-gradient-10" x1="0.257" y1="1.394" x2="0.743" y2="0.644" gradientUnits="objectBoundingBox">
      <stop offset="0" stop-color="#418ec6"/>
      <stop offset="1" stop-color="#9162d7"/>
    </linearGradient>
    <linearGradient id="linear-gradient-11" x1="-1.03" y1="7.098" x2="1.466" y2="5.319" gradientUnits="objectBoundingBox">
      <stop offset="0" stop-color="#6d6e71"/>
      <stop offset="1" stop-color="#bcbec0"/>
    </linearGradient>
    <linearGradient id="linear-gradient-12" x1="-0.773" y1="7.235" x2="2.715" y2="5.131" xlink:href="#linear-gradient-11"/>
    <linearGradient id="linear-gradient-13" x1="-0.351" y1="6.491" x2="3.125" y2="4.539" xlink:href="#linear-gradient-11"/>
    <linearGradient id="linear-gradient-14" x1="0.113" y1="6.677" x2="3.596" y2="4.582" xlink:href="#linear-gradient-11"/>
    <linearGradient id="linear-gradient-15" x1="-0.369" y1="6.509" x2="2.124" y2="4.766" xlink:href="#linear-gradient-11"/>
    <linearGradient id="linear-gradient-16" x1="-2.486" y1="10.086" x2="1.008" y2="7.834" xlink:href="#linear-gradient-11"/>
    <linearGradient id="linear-gradient-17" x1="-2.028" y1="8.686" x2="1.447" y2="6.721" xlink:href="#linear-gradient-11"/>
    <linearGradient id="linear-gradient-18" x1="-1.59" y1="8.392" x2="1.888" y2="6.426" xlink:href="#linear-gradient-11"/>
    <linearGradient id="linear-gradient-19" x1="-0.567" y1="6.296" x2="1.656" y2="4.681" xlink:href="#linear-gradient-11"/>
    <linearGradient id="linear-gradient-20" x1="-108.144" y1="237.525" x2="77.924" y2="177.631" xlink:href="#linear-gradient-11"/>
  </defs>
  <g id="e-commerce-store" transform="translate(-19.773 -24.698)">
    <g id="Group_311" data-name="Group 311" transform="translate(47.922 92.623)">
      <path id="Path_213" data-name="Path 213" d="M225.462,143.508v.866L111.856,79.63a14.745,14.745,0,0,0-13.186,0l-52.991,30.2v-.639H40.085v5.84H40.1c-.088,1.422.812,2.859,2.714,3.946l115.741,65.956a14.754,14.754,0,0,0,13.186,0L227.594,153.1c1.766-1,2.668-2.314,2.72-3.631h.011v-5.962Z" transform="translate(-40.084 -72.253)" fill="#818181"/>
      <g transform="matrix(1, 0, 0, 1, -28.15, -67.93)" filter="url(#Path_214)">
        <path id="Path_214-2" data-name="Path 214" d="M227.594,141.388c3.642,2.075,3.642,5.437,0,7.514l-55.853,31.83a14.745,14.745,0,0,1-13.186,0L42.815,114.777c-3.641-2.077-3.641-5.442,0-7.516L98.67,75.43a14.745,14.745,0,0,1,13.186,0Z" transform="translate(-11.93 -5.95)" fill="#fff"/>
      </g>
      <path id="Path_215" data-name="Path 215" d="M210.294,134.99l-62.847,35.733L48.33,114.369l62.847-35.734Z" transform="translate(-36.902 -72.037)" fill="url(#linear-gradient)"/>
      <ellipse id="Ellipse_1" data-name="Ellipse 1" cx="9.017" cy="5.206" rx="9.017" ry="5.206" transform="translate(141.944 80.779)" fill="#dbdbdb"/>
      <path id="Path_216" data-name="Path 216" d="M170.448,124.963c1.422.819,1.422,2.152,0,2.973l-11.923,6.884-5.162-2.98,11.926-6.884A5.686,5.686,0,0,1,170.448,124.963Z" transform="translate(6.092 -54.399)" fill="#dbdbdb"/>
      <path id="Path_217" data-name="Path 217" d="M128.561,149.135c-1.421-.825-1.421-2.155,0-2.976l11.924-6.884,5.161,2.981-11.924,6.884A5.71,5.71,0,0,1,128.561,149.135Z" transform="translate(-4.594 -48.636)" fill="#dbdbdb"/>
      <path id="Path_218" data-name="Path 218" d="M79,85.425a.855.855,0,0,1,0,1.619L61.2,97.323a3.1,3.1,0,0,1-2.8,0h0a.854.854,0,0,1,0-1.617L76.2,85.425a3.1,3.1,0,0,1,2.8,0Z" transform="translate(-33.241 -69.546)" fill="#dedede"/>
      <path id="Path_219" data-name="Path 219" d="M89.528,77.685c1.792,1.035,2.022,2.618.689,3.795l-.014.008a4.64,4.64,0,0,1-.675.477c-.154.089-.322.169-.475.238a5.582,5.582,0,0,1-1.149.4,8.666,8.666,0,0,1-3.032.212,7.118,7.118,0,0,1-2.773-.84c-2.053-1.185-2.068-3.1,0-4.3a6.184,6.184,0,0,1,.843-.4,8.075,8.075,0,0,1,2.941-.478,9.384,9.384,0,0,1,1.332.1,8.442,8.442,0,0,1,1.549.416A5.28,5.28,0,0,1,89.528,77.685Z" transform="translate(-23.688 -72.746)" fill="#414042"/>
      <path id="Path_220" data-name="Path 220" d="M85.217,76.8l2.022,5.8a8.666,8.666,0,0,1-3.032.212l-1.931-5.535A8.075,8.075,0,0,1,85.217,76.8Z" transform="translate(-23.015 -72.746)" fill="#6d6e71"/>
      <path id="Path_221" data-name="Path 221" d="M86.908,77.286l1.454,4.166-.014.008a4.638,4.638,0,0,1-.675.477c-.154.089-.322.169-.475.238L85.359,76.87A8.442,8.442,0,0,1,86.908,77.286Z" transform="translate(-21.777 -72.718)" fill="#6d6e71"/>
      <path id="Path_222" data-name="Path 222" d="M87.175,78.275c.978.564,1.1,1.427.376,2.071l-.01,0a2.474,2.474,0,0,1-.366.261c-.085.049-.176.093-.259.13a3.131,3.131,0,0,1-.628.218,4.727,4.727,0,0,1-1.656.115,3.862,3.862,0,0,1-1.513-.457,1.237,1.237,0,0,1,0-2.346,3.417,3.417,0,0,1,.46-.218,4.419,4.419,0,0,1,1.6-.261,5.226,5.226,0,0,1,.728.053,4.644,4.644,0,0,1,.845.227A3,3,0,0,1,87.175,78.275Z" transform="translate(-23.012 -72.363)" fill="#231f20"/>
    </g>
    <g id="Group_316" data-name="Group 316" transform="translate(93.63 63.157)">
      <path id="Path_223" data-name="Path 223" d="M162.946,124.412,134.3,107.866,115.273,96.888a7.748,7.748,0,0,0-7.008,0l-.524.3L77.356,114.723c-1.789,1.021-1.933,2.934,0,4.052L125.039,146.3a7.759,7.759,0,0,0,7.01,0l30.9-17.838C164.8,127.113,164.708,125.351,162.946,124.412Z" transform="translate(-70.419 -35.728)" opacity="0.3" fill="url(#linear-gradient-2)"/>
      <path id="Path_224" data-name="Path 224" d="M162.928,129.669l-28.651-16.545-19.021-10.978a7.742,7.742,0,0,0-7.01,0l-.524.3L77.337,119.98c-1.789,1.023-1.931,2.934,0,4.054l47.685,27.523a7.768,7.768,0,0,0,7.01,0l30.9-17.837C164.78,132.372,164.69,130.607,162.928,129.669Z" transform="translate(-70.426 -33.699)" opacity="0.2" fill="url(#linear-gradient-2)"/>
      <path id="Path_225" data-name="Path 225" d="M162.928,134.919l-28.651-16.544L115.256,107.4a7.742,7.742,0,0,0-7.01,0l-.524.3L77.337,125.234c-1.789,1.019-1.931,2.93,0,4.05l47.685,27.523a7.742,7.742,0,0,0,7.01,0l30.9-17.837C164.78,137.621,164.69,135.857,162.928,134.919Z" transform="translate(-70.426 -31.672)" opacity="0.1" fill="url(#linear-gradient-2)"/>
      <g id="Group_312" data-name="Group 312" transform="translate(43.598 1.331)">
        <path id="Path_226" data-name="Path 226" d="M111.5,81.69a1.385,1.385,0,0,1-1.386-1.386V74.136c0-1.637-1.9-5.894-3.43-9.316-2.982-6.676-3.925-9.14-2.8-10.565.869-1.106,2.479-1.016,4.2.233,1.261.916.777,1.86.6,2.126a1.446,1.446,0,0,1-2.127.291,1.318,1.318,0,0,1-.15-.107,71.3,71.3,0,0,0,2.819,6.891c1.886,4.227,3.67,8.218,3.67,10.447V80.3A1.385,1.385,0,0,1,111.5,81.69Z" transform="translate(-103.42 -53.485)" fill="#a7a9ac"/>
      </g>
      <path id="Path_227" data-name="Path 227" d="M168.554,98.764a2.2,2.2,0,0,0-.51-.4L114.489,67.442a6.567,6.567,0,0,0-5.7,0L74.057,87.485a2.026,2.026,0,0,0-.277.193l-.015-.019v.029a1.355,1.355,0,0,0-.205.2l.234,1.229.23,11.155,5.815,26.691,30.139-18.5a7.216,7.216,0,0,1,6.529,0l45.555,26.36,7.437-34.014C169.814,100.632,168.5,98.829,168.554,98.764Zm-87.328-.315a4.867,4.867,0,0,1,3.591-.6,2.447,2.447,0,0,1,1.832,2.059l1.117,6.65-8.742,4.913-1.713-7.983A7.54,7.54,0,0,1,81.226,98.449Zm4.609,21.983a5.211,5.211,0,0,1-2.973.858,1.751,1.751,0,0,1-1.68-1.3l-1.4-5.5,8.491-4.87.942,5.631C89.491,116.865,87.972,119.152,85.835,120.432ZM91,97.548c-.284-2.191,1.527-5.118,4.011-6.453a3.921,3.921,0,0,1,3.221-.432,2.284,2.284,0,0,1,1.422,2.179l.378,6.8-8.177,4.609Zm6.072,16.172a4.259,4.259,0,0,1-2.711.726,1.531,1.531,0,0,1-1.378-1.408l-.726-5.7,7.961-4.554.313,5.8C100.628,110.249,99.079,112.516,97.071,113.72Zm14.121-11.41c-.065,1.7-1.638,3.948-3.547,5.088a3.512,3.512,0,0,1-2.484.617,1.424,1.424,0,0,1-1.073-1.519l-.141-5.844,7.46-4.273Zm.337-9.154-7.657,4.317-.164-6.844c-.054-2.234,1.8-5.131,4.111-6.356a3.1,3.1,0,0,1,2.885-.3,2.236,2.236,0,0,1,1.085,2.267ZM121.9,105.912c-.108,1.745-1.659,2.276-3.459,1.214a6.8,6.8,0,0,1-2.247-2.256,5.154,5.154,0,0,1-.877-2.82l.218-5.955L122.287,100Zm.585-9-6.842-3.926.227-6.454c.065-2.028,1.713-2.819,3.677-1.713a6.7,6.7,0,0,1,2.463,2.517,5.685,5.685,0,0,1,.888,3.178Zm8.755,14.456c-.186,1.738-1.835,2.224-3.667,1.15a6.832,6.832,0,0,1-2.267-2.288,4.859,4.859,0,0,1-.8-2.8l.446-5.89,6.918,3.991Zm1.648-15.216-.685,6.322-7.015-4.023.486-6.378c.151-2.005,1.91-2.754,3.928-1.627a6.884,6.884,0,0,1,2.493,2.55A5.4,5.4,0,0,1,132.884,96.15Zm7.916,20.813c-.27,1.713-2.007,2.158-3.893,1.052a6.849,6.849,0,0,1-2.288-2.312,4.609,4.609,0,0,1-.728-2.776l.707-5.824,7.092,4.1Zm2.321-15.033-.965,6.257-7.191-4.12.76-6.313c.238-1.985,2.105-2.7,4.165-1.538a6.536,6.536,0,0,1,2.5,2.569A4.964,4.964,0,0,1,143.122,101.931Zm7.463,20.758c-.337,1.694-2.183,2.094-4.112.955a6.654,6.654,0,0,1-2.309-2.32,4.226,4.226,0,0,1-.642-2.765l.966-5.74,7.257,4.2Zm-5.6-12.872,1.052-6.237c.326-1.964,2.3-2.635,4.425-1.443a6.673,6.673,0,0,1,2.526,2.592,4.719,4.719,0,0,1,.629,3.135l-1.257,6.17Zm15.629,18.739c-.423,1.662-2.375,2.028-4.339.87a6.451,6.451,0,0,1-2.32-2.356,3.928,3.928,0,0,1-.586-2.74l1.247-5.664,7.441,4.306Zm3.774-14.6-1.573,6.074-7.548-4.33,1.344-6.149c.424-1.94,2.538-2.558,4.719-1.332a6.635,6.635,0,0,1,2.547,2.624A4.448,4.448,0,0,1,164.39,113.959Z" transform="translate(-71.346 -47.019)" fill="url(#linear-gradient-5)"/>
      <path id="Path_228" data-name="Path 228" d="M83.71,108.507a5.211,5.211,0,0,1-2.973.858,1.757,1.757,0,0,1-1.67-1.268,1.992,1.992,0,0,0,1.236.507,5.3,5.3,0,0,0,3-.854c2.159-1.281,3.688-3.57,3.416-5.186l-.8-4.74.227-.13.942,5.631C87.366,104.939,85.847,107.226,83.71,108.507Z" transform="translate(-69.22 -35.093)" fill="#f6428d"/>
      <path id="Path_229" data-name="Path 229" d="M86.3,97.668l-8.742,4.913-.2-.912,8.547-4.761-1.127-6.648a2.608,2.608,0,0,0-.1-.423,2.589,2.589,0,0,1,.5,1.181Z" transform="translate(-69.879 -38.125)" fill="#f6428d"/>
      <path id="Path_230" data-name="Path 230" d="M95.115,98.566c.1,1.659-1.451,3.926-3.459,5.131a4.259,4.259,0,0,1-2.711.726,1.509,1.509,0,0,1-1.355-1.311,1.55,1.55,0,0,0,1.03.552,4.327,4.327,0,0,0,2.743-.728c2.029-1.2,3.591-3.469,3.494-5.129l-.272-4.923.218-.119Z" transform="translate(-65.931 -36.995)" fill="#f6428d"/>
      <path id="Path_231" data-name="Path 231" d="M94.967,92.727l-8.177,4.61-.108-.888L94.7,91.967l-.38-6.8a2.705,2.705,0,0,0-.054-.455,2.651,2.651,0,0,1,.326,1.214Z" transform="translate(-66.282 -40.103)" fill="#f6428d"/>
      <path id="Path_232" data-name="Path 232" d="M102.9,88.14l-.216,5.932c-.065,1.7-1.638,3.948-3.547,5.088a3.512,3.512,0,0,1-2.484.617A1.378,1.378,0,0,1,95.6,98.422a1.268,1.268,0,0,0,.844.595,3.57,3.57,0,0,0,2.507-.617c1.929-1.139,3.513-3.384,3.578-5.088l.194-5.064Z" transform="translate(-62.842 -38.78)" fill="#f6428d"/>
      <path id="Path_233" data-name="Path 233" d="M103.354,81.157l-.261,6.92-7.657,4.317-.021-.879,7.525-4.2L103.2,80.4a2.93,2.93,0,0,0-.011-.443A3.225,3.225,0,0,1,103.354,81.157Z" transform="translate(-62.911 -41.939)" fill="#f6428d"/>
      <path id="Path_234" data-name="Path 234" d="M110.658,90.768l-.391,5.912c-.108,1.745-1.659,2.276-3.459,1.214a6.8,6.8,0,0,1-2.247-2.256,5.374,5.374,0,0,1-.866-2.452,5.872,5.872,0,0,0,.758,1.692,6.729,6.729,0,0,0,2.269,2.256c1.821,1.063,3.383.531,3.491-1.214l.346-5.207Z" transform="translate(-59.716 -37.787)" fill="#f6428d"/>
      <path id="Path_235" data-name="Path 235" d="M111.177,84.148l-.413,6.4-6.842-3.926.021-.683,6.778,3.85.413-6.4v-.109A3.922,3.922,0,0,1,111.177,84.148Z" transform="translate(-59.629 -40.656)" fill="#f6428d"/>
      <path id="Path_236" data-name="Path 236" d="M118.531,87.654c0,.152-.011.3-.022.445l-.685,6.322L110.809,90.4l.054-.715,7,3.979Z" transform="translate(-56.971 -38.968)" fill="#f6428d"/>
      <path id="Path_237" data-name="Path 237" d="M117.682,94.75l-.628,5.835c-.186,1.738-1.835,2.224-3.667,1.15a6.831,6.831,0,0,1-2.267-2.288,4.826,4.826,0,0,1-.8-2.787,5.5,5.5,0,0,0,.782,2.028,6.9,6.9,0,0,0,2.288,2.29c1.854,1.071,3.513.585,3.71-1.152l.552-5.1Z" transform="translate(-57.164 -36.238)" fill="#f6428d"/>
      <path id="Path_238" data-name="Path 238" d="M124.095,103.633l-.089.586c-.27,1.713-2.007,2.158-3.893,1.052a6.849,6.849,0,0,1-2.288-2.312,4.609,4.609,0,0,1-.728-2.776l.043-.369a4.943,4.943,0,0,0,.761,2.388,6.8,6.8,0,0,0,2.309,2.308C122.044,105.575,123.747,105.208,124.095,103.633Z" transform="translate(-54.552 -34.275)" fill="#f6428d"/>
      <path id="Path_239" data-name="Path 239" d="M125.177,97.248l-.119.769L117.867,93.9l.087-.748Z" transform="translate(-54.247 -36.848)" fill="#f6428d"/>
      <path id="Path_240" data-name="Path 240" d="M132.636,103.134l-.162.8L125.1,99.718l1.052-6.237a2.664,2.664,0,0,1,.141-.521l-1.02,6Z" transform="translate(-51.457 -36.92)" fill="#f6428d"/>
      <path id="Path_241" data-name="Path 241" d="M131.169,109.623l-.054.249c-.337,1.694-2.183,2.094-4.112.955a6.654,6.654,0,0,1-2.309-2.32,4.227,4.227,0,0,1-.642-2.765l.966-5.74.033.022-.836,4.957a4.144,4.144,0,0,0,.64,2.765,6.739,6.739,0,0,0,2.331,2.323C128.923,111.077,130.593,110.872,131.169,109.623Z" transform="translate(-51.876 -34.203)" fill="#f6428d"/>
      <path id="Path_242" data-name="Path 242" d="M138.432,114.025l-.022.086c-.423,1.662-2.375,2.028-4.339.87a6.451,6.451,0,0,1-2.32-2.356,3.928,3.928,0,0,1-.586-2.74l1.247-5.664.086.054-1.084,4.848a3.894,3.894,0,0,0,.6,2.744,6.386,6.386,0,0,0,2.341,2.352C136.034,115.2,137.693,115.091,138.432,114.025Z" transform="translate(-49.14 -32.575)" fill="#f6428d"/>
      <path id="Path_243" data-name="Path 243" d="M140.282,107.488l-.218.837L132.517,104l1.344-6.149a2.253,2.253,0,0,1,.273-.715l-1.346,6.108Z" transform="translate(-48.594 -35.311)" fill="#f6428d"/>
      <path id="Path_244" data-name="Path 244" d="M159.159,126.193l-28.785,16.613a7.208,7.208,0,0,1-6.529,0L79.422,117.166c-1.8-1.039-1.667-2.822,0-3.772l28.306-16.333,18.135,10.465a6.557,6.557,0,0,0,5.7,0l.9-.52,26.691,15.411C160.8,123.293,160.883,124.936,159.159,126.193Z" transform="translate(-69.585 -35.338)" fill="#cc1f5e"/>
      <path id="Path_245" data-name="Path 245" d="M106.5,97.074a7.216,7.216,0,0,0-6.529,0l-.489.283,18.135,10.465a6.557,6.557,0,0,0,5.7,0l.9-.52Z" transform="translate(-61.341 -35.634)" fill="#e01e68"/>
      <path id="Path_246" data-name="Path 246" d="M124.224,107.3l-.9.52a6.557,6.557,0,0,1-5.7,0L99.484,97.357l.489-.283a7.216,7.216,0,0,1,6.529,0Z" transform="translate(-61.341 -35.634)" fill="#cc1f5e"/>
      <path id="Path_247" data-name="Path 247" d="M134.577,121.429a8.685,8.685,0,0,1-7.875,0L73.136,90.511l.4,1.583L80,117.808a2.633,2.633,0,0,0,1.344,1.886l44.422,25.639a7.208,7.208,0,0,0,6.529,0l28.785-16.613a2.992,2.992,0,0,0,1.344-1.917l6.432-23.81.434-1.606ZM75.944,96.845c-.432-1.789.249-2.712,1.594-2.441a4.668,4.668,0,0,1,1.368.574,8.652,8.652,0,0,1,1.3.967,12.492,12.492,0,0,1,1.8,1.972,9.717,9.717,0,0,1,1.789,3.6l1.519,7.09-7.582-4.486Zm8.634,22.817a10.038,10.038,0,0,1-2.722-2.45,8.383,8.383,0,0,1-1.66-3.068l-1.6-6.55,7.44,4.4,1.366,6.4C87.8,120.272,86.531,120.823,84.578,119.662Zm2.277-16.333c-.443-2.179.89-2.992,2.994-1.822l.326.2a10.683,10.683,0,0,1,2.863,2.776,9,9,0,0,1,1.616,3.491l1.128,6.844-7.527-4.454Zm7.528,22.105a9.881,9.881,0,0,1-2.68-2.409,7.589,7.589,0,0,1-1.508-2.982l-1.269-6.332,7.4,4.378,1.019,6.173C97.647,126.072,96.312,126.572,94.383,125.434Zm3.3-15.663c-.327-2.166,1.17-2.9,3.34-1.6a9.676,9.676,0,0,1,2.928,2.819,7.7,7.7,0,0,1,1.464,3.384l.759,6.605L98.7,116.551Zm6.41,21.387a9.492,9.492,0,0,1-2.6-2.374,6.869,6.869,0,0,1-1.368-2.885l-.92-6.117,7.341,4.35.685,5.955C107.419,131.833,106.019,132.3,104.09,131.158Zm4.325-15c-.206-2.083,1.366-2.769,3.547-1.477a9.457,9.457,0,0,1,2.842,2.768,6.979,6.979,0,0,1,1.3,3.285l.391,6.356-7.419-4.393Zm5.337,20.682a8.976,8.976,0,0,1-2.539-2.33,6.071,6.071,0,0,1-1.236-2.8l-.585-5.89,7.288,4.307.348,5.735C117.137,137.557,115.661,137.971,113.753,136.843Zm5.336-14.337c-.087-2.008,1.583-2.626,3.729-1.346a8.9,8.9,0,0,1,2.766,2.711,6.159,6.159,0,0,1,1.129,3.179l.032,6.128-7.376-4.371Zm4.274,20a8.31,8.31,0,0,1-2.474-2.288,5.291,5.291,0,0,1-1.117-2.736l-.261-5.671,7.245,4.285.022,5.521C126.779,143.243,125.249,143.62,123.362,142.5Zm16.549-5.661c-.162,1.573-1.8,3.653-3.675,4.7a3.425,3.425,0,0,1-2.334.542,1.191,1.191,0,0,1-.887-1.368l.238-5.185,7.189-4.087Zm.825-8.3-7.354,4.2.281-5.9c.087-1.9,1.9-4.5,4.068-5.781a3.337,3.337,0,0,1,2.7-.553,1.6,1.6,0,0,1,.913,1.865Zm9.7,2.4c-.283,1.67-2.083,3.863-4.012,4.932a3.191,3.191,0,0,1-2.344.535c-.575-.152-.868-.653-.769-1.465l.683-5.521,7.44-4.228Zm2.668-15.4-1.138,6.562-7.6,4.36.769-6.278c.238-1.9,2.029-4.447,4.112-5.86l.151-.1c.087-.054.184-.109.27-.164s.2-.107.292-.162l.044-.021a2.841,2.841,0,0,1,2.375-.358C152.992,113.8,153.284,114.49,153.1,115.542Zm8.221,9.308a9.746,9.746,0,0,1-4.392,5.182,3.159,3.159,0,0,1-2.364.531c-.531-.184-.782-.725-.618-1.581l1.149-5.88,7.711-4.381Zm3.438-18.579c.6.292.825,1.041.543,2.166l-1.692,7-7.9,4.519,1.322-6.7a11.147,11.147,0,0,1,3.872-5.671,8.384,8.384,0,0,1,1.117-.782,5.444,5.444,0,0,1,1.182-.54A1.977,1.977,0,0,1,164.759,106.27Z" transform="translate(-71.509 -37.865)" fill="url(#linear-gradient-6)"/>
      <path id="Path_248" data-name="Path 248" d="M85.932,114.559c-.162,1.107-1.29,1.293-2.873.346a10.038,10.038,0,0,1-2.722-2.45,8.383,8.383,0,0,1-1.66-3.068l-1.6-6.55.847.5,1.278,5.283a8.507,8.507,0,0,0,1.638,3.068,10.04,10.04,0,0,0,2.69,2.452C84.588,114.777,85.444,114.9,85.932,114.559Z" transform="translate(-69.99 -33.109)" fill="#f6428d"/>
      <path id="Path_249" data-name="Path 249" d="M84.569,107.5l-7.582-4.486L75.2,95.73c-.292-1.215-.076-2.029.521-2.332a3.116,3.116,0,0,0,.054,1.562l1.768,7.277,6.767,4.069Z" transform="translate(-70.763 -36.751)" fill="#f6428d"/>
      <path id="Path_250" data-name="Path 250" d="M91.985,111.819l-7.527-4.454-1.4-7.031a2.025,2.025,0,0,1,.412-2.061,3.055,3.055,0,0,0,.022,1.293l1.378,7.027,6.942,4.155Z" transform="translate(-67.713 -34.87)" fill="#f6428d"/>
      <path id="Path_251" data-name="Path 251" d="M92.979,118.485c-.108,1.235-1.333,1.466-2.992.489a9.881,9.881,0,0,1-2.68-2.409,7.589,7.589,0,0,1-1.508-2.982l-1.269-6.332.642.378,1.019,5.185a7.558,7.558,0,0,0,1.5,2.981,9.8,9.8,0,0,0,2.636,2.406C91.525,118.919,92.5,118.985,92.979,118.485Z" transform="translate(-67.112 -31.405)" fill="#f6428d"/>
      <path id="Path_252" data-name="Path 252" d="M99.989,122.283c-.022,1.452-1.357,1.788-3.156.725a9.492,9.492,0,0,1-2.6-2.374,6.869,6.869,0,0,1-1.368-2.885l-.92-6.117.434.262.759,5.086a6.939,6.939,0,0,0,1.343,2.887,9.5,9.5,0,0,0,2.572,2.373C98.449,123.077,99.565,123.041,99.989,122.283Z" transform="translate(-64.252 -29.715)" fill="#f6428d"/>
      <path id="Path_253" data-name="Path 253" d="M99.35,116.09l-7.474-4.425-1.017-6.78a2.254,2.254,0,0,1,.281-1.713,3.489,3.489,0,0,0,.021.945l1,6.778,7.082,4.242Z" transform="translate(-64.687 -32.979)" fill="#f6428d"/>
      <path id="Path_254" data-name="Path 254" d="M106.678,120.3,99.26,115.91l-.662-6.537a2.552,2.552,0,0,1,.152-1.271,2.563,2.563,0,0,0,.011.5l.651,6.539,7.211,4.325Z" transform="translate(-61.691 -31.077)" fill="#f6428d"/>
      <path id="Path_255" data-name="Path 255" d="M106.933,125.957v.075c.108,1.692-1.368,2.107-3.276.978a8.976,8.976,0,0,1-2.539-2.33,6.071,6.071,0,0,1-1.236-2.8l-.585-5.89.238.143.488,4.978a6.135,6.135,0,0,0,1.225,2.8,8.812,8.812,0,0,0,2.507,2.332C105.349,127.194,106.64,127.043,106.933,125.957Z" transform="translate(-61.413 -28.033)" fill="#f6428d"/>
      <path id="Path_256" data-name="Path 256" d="M113.866,130.117c0,1.627-1.53,2-3.416.888a8.31,8.31,0,0,1-2.474-2.288,5.291,5.291,0,0,1-1.117-2.736l-.261-5.671.054.035.229,4.869a5.362,5.362,0,0,0,1.106,2.733,8.212,8.212,0,0,0,2.441,2.289c1.865,1.116,3.373.735,3.373-.893l-.022-4.783.065.035Z" transform="translate(-58.596 -26.366)" fill="#f6428d"/>
      <path id="Path_257" data-name="Path 257" d="M113.951,124.439l-7.376-4.371-.281-6.3a2.2,2.2,0,0,1,.043-.607l.27,6.135,7.279,4.371-.032-6.029a3.68,3.68,0,0,1,.065.674Z" transform="translate(-58.715 -29.125)" fill="#f6428d"/>
      <path id="Path_258" data-name="Path 258" d="M123.769,120.045l-.531,5.4c-.162,1.573-1.8,3.653-3.675,4.7a3.425,3.425,0,0,1-2.334.542,1.193,1.193,0,0,1-.887-1.346,1.021,1.021,0,0,0,.736.575,3.3,3.3,0,0,0,2.3-.545c1.856-1.039,3.472-3.12,3.634-4.694l.423-4.446Z" transform="translate(-54.836 -26.468)" fill="#f6428d"/>
      <path id="Path_259" data-name="Path 259" d="M124.569,113.88l-.608,6.16-7.354,4.2.044-.877,7.069-4.1.6-6.156a2.468,2.468,0,0,0,0-.554A2,2,0,0,1,124.569,113.88Z" transform="translate(-54.733 -29.358)" fill="#f6428d"/>
      <path id="Path_260" data-name="Path 260" d="M131.9,115.538l-1,5.747c-.283,1.67-2.083,3.863-4.012,4.932a3.19,3.19,0,0,1-2.344.535,1.052,1.052,0,0,1-.791-1.077,1,1,0,0,0,.51.3,3.105,3.105,0,0,0,2.31-.531c1.908-1.074,3.687-3.264,3.968-4.934l.8-4.664Z" transform="translate(-51.976 -28.207)" fill="#f6428d"/>
      <path id="Path_261" data-name="Path 261" d="M133.268,109.07l-1.138,6.562-7.6,4.36.119-1.008,7.1-4.123,1.129-6.562a2.676,2.676,0,0,0,.01-1.017A1.933,1.933,0,0,1,133.268,109.07Z" transform="translate(-51.677 -31.393)" fill="#f6428d"/>
      <path id="Path_262" data-name="Path 262" d="M140.317,110.865l-1.486,6.13a9.747,9.747,0,0,1-4.392,5.182,3.16,3.16,0,0,1-2.364.531,1,1,0,0,1-.661-.9,1.07,1.07,0,0,0,.249.13,3.089,3.089,0,0,0,2.33-.532,9.663,9.663,0,0,0,4.339-5.185l1.184-4.9Z" transform="translate(-49.019 -30.011)" fill="#f6428d"/>
      <path id="Path_263" data-name="Path 263" d="M142.309,104.039l-1.692,7-7.9,4.519.227-1.148,7.146-4.144,1.671-6.995a3.016,3.016,0,0,0,.065-1.366C142.383,102.22,142.579,102.957,142.309,104.039Z" transform="translate(-48.515 -33.468)" fill="#f6428d"/>
      <path id="Path_264" data-name="Path 264" d="M171.382,93.2v9.381h-.032a1.989,1.989,0,0,1-.3.89,3.5,3.5,0,0,1-1.3,1.192L135.03,124.709a8.685,8.685,0,0,1-7.875,0L73.589,93.791a3.562,3.562,0,0,1-1.335-1.249,2.03,2.03,0,0,1-.292-1.03c0-.043.021-.075.021-.119h-.021V82.012a2.038,2.038,0,0,0,.292,1.031,3.557,3.557,0,0,0,1.335,1.246l53.566,30.919a8.676,8.676,0,0,0,7.875,0l34.715-20.04a3.525,3.525,0,0,0,1.3-1.193,2.039,2.039,0,0,0,.3-.771Z" transform="translate(-71.962 -41.145)" fill="url(#linear-gradient-7)"/>
      <path id="Path_265" data-name="Path 265" d="M169.293,101.388l-.434,1.606-5.65,3.265-2.3,1.322L150,113.884l-.044.021-.563.326-.151.1-14.663,8.46a8.685,8.685,0,0,1-7.875,0L90.174,101.7l-.326-.2-9.642-5.562L77.538,94.4l-4-2.31-.4-1.583L126.7,121.429a8.685,8.685,0,0,0,7.875,0Z" transform="translate(-71.509 -37.865)" fill="#cc1f5e"/>
      <path id="Path_266" data-name="Path 266" d="M169.74,97.089l-8.455-4.878L158.513,90.6,116.189,66.169a8.662,8.662,0,0,0-7.872,0L73.587,86.21A2.786,2.786,0,0,0,71.965,88.5a2.024,2.024,0,0,0,.291,1.026,3.642,3.642,0,0,0,1.33,1.247l53.565,30.918a8.653,8.653,0,0,0,7.872,0l34.717-20.039a3.551,3.551,0,0,0,1.3-1.192,1.976,1.976,0,0,0,.3-.776,1.142,1.142,0,0,0,.028-.3A2.777,2.777,0,0,0,169.74,97.089Zm-1.069,2.675-33.828,19.529-.9.524a6.56,6.56,0,0,1-5.711,0L110.1,109.34,74.666,88.9a2.1,2.1,0,0,1-.5-.4,1.528,1.528,0,0,1,.5-.4L109.4,68.04a6.711,6.711,0,0,1,5.71,0l43.405,25.071,2.772,1.608,7.373,4.255a2.063,2.063,0,0,1,.514.4A1.9,1.9,0,0,1,168.672,99.764Z" transform="translate(-71.961 -47.624)" fill="#f6428d"/>
      <g id="Group_313" data-name="Group 313" transform="translate(9.265 5.103)">
        <path id="Path_267" data-name="Path 267" d="M80.21,107.042a1.386,1.386,0,0,1-1.383-1.318c-.151-3.1-.346-8.483.071-9.726,1.421-4.253,27.394-38.7,27.647-39.021.866-1.1,2.477-1.016,4.2.233,1.261.915.776,1.857.6,2.126a1.44,1.44,0,0,1-2.127.29,1.4,1.4,0,0,1-.4-.367,3.485,3.485,0,0,0-.378-.193c-3.3,4.3-25.8,34.484-26.909,37.812a69.81,69.81,0,0,0,.069,8.71,1.387,1.387,0,0,1-1.318,1.454Z" transform="translate(-78.647 -56.206)" fill="#a7a9ac"/>
      </g>
      <path id="Path_268" data-name="Path 268" d="M109.845,52.743l-.011.015a2.4,2.4,0,0,0-2.45.252,6.647,6.647,0,0,0-3.2,5.053,1.729,1.729,0,0,0,.872,1.682l0,.007,21.217,12.228,4.759-7.031Z" transform="translate(-59.529 -52.524)" fill="url(#linear-gradient-8)"/>
      <path id="Path_269" data-name="Path 269" d="M125.889,63.189a6.643,6.643,0,0,1-3.2,5.052c-1.77,1.023-3.206.416-3.206-1.353a6.649,6.649,0,0,1,3.206-5.054C124.456,60.812,125.889,61.417,125.889,63.189Z" transform="translate(-53.624 -49.124)" fill="#cc1f5e"/>
      <path id="Path_270" data-name="Path 270" d="M105.228,55.526l-.01.017a2.392,2.392,0,0,0-2.45.251,6.644,6.644,0,0,0-3.206,5.054,1.731,1.731,0,0,0,.875,1.682l-.006.006,21.217,12.226,4.759-7.029Z" transform="translate(-61.311 -51.45)" fill="url(#linear-gradient-8)"/>
      <path id="Path_271" data-name="Path 271" d="M121.272,65.97a6.649,6.649,0,0,1-3.2,5.054c-1.77,1.021-3.2.414-3.2-1.354a6.642,6.642,0,0,1,3.2-5.053C119.838,63.595,121.272,64.2,121.272,65.97Z" transform="translate(-55.406 -48.049)" fill="#cc1f5e"/>
      <g id="Group_314" data-name="Group 314" transform="translate(46.92 18.721)">
        <path id="Path_272" data-name="Path 272" d="M107.38,124.569A1.386,1.386,0,0,1,106,123.251c-.151-3.1-.344-8.484.068-9.726.65-1.937,4.558-12.731,8.34-23.167,3.405-9.4,7.265-20.064,7.47-20.762.125-.45.155-.559-.56-1a1.386,1.386,0,0,1,1.451-2.362,3.425,3.425,0,0,1,1.778,4.105c-.176.632-2.977,8.375-7.535,20.959-3.774,10.421-7.678,21.2-8.314,23.1a70.811,70.811,0,0,0,.071,8.713,1.39,1.39,0,0,1-1.318,1.452Z" transform="translate(-105.817 -66.033)" fill="#a7a9ac"/>
      </g>
      <g id="Group_315" data-name="Group 315" transform="translate(68.096 14.751)">
        <path id="Path_273" data-name="Path 273" d="M142.325,90.98V93L139.553,91.4V90.98c0-3.548-11.183-17.823-16.284-23.782a6.844,6.844,0,0,0-1.511-1.455,1.391,1.391,0,1,1,1.457-2.37,10.218,10.218,0,0,1,2.162,2.023C126.07,66.2,142.325,85.27,142.325,90.98Z" transform="translate(-121.097 -63.168)" fill="#a7a9ac"/>
      </g>
    </g>
    <g id="Group_317" data-name="Group 317" transform="translate(148.359 32.167)">
      <path id="Path_274" data-name="Path 274" d="M132.2,47.12a3.514,3.514,0,0,1-1.378,3.043c-.068.046-.137.091-.207.13a3.95,3.95,0,0,1-1.344.5,6.839,6.839,0,0,1-2.554-.024c-.046.628.09,2.624,3.074,5.391a20.413,20.413,0,0,1-8.3-7.455c-5.727-3.379-10.346-9.489-10.346-13.732A3.611,3.611,0,0,1,112.31,32.1h.007l.024-.024a2.972,2.972,0,0,1,.542-.366c1.882-1.017,5.115-.543,8.785,1.583C127.487,36.637,132.2,42.831,132.2,47.12Z" transform="translate(-111.146 -29.661)" fill="#d4cff5"/>
      <path id="Path_275" data-name="Path 275" d="M157.417,68.56a4.654,4.654,0,0,1-1.709,3.922l-.5.338-.017.01c-2.432,1.353-6.62.776-11.392-1.921-4.51,1.911-10.946-2.806-10.946-2.806,3.071.722,3.868-.595,4.041-1.637a3.962,3.962,0,0,0,.037-.769c-4.306-4.215-7.225-9.27-7.225-13.138a4.714,4.714,0,0,1,1.61-3.849l.676-.457c2.478-1.335,6.73-.7,11.567,2.084C151.209,54.763,157.417,62.919,157.417,68.56Z" transform="translate(-103.985 -23.337)" fill="#d4cff5"/>
      <path id="Path_276" data-name="Path 276" d="M157.659,71.26l.008.01-2.6,1.719a4.654,4.654,0,0,0,1.709-3.922c0-5.641-6.207-13.8-13.86-18.223-4.837-2.788-9.089-3.419-11.567-2.084l2.387-1.61.01.019c2.4-1.619,6.83-1.088,11.913,1.847,7.653,4.424,13.862,12.581,13.862,18.222A4.619,4.619,0,0,1,157.659,71.26Z" transform="translate(-103.348 -23.844)" fill="#a798ff"/>
      <path id="Path_277" data-name="Path 277" d="M136.014,61.261c-.173,1.042-.97,2.359-4.041,1.637l2.743-1.829A7.861,7.861,0,0,0,136.014,61.261Z" transform="translate(-103.109 -18.132)" fill="#fff" opacity="0.2"/>
      <path id="Path_278" data-name="Path 278" d="M134.007,46.016a3.469,3.469,0,0,1-1.466,3.1v.008l-2.2,1.469a3.514,3.514,0,0,0,1.378-3.043c0-4.289-4.711-10.483-10.53-13.831-3.67-2.126-6.9-2.6-8.785-1.583l1.889-1.268c1.8-1.347,5.237-.965,9.191,1.322C129.3,35.535,134.007,41.727,134.007,46.016Z" transform="translate(-110.662 -30.087)" fill="#a798ff"/>
      <path id="Path_279" data-name="Path 279" d="M127.749,49.177a.23.23,0,0,0-.061-.022l-2.219,1.561-.014-.008c-2.984-2.768-3.12-4.763-3.074-5.391a6.839,6.839,0,0,0,2.554.024,10.146,10.146,0,0,0,2.768,3.792l.007.008A.177.177,0,0,1,127.749,49.177Z" transform="translate(-106.812 -24.211)" fill="#fff" opacity="0.2"/>
    </g>
    <g id="Group_318" data-name="Group 318" transform="translate(22.865 107.331)">
      <path id="Path_280" data-name="Path 280" d="M31.876,124.089s-4.646-2.635-5.5-3.116c-2.848-1.609-4.36-3.594-4.371-5.739-.011-2.381,1.875-4.788,5.316-6.776.313-.184,31.54-18.391,36.65-21.25,4.731-2.648,9.385-4.647,14.282-.115a.347.347,0,0,1-.471.509c-4.149-3.84-7.937-2.888-13.472.211-5.1,2.856-36.326,21.064-36.642,21.243-3.217,1.858-4.981,4.051-4.97,6.174.008,1.882,1.4,3.662,4.019,5.138.855.484,5.5,3.118,5.5,3.118Z" transform="translate(-22.004 -84.402)" fill="#fff"/>
    </g>
    <g id="Group_319" data-name="Group 319" transform="translate(121.593 197.309)">
      <path id="Path_281" data-name="Path 281" d="M99.033,153.766a.341.341,0,0,1-.176-.046l-6.3-3.663a.348.348,0,0,1,.349-.6l6.3,3.663a.345.345,0,0,1,.123.474A.338.338,0,0,1,99.033,153.766Z" transform="translate(-92.386 -149.41)" fill="#fff"/>
    </g>
    <g id="Group_320" data-name="Group 320" transform="translate(90.363 179.399)">
      <path id="Path_282" data-name="Path 282" d="M76.761,140.8a.341.341,0,0,1-.176-.046l-6.3-3.662a.348.348,0,0,1,.349-.6l6.3,3.662a.347.347,0,0,1,.125.474A.342.342,0,0,1,76.761,140.8Z" transform="translate(-70.114 -136.447)" fill="#fff"/>
    </g>
    <g id="Group_322" data-name="Group 322" transform="translate(154.961 185.439)">
      <g id="Group_321" data-name="Group 321">
        <path id="Path_283" data-name="Path 283" d="M147.189,188.365c-2.141,0-4.069-1.028-6.182-2.155-.395-.209-.8-.427-1.213-.642-3.059-1.576-17.857-10.013-24.077-13.569a.346.346,0,1,1,.344-.6c4.851,2.773,20.919,11.944,24.05,13.558q.626.32,1.224.643c3.243,1.731,5.8,3.1,9.374,1.038,3.8-2.2,37.271-21.522,41.907-24.252,2.515-1.482,3.844-3,3.847-4.391,0-1.2-.967-2.391-2.879-3.522-4.618-2.737-22.686-12.876-22.867-12.976a.348.348,0,0,1,.34-.607c.18.1,18.254,10.246,22.883,12.987,2.136,1.267,3.219,2.65,3.217,4.118,0,1.676-1.414,3.355-4.188,4.988-4.64,2.733-38.112,22.059-41.912,24.251A7.592,7.592,0,0,1,147.189,188.365Z" transform="translate(-115.541 -140.845)" fill="#fff"/>
      </g>
    </g>
    <g id="Group_324" data-name="Group 324" transform="translate(21.825 106.289)" opacity="0.3">
      <g id="Group_323" data-name="Group 323">
        <path id="Path_284" data-name="Path 284" d="M32.334,125.462a1.367,1.367,0,0,1-.693-.187c-4.633-2.68-4.633-2.626-5.488-3.109-4.033-2.276-4.891-4.866-4.9-6.638-.014-2.772,2.057-5.5,5.835-7.682.309-.177,31.545-18.391,36.663-21.257,4.874-2.725,10.088-4.97,15.494.032a1.386,1.386,0,0,1-1.882,2.035c-3.706-3.427-7.035-2.571-12.26.353-5.1,2.852-36.309,21.053-36.624,21.236-2.841,1.641-4.463,3.559-4.454,5.272.008,1.878,1.9,3.339,3.49,4.235.858.484.87.437,5.514,3.127a1.385,1.385,0,0,1-.7,2.583Z" transform="translate(-21.254 -83.651)" fill="#949494"/>
      </g>
    </g>
    <g id="Group_326" data-name="Group 326" transform="translate(120.55 196.271)" opacity="0.3">
      <g id="Group_325" data-name="Group 325">
        <path id="Path_285" data-name="Path 285" d="M99.32,155.094a1.384,1.384,0,0,1-.7-.19l-6.3-3.659a1.385,1.385,0,1,1,1.391-2.395l6.3,3.66a1.386,1.386,0,0,1-.7,2.583Z" transform="translate(-91.634 -148.662)" fill="#fff"/>
      </g>
    </g>
    <g id="Group_328" data-name="Group 328" transform="translate(89.319 178.359)" opacity="0.3">
      <g id="Group_327" data-name="Group 327">
        <path id="Path_286" data-name="Path 286" d="M77.047,142.132a1.38,1.38,0,0,1-.694-.19l-6.3-3.663a1.386,1.386,0,1,1,1.394-2.395l6.3,3.663a1.387,1.387,0,0,1-.7,2.585Z" transform="translate(-69.364 -135.697)" fill="#fff"/>
      </g>
    </g>
    <g id="Group_329" data-name="Group 329" transform="translate(58.815 161.362)">
      <path id="Path_287" data-name="Path 287" d="M54.263,127.772a.357.357,0,0,1-.176-.047l-6.3-3.659a.348.348,0,0,1,.349-.6l6.3,3.662a.345.345,0,0,1,.125.473A.339.339,0,0,1,54.263,127.772Z" transform="translate(-47.616 -123.418)" fill="#fff"/>
    </g>
    <g id="Group_331" data-name="Group 331" transform="translate(57.768 160.322)" opacity="0.3">
      <g id="Group_330" data-name="Group 330" transform="translate(0)">
        <path id="Path_288" data-name="Path 288" d="M54.549,129.1a1.378,1.378,0,0,1-.694-.188l-6.3-3.663a1.386,1.386,0,0,1,1.394-2.395l6.3,3.662a1.386,1.386,0,0,1-.7,2.585Z" transform="translate(-46.866 -122.668)" fill="#fff"/>
      </g>
    </g>
    <path id="Path_289" data-name="Path 289" d="M157.385,141.513a1.494,1.494,0,1,1-1.494-1.494A1.493,1.493,0,0,1,157.385,141.513Z" transform="translate(54.414 44.326)" fill="#fff"/>
    <g id="Group_333" data-name="Group 333" transform="translate(153.92 183.26)" opacity="0.3">
      <g id="Group_332" data-name="Group 332">
        <path id="Path_290" data-name="Path 290" d="M194.759,153.589c-3.757-2.226-16.338-9.309-21.078-11.973a2.518,2.518,0,1,0-2.506,2.705,2.55,2.55,0,0,0,1.15-.285c4.734,2.657,17.286,9.726,21.021,11.938,1.526.906,2.367,1.835,2.366,2.625,0,.973-1.217,2.248-3.336,3.5-2.867,1.691-17.045,9.9-41,23.728l-.894.518c-3.067,1.77-5.174.647-8.361-1.049-.4-.219-.816-.438-1.239-.654-3.01-1.551-17.8-9.984-24.014-13.536a1.386,1.386,0,1,0-1.375,2.406c6.234,3.562,21.062,12.019,24.119,13.594.41.209.811.424,1.2.632,2.1,1.121,4.252,2.269,6.688,2.269a8.6,8.6,0,0,0,4.364-1.26l.894-.518c23.965-13.837,38.152-22.048,41.027-23.74,3.116-1.835,4.7-3.815,4.7-5.883C198.487,156.741,197.233,155.054,194.759,153.589Z" transform="translate(-114.791 -139.273)" fill="#848484"/>
      </g>
    </g>
    <g id="Group_343" data-name="Group 343" transform="translate(27.542 144.094)">
      <g id="Group_334" data-name="Group 334">
        <path id="Path_291" data-name="Path 291" d="M48.981,130.751a11.937,11.937,0,0,1-10.786,0l-10.583-6.109c-2.977-1.724-2.977-4.51,0-6.228L38.194,112.3a11.928,11.928,0,0,1,10.786,0l10.583,6.112c2.977,1.719,2.977,4.5,0,6.228Z" transform="translate(-25.379 -111.013)" fill="#76db26"/>
      </g>
      <g id="Group_335" data-name="Group 335" transform="translate(30.652 18.664)">
        <path id="Path_292" data-name="Path 292" d="M71.1,144.218a11.937,11.937,0,0,1-10.786,0l-10.583-6.109c-2.977-1.724-2.977-4.51,0-6.231l10.583-6.109a11.928,11.928,0,0,1,10.786,0l10.583,6.109c2.977,1.721,2.977,4.507,0,6.231Z" transform="translate(-47.496 -124.48)" fill="#ed1c24"/>
      </g>
      <g id="Group_336" data-name="Group 336" transform="translate(61.683 36.437)">
        <path id="Path_293" data-name="Path 293" d="M93.488,157.041a11.928,11.928,0,0,1-10.786,0L72.12,150.931c-2.978-1.718-2.978-4.506,0-6.227l10.581-6.11a11.92,11.92,0,0,1,10.786,0l10.581,6.11c2.98,1.721,2.98,4.508,0,6.227Z" transform="translate(-69.886 -137.304)" fill="#58dfec"/>
      </g>
      <g id="Group_337" data-name="Group 337" transform="translate(93.914 54.427)">
        <path id="Path_294" data-name="Path 294" d="M116.746,170.022a11.928,11.928,0,0,1-10.786,0l-10.583-6.109c-2.98-1.72-2.98-4.508,0-6.23l10.583-6.109a11.928,11.928,0,0,1,10.786,0l10.581,6.109c2.977,1.721,2.977,4.51,0,6.23Z" transform="translate(-93.143 -150.285)" fill="#58dfec"/>
      </g>
      <g id="Group_338" data-name="Group 338" transform="translate(9.755 4.37)">
        <path id="Path_295" data-name="Path 295" d="M54.425,121.08c0-.877-1.229-1.585-2.748-1.585l-13.765,1.4,1.458-5.144c0-.876-1.229-1.585-2.748-1.585s-2.747.71-2.747,1.585l-1.457,6.73a1.381,1.381,0,0,0,.8,1.125,3.953,3.953,0,0,0,1.942.46l16.513-1.4C53.2,122.666,54.426,121.958,54.425,121.08Z" transform="translate(-32.418 -114.166)" fill="#fff"/>
      </g>
      <path id="Path_296" data-name="Path 296" d="M94,146.006c.346-.2.8-.417,1.321-.665,2.585-1.235,2.363-3,1.21-3.667-1.477-.855-2.985.018-5.272,1.336l-.338.194a17.664,17.664,0,0,1-4.74.076,1.405,1.405,0,0,0-.814-1.11l-1.58-.912a4.415,4.415,0,0,0-3.972,0l-6.361,3.673a1.212,1.212,0,0,0,0,2.294l1.58.912a4.05,4.05,0,0,0,1.885.463c.868,1.246,3.407,2.838,5.006,3.76,1.207.7,4.037,2.33,6.4,1.166a3.762,3.762,0,0,0,.542-.319,4.611,4.611,0,0,0,2.693-.475,3.368,3.368,0,0,0,.725-.54,4.247,4.247,0,0,0,1.976-.513,1.3,1.3,0,0,0,.805-1.4,3.819,3.819,0,0,0,.578-.274c.942-.546,1.016-1.351.607-1.8a2.5,2.5,0,0,0-.827-.649c-.434-.265-1.3-.784-1.615-.97a.892.892,0,0,1-.292-.215C93.526,146.359,93.566,146.259,94,146.006Zm-18.927-.14,6.361-3.673a.816.816,0,0,1,.735,0l1.58.912a.224.224,0,0,1,0,.423L77.384,147.2a.819.819,0,0,1-.728,0l-1.581-.912A.224.224,0,0,1,75.075,145.867ZM92.2,147.52c.315.177,1.156.687,1.579.945a1.337,1.337,0,0,1,.4.287c.108.238-.276.448-.463.435a1.538,1.538,0,0,0-1.249.33c-.241.255-.162.575.2.783.209.122.2.319-.012.445a.985.985,0,0,1-.728.1,1.883,1.883,0,0,0-1.141.057c-.049.022-.094.044-.134.068-.238.139-.358.323-.313.522-.011.031-.1.147-.385.309a1.119,1.119,0,0,1-.843.058,1.842,1.842,0,0,0-1-.116,1.145,1.145,0,0,0-.769.383,1.214,1.214,0,0,1-.492.4c-.759.371-2.542-.657-3.3-1.1a16.8,16.8,0,0,1-4.508-3.307l6.274-3.623c2.029.306,5.966.37,7.221-.352l.346-.2c.818-.471,1.656-.955,2.15-1.167.116.324-.011,1-1.163,1.543-.589.283-1.093.529-1.482.754C90.916,145.919,90.851,146.744,92.2,147.52Z" transform="translate(-7.142 -99.523)" fill="#fff"/>
      <g id="Group_339" data-name="Group 339" transform="translate(98.137 59.031)">
        <path id="Path_297" data-name="Path 297" d="M111.015,167.4a1.627,1.627,0,0,1-.772.2,1.672,1.672,0,0,1-.847-.2l-12.871-7.431a.555.555,0,0,1-.335-.488.632.632,0,0,1,.391-.474l10.344-5.233a1.8,1.8,0,0,1,1.563.03l11.589,6.688c.424.247.446.64.051.9l-9.062,5.972A.4.4,0,0,1,111.015,167.4ZM99.008,159.53l11.144,6.433,7.549-4.977-10.073-5.815Z" transform="translate(-96.19 -153.607)" fill="#fff"/>
      </g>
      <g id="Group_340" data-name="Group 340" transform="translate(111.688 58.899)">
        <path id="Path_298" data-name="Path 298" d="M115.622,158.336l-2.367,1.365a1.779,1.779,0,0,1-1.617,0,.494.494,0,0,1,0-.935L114,157.4a1.071,1.071,0,0,0,0-2.029l-.2-.115a3.881,3.881,0,0,0-3.516,0l-2.366,1.365a1.782,1.782,0,0,1-1.619,0,.493.493,0,0,1,0-.934l2.366-1.368a7.471,7.471,0,0,1,6.754,0l.2.116C117.482,155.509,117.482,157.262,115.622,158.336Z" transform="translate(-105.968 -153.512)" fill="#fff"/>
      </g>
      <g id="Group_341" data-name="Group 341" transform="translate(103.087 61.704)">
        <path id="Path_299" data-name="Path 299" d="M109.215,163.793a1.757,1.757,0,0,1-1.617,0l-7.5-4.331a.554.554,0,0,1-.335-.485.635.635,0,0,1,.387-.474l5.5-2.8a1.808,1.808,0,0,1,1.566.026l6.859,3.96c.428.248.448.646.05.906l-4.853,3.171A.261.261,0,0,1,109.215,163.793Zm-6.641-4.765,5.781,3.337,3.336-2.181-5.337-3.082Z" transform="translate(-99.762 -155.536)" fill="#fff"/>
      </g>
      <g id="Group_342" data-name="Group 342" transform="translate(39.643 21.883)">
        <path id="Path_300" data-name="Path 300" d="M73.563,137.864h0q-.316.183-.679.351a17.452,17.452,0,0,1-9.983.887,30.182,30.182,0,0,0-6.091-.356,2.3,2.3,0,0,1-1.2-.24.755.755,0,0,1-.467-.682,7.608,7.608,0,0,0-.625-3.577,4.285,4.285,0,0,1,1.549-5.742,10.961,10.961,0,0,1,9.92-.923c1.766.8,2.733,1.987,2.759,3.312a9.908,9.908,0,0,1,5.735,1.594C76.584,134.036,76.188,136.348,73.563,137.864ZM58.2,136.958a32.532,32.532,0,0,1,5.636.468,12.514,12.514,0,0,0,7.129-.582c1.91-.9,2.363-2.345,1.11-3.275-1.534-1.131-3.993-.922-4.708-.83a2.336,2.336,0,0,1-1.407-.237c-.369-.213-.524-.52-.412-.814.158-.413.521-1.832-1.443-2.716a6.271,6.271,0,0,0-5.668.642,3.062,3.062,0,0,0-1,4.136A7.9,7.9,0,0,1,58.2,136.958Z" transform="translate(-53.983 -126.803)" fill="#fff"/>
      </g>
    </g>
    <g id="Group_344" data-name="Group 344" transform="translate(20.318 61.998)">
      <path id="Path_301" data-name="Path 301" d="M45.977,63.352a2.052,2.052,0,0,0,1.624.481,4.275,4.275,0,0,0,1.75-.6,7.739,7.739,0,0,0,1.75-1.419,9.248,9.248,0,0,0,1.617-2.362c-.042-.887-.488-1.139-1.154-1.045a6.716,6.716,0,0,1-2.213,2.188,2.565,2.565,0,0,1-2.213.367A3.591,3.591,0,0,0,45.977,63.352Z" transform="translate(-10.205 -49.047)" fill="#fff" opacity="0.8"/>
      <path id="Path_302" data-name="Path 302" d="M20.166,79.9v8.979c0,1.3,1.053,1.746,2.355.994L63.48,66.229c.008,0,.008.011.008.026,1.915,1.286,4.355-.764,4.355-.764-1.318-.033-1.554-.83-1.554-1.4a2.244,2.244,0,0,1,.079-.595,3.584,3.584,0,0,0,.384-1.509V53.006c0-1.294-1.052-1.746-2.353-1L22.521,76.188A4.894,4.894,0,0,0,20.166,79.9ZM54.383,64.574c0-2.7,2.19-6.155,4.891-7.713s4.9-.638,4.9,2.062-2.188,6.162-4.9,7.725S54.383,67.281,54.383,64.574Z" transform="translate(-20.166 -51.648)" fill="#fff" opacity="0.2"/>
      <path id="Path_303" data-name="Path 303" d="M46.842,59.664c0,.863.5,1.319,1.231,1.251a2.277,2.277,0,0,0,.942-.324,4.073,4.073,0,0,0,.942-.764,4.247,4.247,0,0,0,1.231-2.673c0-1.2-.973-1.612-2.173-.917A4.506,4.506,0,0,0,46.842,59.664Z" transform="translate(-9.872 -50.007)" fill="#fff" opacity="0.8"/>
      <path id="Path_304" data-name="Path 304" d="M35.1,66.8,23.313,73.608V71.777L35.1,64.971Z" transform="translate(-18.951 -46.506)" fill="#fff"/>
      <path id="Path_305" data-name="Path 305" d="M30.442,72.289,23.313,76.4V74.574l7.128-4.116Z" transform="translate(-18.951 -44.389)" fill="#58dfec"/>
      <path id="Path_306" data-name="Path 306" d="M50.977,66.021,23.313,81.992V80.161L50.977,64.19Z" transform="translate(-18.951 -46.808)" fill="#58dfec"/>
    </g>
    <g id="Group_345" data-name="Group 345" transform="translate(19.773 81.376)">
      <path id="Path_307" data-name="Path 307" d="M30.2,86.59a9.488,9.488,0,0,1-1.619,2.35,7.747,7.747,0,0,1-1.743,1.414,4.3,4.3,0,0,1-1.745.6,1.984,1.984,0,0,1-1.612-.493,3.566,3.566,0,0,1,1.15-2.368,2.563,2.563,0,0,0,2.206-.366,6.728,6.728,0,0,0,2.2-2.18C29.72,85.448,30.158,85.7,30.2,86.59Z" transform="translate(-18.34 -57.979)" fill="#fff" opacity="0.8"/>
      <path id="Path_308" data-name="Path 308" d="M64.934,66.012,23.207,90.1a4.868,4.868,0,0,0-2.345,3.7v8.946a1.405,1.405,0,0,0,.383,1.062,1.289,1.289,0,0,1,.078.5,5.179,5.179,0,0,1-1.549,3.186s2.432-.764,4.342-4.251a.063.063,0,0,1,.007-.036L64.934,79.65a4.854,4.854,0,0,0,2.348-3.7V67C67.282,65.714,66.234,65.263,64.934,66.012ZM28.313,98.793c-2.7,1.558-4.878.635-4.878-2.064s2.181-6.131,4.878-7.689,4.873-.631,4.873,2.059S31,97.239,28.313,98.793Z" transform="translate(-19.773 -65.65)" fill="#fff" opacity="0.2"/>
      <path id="Path_309" data-name="Path 309" d="M28.68,84.3A4.229,4.229,0,0,1,27.45,86.96a4.113,4.113,0,0,1-.938.761,2.284,2.284,0,0,1-.938.323c-.728.068-1.228-.387-1.228-1.246a4.5,4.5,0,0,1,2.166-3.418C27.708,82.69,28.68,83.1,28.68,84.3Z" transform="translate(-18.008 -58.937)" fill="#fff" opacity="0.8"/>
      <path id="Path_310" data-name="Path 310" d="M46.7,74.818l-15.606,9.01V82L46.7,72.992Z" transform="translate(-15.405 -62.816)" fill="#fff"/>
      <path id="Path_311" data-name="Path 311" d="M58.656,73.368,31.092,89.283V87.459L58.656,71.544Z" transform="translate(-15.405 -63.375)" fill="#58dfec"/>
      <path id="Path_312" data-name="Path 312" d="M51.944,78.444,31.092,90.484V88.659l20.852-12.04Z" transform="translate(-15.405 -61.417)" fill="#58dfec"/>
    </g>
    <g id="Group_347" data-name="Group 347" transform="translate(204.783 80.668)">
      <g id="Group_346" data-name="Group 346" transform="translate(0 0.765)" opacity="0.9">
        <path id="Path_313" data-name="Path 313" d="M179.363,80.685v4.428L153.4,70.14l.016-4.443Z" transform="translate(-150.754 -65.697)" fill="#d4cff5"/>
        <path id="Path_314" data-name="Path 314" d="M158.416,75.417l-5.1-2.945c-.96-.553-1.75-.1-1.753,1l-.017,5.861a3.863,3.863,0,0,0,1.742,3.037l5.1,2.945c.977.563,1.768.114,1.771-1.009l.015-5.861A3.87,3.87,0,0,0,158.416,75.417Z" transform="translate(-151.471 -63.174)" fill="#d4cff5"/>
        <path id="Path_315" data-name="Path 315" d="M166.515,80.1l-5.1-2.946c-.96-.553-1.75-.1-1.753,1l-.017,5.861a3.86,3.86,0,0,0,1.741,3.037l5.1,2.945c.976.564,1.75.1,1.753-1.019l.017-5.861A3.826,3.826,0,0,0,166.515,80.1Z" transform="translate(-148.345 -61.369)" fill="#d4cff5"/>
        <path id="Path_316" data-name="Path 316" d="M176.36,87.79l-.017,5.861a1.25,1.25,0,0,1-.541,1.163l-.144.049a1.3,1.3,0,0,1-1.067-.193l-5.113-2.946a3.877,3.877,0,0,1-1.735-3.042l.015-5.861a1.179,1.179,0,0,1,.542-1.131l.223-.079a1.411,1.411,0,0,1,.987.223l5.1,2.946A3.8,3.8,0,0,1,176.36,87.79Z" transform="translate(-145.219 -59.565)" fill="#d4cff5"/>
        <path id="Path_317" data-name="Path 317" d="M158.389,84.543l-5.1-2.945c-.96-.554-1.752-.1-1.755,1l-.015,5.88a3.858,3.858,0,0,0,1.739,3.017l5.1,2.945c.977.564,1.766.114,1.77-.99l.017-5.88A3.865,3.865,0,0,0,158.389,84.543Z" transform="translate(-151.481 -59.653)" fill="#d4cff5"/>
        <path id="Path_318" data-name="Path 318" d="M166.49,89.22l-5.1-2.945c-.959-.554-1.749-.1-1.752,1l-.018,5.88a3.861,3.861,0,0,0,1.743,3.017l5.1,2.945c.976.564,1.749.105,1.752-1l.018-5.88A3.832,3.832,0,0,0,166.49,89.22Z" transform="translate(-148.355 -57.848)" fill="#d4cff5"/>
        <path id="Path_319" data-name="Path 319" d="M174.589,93.9l-5.1-2.945c-.96-.556-1.752-.1-1.755,1l-.015,5.882a3.848,3.848,0,0,0,1.741,3.016l5.1,2.948c.977.563,1.75.1,1.755-1l.017-5.879A3.833,3.833,0,0,0,174.589,93.9Z" transform="translate(-145.229 -56.043)" fill="#d4cff5"/>
        <path id="Path_320" data-name="Path 320" d="M158.362,93.668l-5.1-2.945c-.96-.554-1.75-.1-1.753,1.019l-.018,5.861a3.856,3.856,0,0,0,1.742,3.018l5.1,2.945c.976.564,1.764.114,1.767-.991l.018-5.862A3.864,3.864,0,0,0,158.362,93.668Z" transform="translate(-151.491 -56.131)" fill="#d4cff5"/>
        <path id="Path_321" data-name="Path 321" d="M166.463,98.345l-5.1-2.945c-.96-.554-1.752-.1-1.755,1.017l-.015,5.861a3.858,3.858,0,0,0,1.743,3.02l5.1,2.945c.977.563,1.752.105,1.755-1l.017-5.862A3.833,3.833,0,0,0,166.463,98.345Z" transform="translate(-148.365 -54.326)" fill="#d4cff5"/>
        <path id="Path_322" data-name="Path 322" d="M174.563,103.021l-5.1-2.945c-.96-.552-1.75-.1-1.753,1.019l-.018,5.864a3.857,3.857,0,0,0,1.742,3.016l5.1,2.945c.976.564,1.75.1,1.752-1l.018-5.865A3.845,3.845,0,0,0,174.563,103.021Z" transform="translate(-145.239 -52.522)" fill="#d4cff5"/>
      </g>
      <path id="Path_323" data-name="Path 323" d="M181.429,80.135v4.427l-2.071.765V80.9L153.412,65.91l2.071-.765Z" transform="translate(-150.75 -65.146)" fill="#a798ff"/>
      <path id="Path_324" data-name="Path 324" d="M178.213,87.236,178.2,93.1a1.16,1.16,0,0,1-.668,1.2l-.033.015a.109.109,0,0,1-.078.032l-1.832.685a1.25,1.25,0,0,0,.54-1.163L176.143,88a3.8,3.8,0,0,0-1.752-3.01l-5.1-2.946a1.411,1.411,0,0,0-.987-.223l2.007-.733a1.264,1.264,0,0,1,1.052.191l5.1,2.946A3.8,3.8,0,0,1,178.213,87.236Z" transform="translate(-145.002 -59.011)" fill="#a798ff"/>
      <path id="Path_325" data-name="Path 325" d="M170.11,82.557l-.015,5.861a1.161,1.161,0,0,1-.669,1.2l-.03.015a.13.13,0,0,1-.082.032l-1.831.685a1.252,1.252,0,0,0,.542-1.163l.015-5.861a3.8,3.8,0,0,0-1.752-3.01l-5.1-2.946a1.413,1.413,0,0,0-.987-.223l2.007-.733a1.26,1.26,0,0,1,1.051.191l5.1,2.946A3.8,3.8,0,0,1,170.11,82.557Z" transform="translate(-148.129 -60.817)" fill="#a798ff"/>
      <path id="Path_326" data-name="Path 326" d="M170.084,91.683l-.017,5.862a1.158,1.158,0,0,1-.668,1.193l-.031.017a.129.129,0,0,1-.08.032l-1.832.685A1.254,1.254,0,0,0,168,98.309l.015-5.861a3.8,3.8,0,0,0-1.752-3.012l-5.1-2.946a1.415,1.415,0,0,0-.988-.223l2.007-.733a1.268,1.268,0,0,1,1.052.191l5.1,2.946A3.8,3.8,0,0,1,170.084,91.683Z" transform="translate(-148.139 -57.295)" fill="#a798ff"/>
      <path id="Path_327" data-name="Path 327" d="M170.06,100.808l-.017,5.862a1.162,1.162,0,0,1-.668,1.195l-.033.017a.132.132,0,0,1-.078.031l-1.834.685a1.254,1.254,0,0,0,.542-1.163l.017-5.861a3.8,3.8,0,0,0-1.752-3.01l-5.1-2.946a1.422,1.422,0,0,0-.988-.223l2.007-.733a1.264,1.264,0,0,1,1.052.191l5.1,2.946A3.8,3.8,0,0,1,170.06,100.808Z" transform="translate(-148.149 -53.774)" fill="#a798ff"/>
      <path id="Path_328" data-name="Path 328" d="M161.97,96.131l-.015,5.862a1.159,1.159,0,0,1-.669,1.2l-.032.015a.112.112,0,0,1-.079.03l-1.832.685a1.247,1.247,0,0,0,.542-1.161L159.9,96.9a3.8,3.8,0,0,0-1.752-3.01l-5.1-2.946a1.421,1.421,0,0,0-.988-.223l2.01-.732a1.252,1.252,0,0,1,1.049.19l5.1,2.946A3.8,3.8,0,0,1,161.97,96.131Z" transform="translate(-151.271 -55.578)" fill="#a798ff"/>
      <path id="Path_329" data-name="Path 329" d="M162,87.006l-.014,5.862a1.157,1.157,0,0,1-.671,1.193l-.03.017a.126.126,0,0,1-.082.032l-1.829.685a1.256,1.256,0,0,0,.54-1.163l.015-5.862a3.8,3.8,0,0,0-1.753-3.01l-5.1-2.946a1.419,1.419,0,0,0-.987-.223l2.007-.732a1.259,1.259,0,0,1,1.051.19l5.1,2.946A3.808,3.808,0,0,1,162,87.006Z" transform="translate(-151.26 -59.1)" fill="#a798ff"/>
      <path id="Path_330" data-name="Path 330" d="M162.023,77.88l-.017,5.862a1.156,1.156,0,0,1-.669,1.195l-.032.017a.125.125,0,0,1-.08.03l-1.831.685a1.251,1.251,0,0,0,.542-1.163l.015-5.861a3.8,3.8,0,0,0-1.752-3.01l-5.1-2.946a1.42,1.42,0,0,0-.987-.223l2.005-.733a1.268,1.268,0,0,1,1.052.191l5.1,2.946A3.8,3.8,0,0,1,162.023,77.88Z" transform="translate(-151.25 -62.622)" fill="#a798ff"/>
      <path id="Path_331" data-name="Path 331" d="M178.187,96.36l-.017,5.861a1.151,1.151,0,0,1-.668,1.193l-.033.017a.122.122,0,0,1-.08.032l-1.831.685a1.252,1.252,0,0,0,.542-1.16l.017-5.862a3.808,3.808,0,0,0-1.753-3.012l-5.1-2.946a1.413,1.413,0,0,0-.987-.223l2.007-.733a1.266,1.266,0,0,1,1.051.191l5.1,2.948A3.8,3.8,0,0,1,178.187,96.36Z" transform="translate(-145.012 -55.491)" fill="#a798ff"/>
      <path id="Path_332" data-name="Path 332" d="M178.159,105.485l-.015,5.861a1.158,1.158,0,0,1-.669,1.2l-.03.015a.115.115,0,0,1-.082.03l-1.831.689a1.258,1.258,0,0,0,.54-1.166l.017-5.86a3.806,3.806,0,0,0-1.752-3.013l-5.1-2.945a1.422,1.422,0,0,0-.987-.225l2.007-.73a1.258,1.258,0,0,1,1.051.188l5.1,2.949A3.8,3.8,0,0,1,178.159,105.485Z" transform="translate(-145.023 -51.969)" fill="#a798ff"/>
    </g>
    <g id="Group_350" data-name="Group 350" transform="translate(73.013 24.698)">
      <path id="Path_333" data-name="Path 333" d="M116.359,25.611l-1.19-.751-.012.007a2.188,2.188,0,0,0-2.113.265L60.436,55.5a5.9,5.9,0,0,0-2.842,4.485V88.424a1.556,1.556,0,0,0,.714,1.455v.014l.7.384-.094-.222a2.755,2.755,0,0,0,1.522-.43l52.606-30.372a5.9,5.9,0,0,0,2.845-4.486V26.333a2.118,2.118,0,0,0-.128-.722Z" transform="translate(-57.594 -24.698)" fill="#163fa1"/>
      <path id="Path_334" data-name="Path 334" d="M116.63,55.238a5.9,5.9,0,0,1-2.844,4.486L61.18,90.1c-1.57.906-2.844.367-2.844-1.2V60.458a5.9,5.9,0,0,1,2.844-4.485L113.786,25.6c1.57-.906,2.844-.367,2.844,1.2Z" transform="translate(-57.308 -24.52)" fill="url(#linear-gradient-10)"/>
      <path id="Path_335" data-name="Path 335" d="M97.033,48.184a8.223,8.223,0,0,1-3.962,6.25c-2.19,1.263-3.964.513-3.964-1.676a8.217,8.217,0,0,1,3.964-6.25C95.258,45.246,97.033,46,97.033,48.184Z" transform="translate(-45.433 -16.518)" fill="#fcf586" opacity="0.5"/>
      <path id="Path_336" data-name="Path 336" d="M100.567,46.142a8.215,8.215,0,0,1-3.961,6.25c-2.188,1.264-3.962.514-3.962-1.674a8.215,8.215,0,0,1,3.962-6.25C98.795,43.2,100.567,43.954,100.567,46.142Z" transform="translate(-44.068 -17.306)" fill="#ed1c24"/>
      <g id="Group_348" data-name="Group 348" transform="translate(4.31 33.93)" opacity="0.8">
        <path id="Path_337" data-name="Path 337" d="M64.873,52.576a2.588,2.588,0,0,1,1.818-.425l.09-.053V50.327L62.96,52.533V54.3l.094-.055A6,6,0,0,1,64.873,52.576Z" transform="translate(-59.833 -48.737)" fill="url(#linear-gradient-11)"/>
        <path id="Path_338" data-name="Path 338" d="M60.7,54.19v1.238l2.712-1.566v-1.77L61.2,53.37A1.058,1.058,0,0,0,60.7,54.19Z" transform="translate(-60.704 -48.056)" fill="url(#linear-gradient-12)"/>
        <path id="Path_339" data-name="Path 339" d="M60.7,57.275l2.673-1.543a1.138,1.138,0,0,1-.236-.761,2.858,2.858,0,0,1,.274-1.134V53.69L60.7,55.253Z" transform="translate(-60.704 -47.44)" fill="url(#linear-gradient-13)"/>
        <path id="Path_340" data-name="Path 340" d="M60.7,58.494c0,.3.225.4.5.245l2.213-1.278V55.467L60.7,57.033Z" transform="translate(-60.704 -46.754)" fill="url(#linear-gradient-14)"/>
        <path id="Path_341" data-name="Path 341" d="M62.96,56.008v1.854l3.821-2.2V53.807a5.974,5.974,0,0,1-1.908,1.8A2.426,2.426,0,0,1,62.96,56.008Z" transform="translate(-59.833 -47.394)" fill="url(#linear-gradient-15)"/>
        <path id="Path_342" data-name="Path 342" d="M68.228,49.253l-2.212,1.278V52.3l2.712-1.566V49.5C68.728,49.2,68.5,49.1,68.228,49.253Z" transform="translate(-58.654 -49.18)" fill="url(#linear-gradient-16)"/>
        <path id="Path_343" data-name="Path 343" d="M66.016,52.327a1.186,1.186,0,0,1,.28.825,2.8,2.8,0,0,1-.23,1.03l2.662-1.537V50.622l-2.712,1.566Z" transform="translate(-58.654 -48.624)" fill="url(#linear-gradient-17)"/>
        <path id="Path_344" data-name="Path 344" d="M66.016,55.962l2.212-1.278a1.062,1.062,0,0,0,.5-.822V52.4l-2.712,1.566Z" transform="translate(-58.654 -47.937)" fill="url(#linear-gradient-18)"/>
        <path id="Path_345" data-name="Path 345" d="M66.6,52.053a1.119,1.119,0,0,0-.614-.087,2.652,2.652,0,0,0-1.051.37,4.745,4.745,0,0,0-1.048.841,4.7,4.7,0,0,0-.619.8,3.215,3.215,0,0,0-.245.473,2.3,2.3,0,0,0-.225.924.935.935,0,0,0,.225.664.173.173,0,0,0,.065.065.763.763,0,0,0,.423.2,2.217,2.217,0,0,0,1.425-.364,4.845,4.845,0,0,0,1.418-1.278,3.692,3.692,0,0,0,.425-.687l.065-.037v-.1a2.3,2.3,0,0,0,.225-.923.96.96,0,0,0-.225-.667A.675.675,0,0,0,66.6,52.053Z" transform="translate(-59.896 -48.109)" fill="url(#linear-gradient-19)"/>
        <path id="Path_346" data-name="Path 346" d="M66.016,53.305c.015-.036.035-.075.05-.115l-.05.029Z" transform="translate(-58.654 -47.633)" fill="url(#linear-gradient-20)"/>
      </g>
      <g id="Group_349" data-name="Group 349" transform="translate(43.018 5.033)" opacity="0.8">
        <path id="Path_347" data-name="Path 347" d="M88.634,33.58a9.837,9.837,0,0,1,1.081-.719,1.892,1.892,0,0,1,1.258-.394c.238.039.381.229.381.59a2.2,2.2,0,0,1-.776,1.452v.014c.437-.141.945-.075.945.6a2.14,2.14,0,0,1-.388,1.142,4.613,4.613,0,0,1-1.583,1.344,10.239,10.239,0,0,1-.919.475Zm.59,1.536.538-.31a1.756,1.756,0,0,0,.992-1.34c0-.538-.407-.514-1.006-.169a4.361,4.361,0,0,0-.524.345Zm0,2.2a4.255,4.255,0,0,0,.5-.259,2.017,2.017,0,0,0,1.177-1.57c0-.626-.536-.574-1.184-.2l-.491.283Z" transform="translate(-88.634 -26.74)" fill="#fff"/>
        <path id="Path_348" data-name="Path 348" d="M93.176,35.124l-.05-.387-.018.012A2.711,2.711,0,0,1,92.1,35.82c-.665.384-1.006.111-1.006-.364,0-.8.705-1.64,1.978-2.366v-.068c0-.274-.073-.719-.747-.331a3.369,3.369,0,0,0-.858.74l-.134-.316a4.082,4.082,0,0,1,1.081-.916c1-.582,1.251-.036,1.251.624v1.231a4.157,4.157,0,0,0,.054.758Zm-.09-1.628c-.653.363-1.394.908-1.394,1.547,0,.387.261.421.567.244a1.8,1.8,0,0,0,.8-1.009.937.937,0,0,0,.032-.209Z" transform="translate(-87.685 -26.932)" fill="#fff"/>
        <path id="Path_349" data-name="Path 349" d="M93.653,32.485c0-.341,0-.615-.026-.876l.531-.306.035.525.014-.008a2.654,2.654,0,0,1,1.088-1.246c.455-.265,1.163-.4,1.163.729v1.965l-.6.345v-1.9c0-.531-.2-.861-.761-.534a1.865,1.865,0,0,0-.8,1.074,1.138,1.138,0,0,0-.04.3v1.979l-.6.345Z" transform="translate(-86.707 -27.535)" fill="#fff"/>
        <path id="Path_350" data-name="Path 350" d="M96.964,31.376l.014-.007c.08-.164.2-.371.291-.543l.967-1.694.719-.416L97.684,30.8l1.448,1.1-.726.421-1.138-.922-.3.516V33.16l-.592.34V28.671l.592-.341Z" transform="translate(-85.648 -28.33)" fill="#fff"/>
      </g>
      <path id="Path_351" data-name="Path 351" d="M63.063,60.4A2.757,2.757,0,0,1,61.8,62.919c-.712.412-1.195.071-1.206-1.044a2.824,2.824,0,0,1,1.267-2.492C62.626,58.94,63.063,59.322,63.063,60.4ZM61.084,61.6c0,.881.291,1.213.739.953a2.028,2.028,0,0,0,.747-1.842c0-.834-.231-1.247-.741-.954A2.086,2.086,0,0,0,61.084,61.6Z" transform="translate(-56.437 -11.383)" fill="#fff" opacity="0.8"/>
      <path id="Path_352" data-name="Path 352" d="M65.138,59.2a2.752,2.752,0,0,1-1.267,2.517c-.712.41-1.193.069-1.206-1.042a2.829,2.829,0,0,1,1.267-2.493C64.7,57.742,65.138,58.125,65.138,59.2ZM63.159,60.4c0,.88.291,1.213.741.953a2.03,2.03,0,0,0,.744-1.842c0-.833-.229-1.247-.74-.954A2.088,2.088,0,0,0,63.159,60.4Z" transform="translate(-55.637 -11.845)" fill="#fff" opacity="0.8"/>
      <path id="Path_353" data-name="Path 353" d="M67.214,58a2.756,2.756,0,0,1-1.267,2.518c-.711.41-1.195.069-1.206-1.045a2.83,2.83,0,0,1,1.267-2.492C66.778,56.542,67.214,56.926,67.214,58ZM65.237,59.2c0,.88.291,1.211.74.954a2.03,2.03,0,0,0,.744-1.842c0-.834-.23-1.249-.739-.954A2.084,2.084,0,0,0,65.237,59.2Z" transform="translate(-54.836 -12.308)" fill="#fff" opacity="0.8"/>
      <path id="Path_354" data-name="Path 354" d="M69.29,56.806a2.755,2.755,0,0,1-1.268,2.517c-.711.412-1.193.071-1.2-1.044a2.828,2.828,0,0,1,1.267-2.492C68.854,55.344,69.29,55.726,69.29,56.806ZM67.311,58c0,.881.292,1.213.741.953a2.033,2.033,0,0,0,.744-1.842c0-.833-.23-1.247-.739-.953A2.083,2.083,0,0,0,67.311,58Z" transform="translate(-54.034 -12.771)" fill="#fff" opacity="0.8"/>
      <path id="Path_355" data-name="Path 355" d="M73.082,54.616a2.761,2.761,0,0,1-1.267,2.52c-.711.409-1.195.068-1.206-1.045A2.824,2.824,0,0,1,71.877,53.6C72.645,53.156,73.082,53.537,73.082,54.616Zm-1.978,1.2c0,.879.29,1.211.739.952a2.027,2.027,0,0,0,.746-1.842c0-.834-.23-1.249-.74-.953A2.087,2.087,0,0,0,71.1,55.812Z" transform="translate(-52.571 -13.615)" fill="#fff" opacity="0.8"/>
      <path id="Path_356" data-name="Path 356" d="M75.159,53.418a2.752,2.752,0,0,1-1.267,2.517c-.712.412-1.195.071-1.207-1.042A2.823,2.823,0,0,1,73.953,52.4C74.721,51.956,75.159,52.34,75.159,53.418ZM73.18,54.611c0,.881.291,1.213.74.955a2.033,2.033,0,0,0,.744-1.842c0-.834-.229-1.249-.739-.955A2.089,2.089,0,0,0,73.18,54.611Z" transform="translate(-51.77 -14.078)" fill="#fff" opacity="0.8"/>
      <path id="Path_357" data-name="Path 357" d="M77.233,52.22a2.756,2.756,0,0,1-1.265,2.517c-.712.412-1.2.071-1.206-1.044A2.828,2.828,0,0,1,76.029,51.2C76.8,50.758,77.233,51.14,77.233,52.22Zm-1.978,1.193c0,.881.291,1.213.74.953a2.028,2.028,0,0,0,.744-1.843c0-.832-.23-1.246-.739-.952A2.084,2.084,0,0,0,75.255,53.413Z" transform="translate(-50.969 -14.54)" fill="#fff" opacity="0.8"/>
      <path id="Path_358" data-name="Path 358" d="M79.309,51.02a2.757,2.757,0,0,1-1.267,2.52c-.711.41-1.193.069-1.2-1.045A2.83,2.83,0,0,1,78.1,50C78.874,49.56,79.309,49.941,79.309,51.02Zm-1.978,1.2c0,.88.291,1.211.74.952a2.027,2.027,0,0,0,.746-1.842c0-.833-.23-1.247-.74-.952A2.082,2.082,0,0,0,77.331,52.216Z" transform="translate(-50.168 -15.003)" fill="#fff" opacity="0.8"/>
      <path id="Path_359" data-name="Path 359" d="M83.1,48.832a2.756,2.756,0,0,1-1.267,2.518c-.712.41-1.193.069-1.206-1.045a2.824,2.824,0,0,1,1.267-2.49C82.665,47.37,83.1,47.754,83.1,48.832Zm-1.979,1.193c0,.881.291,1.213.74.953a2.024,2.024,0,0,0,.747-1.842c0-.833-.23-1.247-.741-.954A2.088,2.088,0,0,0,81.122,50.025Z" transform="translate(-48.705 -15.848)" fill="#fff" opacity="0.8"/>
      <path id="Path_360" data-name="Path 360" d="M85.177,47.633a2.756,2.756,0,0,1-1.267,2.518c-.712.41-1.193.069-1.206-1.045a2.826,2.826,0,0,1,1.267-2.49C84.741,46.172,85.177,46.554,85.177,47.633ZM83.2,48.827c0,.88.291,1.211.741.953a2.03,2.03,0,0,0,.744-1.842c0-.834-.229-1.249-.739-.953A2.084,2.084,0,0,0,83.2,48.827Z" transform="translate(-47.904 -16.31)" fill="#fff" opacity="0.8"/>
      <path id="Path_361" data-name="Path 361" d="M87.253,46.435a2.755,2.755,0,0,1-1.267,2.517c-.711.412-1.195.071-1.206-1.044a2.828,2.828,0,0,1,1.267-2.492C86.817,44.973,87.253,45.355,87.253,46.435Zm-1.978,1.193c0,.881.291,1.213.74.954a2.031,2.031,0,0,0,.744-1.842c0-.833-.23-1.247-.739-.954A2.086,2.086,0,0,0,85.276,47.628Z" transform="translate(-47.103 -16.773)" fill="#fff" opacity="0.8"/>
      <path id="Path_362" data-name="Path 362" d="M89.329,45.236a2.756,2.756,0,0,1-1.267,2.518c-.712.412-1.195.071-1.206-1.044a2.827,2.827,0,0,1,1.267-2.492C88.893,43.775,89.329,44.157,89.329,45.236ZM87.35,46.43c0,.88.292,1.213.741.952a2.03,2.03,0,0,0,.744-1.842c0-.833-.23-1.246-.739-.952A2.079,2.079,0,0,0,87.35,46.43Z" transform="translate(-46.301 -17.235)" fill="#fff" opacity="0.8"/>
      <path id="Path_363" data-name="Path 363" d="M93.123,43.047a2.753,2.753,0,0,1-1.268,2.517c-.711.412-1.195.071-1.206-1.044a2.821,2.821,0,0,1,1.267-2.49C92.684,41.585,93.123,41.969,93.123,43.047ZM91.144,44.24c0,.881.29,1.213.739.955a2.03,2.03,0,0,0,.746-1.842c0-.834-.23-1.249-.74-.955A2.086,2.086,0,0,0,91.144,44.24Z" transform="translate(-44.838 -18.08)" fill="#fff" opacity="0.8"/>
      <path id="Path_364" data-name="Path 364" d="M95.2,41.849a2.754,2.754,0,0,1-1.267,2.517c-.712.412-1.195.071-1.206-1.044a2.825,2.825,0,0,1,1.267-2.492C94.76,40.387,95.2,40.769,95.2,41.849Zm-1.979,1.193c0,.881.291,1.213.74.953a2.031,2.031,0,0,0,.744-1.842c0-.833-.229-1.247-.739-.954A2.088,2.088,0,0,0,93.218,43.042Z" transform="translate(-44.037 -18.543)" fill="#fff" opacity="0.8"/>
      <path id="Path_365" data-name="Path 365" d="M97.273,40.648a2.761,2.761,0,0,1-1.267,2.52c-.712.41-1.195.069-1.206-1.045a2.83,2.83,0,0,1,1.267-2.492C96.835,39.189,97.273,39.572,97.273,40.648Zm-1.979,1.2c0,.88.291,1.211.74.952a2.027,2.027,0,0,0,.744-1.842c0-.833-.23-1.247-.739-.952A2.082,2.082,0,0,0,95.294,41.845Z" transform="translate(-43.236 -19.005)" fill="#fff" opacity="0.8"/>
      <path id="Path_366" data-name="Path 366" d="M99.348,39.451a2.759,2.759,0,0,1-1.267,2.52c-.712.409-1.193.068-1.2-1.045a2.827,2.827,0,0,1,1.267-2.492C98.913,37.99,99.348,38.372,99.348,39.451Zm-1.979,1.195c0,.88.292,1.213.743.953a2.03,2.03,0,0,0,.744-1.842c0-.834-.23-1.247-.74-.954A2.086,2.086,0,0,0,97.369,40.645Z" transform="translate(-42.435 -19.468)" fill="#fff" opacity="0.8"/>
      <path id="Path_367" data-name="Path 367" d="M76.945,56.361a2.18,2.18,0,0,1-.955,2c-.536.309-.9.017-.908-.886a2.234,2.234,0,0,1,.953-1.978C76.613,55.162,76.945,55.486,76.945,56.361Zm-1.491.9c0,.714.22.992.557.8a1.633,1.633,0,0,0,.563-1.468c0-.675-.173-1.019-.557-.8A1.671,1.671,0,0,0,75.453,57.263Z" transform="translate(-50.845 -12.863)" fill="#fff"/>
      <path id="Path_368" data-name="Path 368" d="M78.506,55.459a2.179,2.179,0,0,1-.952,2c-.536.31-.9.018-.909-.886a2.234,2.234,0,0,1,.955-1.978C78.179,54.259,78.506,54.585,78.506,55.459Zm-1.488.9c0,.715.219.992.557.8a1.63,1.63,0,0,0,.561-1.468c0-.676-.173-1.019-.559-.8A1.676,1.676,0,0,0,77.018,56.36Z" transform="translate(-50.242 -13.211)" fill="#fff"/>
      <path id="Path_369" data-name="Path 369" d="M78.1,57.339,79.274,53.6l.287-.165L78.38,57.177Z" transform="translate(-49.682 -13.609)" fill="#fff"/>
      <path id="Path_370" data-name="Path 370" d="M81.117,53.952a2.18,2.18,0,0,1-.955,2c-.536.31-.9.017-.908-.887a2.233,2.233,0,0,1,.955-1.976C80.787,52.753,81.117,53.077,81.117,53.952Zm-1.491.9c0,.714.222.992.559.8a1.63,1.63,0,0,0,.561-1.468c0-.675-.173-1.02-.557-.8A1.673,1.673,0,0,0,79.625,54.854Z" transform="translate(-49.235 -13.793)" fill="#fff"/>
      <path id="Path_371" data-name="Path 371" d="M82.679,53.05a2.183,2.183,0,0,1-.954,2c-.536.309-.9.017-.908-.887a2.233,2.233,0,0,1,.953-1.978C82.351,51.85,82.679,52.176,82.679,53.05Zm-1.49.9c0,.715.219.994.557.8a1.63,1.63,0,0,0,.561-1.466c0-.676-.172-1.02-.557-.8A1.678,1.678,0,0,0,81.189,53.951Z" transform="translate(-48.632 -14.141)" fill="#fff"/>
      <path id="Path_372" data-name="Path 372" d="M70.89,62.378,60.641,68.3V66.356L70.89,60.439Z" transform="translate(-56.418 -10.906)" fill="#fff" opacity="0.8"/>
      <path id="Path_373" data-name="Path 373" d="M97.375,54.609,60.641,75.819V73.878L97.375,52.67Z" transform="translate(-56.418 -13.904)" fill="#fff" opacity="0.8"/>
    </g>
    <g id="Group_351" data-name="Group 351" transform="translate(83.279 73.979)">
      <path id="Path_374" data-name="Path 374" d="M72.311,69.272c.561.238.561,1.148,0,2.035L68.473,77.36l3.838,1.623c.561.237.561,1.148,0,2.033s-1.473,1.412-2.034,1.175l-4.855-2.053A.772.772,0,0,1,65,79.365a2.464,2.464,0,0,1,.421-1.261l4.855-7.657C70.837,69.56,71.748,69.035,72.311,69.272Z" transform="translate(-65 -56.861)" fill="#58dfec"/>
      <path id="Path_375" data-name="Path 375" d="M80.029,64.815c.563.237.563,1.148,0,2.035L76.193,72.9l3.836,1.623c.563.237.563,1.148,0,2.033S78.557,77.971,78,77.733L73.14,75.682a.771.771,0,0,1-.42-.775,2.447,2.447,0,0,1,.42-1.26L78,65.989C78.557,65.1,79.469,64.577,80.029,64.815Z" transform="translate(-62.021 -58.581)" fill="#6aeaf6"/>
      <path id="Path_376" data-name="Path 376" d="M87.751,60.358c.561.237.561,1.148,0,2.035l-3.839,6.054,3.839,1.621c.561.238.561,1.149,0,2.033s-1.473,1.414-2.035,1.175l-4.855-2.051a.774.774,0,0,1-.423-.775,2.449,2.449,0,0,1,.423-1.26l4.855-7.657C86.278,60.646,87.19,60.12,87.751,60.358Z" transform="translate(-59.042 -60.301)" fill="#9fecf3"/>
    </g>
  </g>
</svg>
