<svg xmlns="http://www.w3.org/2000/svg" width="329.317" height="170.014" viewBox="0 0 329.317 170.014">
  <g id="hospitality" transform="translate(-23.347 -196.882)">
    <g id="Group_4355" data-name="Group 4355" transform="translate(35.506 214.478)">
      <g id="Group_4334" data-name="Group 4334" transform="translate(24.732 63.337)">
        <path id="Path_9505" data-name="Path 9505" d="M103.964,344.638a3.835,3.835,0,1,1,3.147-4.416A3.834,3.834,0,0,1,103.964,344.638Z" transform="translate(-73.157 -335.795)" fill="#f34938"/>
        <path id="Path_9506" data-name="Path 9506" d="M67.479,342.94a3.835,3.835,0,1,1,3.147-4.416A3.835,3.835,0,0,1,67.479,342.94Z" transform="translate(-63.009 -335.323)" fill="#f34938"/>
        <path id="Path_9507" data-name="Path 9507" d="M94.9,336.56l-.6,7.643-26.156-1.211.258-7.667Z" transform="translate(-64.435 -335.324)" fill="#f34938"/>
      </g>
      <g id="Group_4335" data-name="Group 4335" transform="translate(24.675 37.708)">
        <path id="Path_9508" data-name="Path 9508" d="M78.227,303.645a3.834,3.834,0,1,1-3.844-3.826A3.834,3.834,0,0,1,78.227,303.645Z" transform="translate(-65.052 -299.819)" fill="#f34938"/>
        <path id="Path_9509" data-name="Path 9509" d="M70.6,339.364a3.835,3.835,0,1,1-3.844-3.826A3.835,3.835,0,0,1,70.6,339.364Z" transform="translate(-62.93 -309.754)" fill="#f34938"/>
        <path id="Path_9510" data-name="Path 9510" d="M68.572,303.873l7.442,1.84-5.462,25.608-7.522-1.505Z" transform="translate(-62.958 -300.947)" fill="#f34938"/>
      </g>
      <g id="Group_4336" data-name="Group 4336" transform="translate(28.619 85.639)">
        <path id="Path_9511" data-name="Path 9511" d="M109.491,374.47a3.835,3.835,0,1,1,3.019-4.505A3.836,3.836,0,0,1,109.491,374.47Z" transform="translate(-78.552 -366.4)" fill="#f7b386"/>
        <path id="Path_9512" data-name="Path 9512" d="M72.972,373.816a3.835,3.835,0,1,1,3.02-4.505A3.835,3.835,0,0,1,72.972,373.816Z" transform="translate(-68.394 -366.219)" fill="#f7b386"/>
        <path id="Path_9513" data-name="Path 9513" d="M100.238,366.695l-.382,7.657-26.18-.462.039-7.671Z" transform="translate(-69.863 -366.219)" fill="#f7b386"/>
      </g>
      <g id="Group_4337" data-name="Group 4337" transform="translate(45.493 86.111)">
        <rect id="Rectangle_472" data-name="Rectangle 472" width="7.579" height="31.4" transform="translate(0 3.79)" fill="#f7b386"/>
        <circle id="Ellipse_96" data-name="Ellipse 96" cx="3.79" cy="3.79" r="3.79" transform="translate(0 31.4)" fill="#f7b386"/>
        <circle id="Ellipse_97" data-name="Ellipse 97" cx="3.79" cy="3.79" r="3.79" fill="#f7b386"/>
      </g>
      <g id="Group_4338" data-name="Group 4338" transform="translate(54.917 86.111)">
        <rect id="Rectangle_473" data-name="Rectangle 473" width="7.579" height="31.4" transform="translate(0 3.79)" fill="#f7b386"/>
        <circle id="Ellipse_98" data-name="Ellipse 98" cx="3.79" cy="3.79" r="3.79" transform="translate(0 31.4)" fill="#f7b386"/>
        <circle id="Ellipse_99" data-name="Ellipse 99" cx="3.79" cy="3.79" r="3.79" fill="#f7b386"/>
      </g>
      <path id="Path_9514" data-name="Path 9514" d="M104.826,417.089v7.654h3.188v-1.022l3.369,1.022H121.85s.12-1.5-1.083-1.865-7.46-1.985-7.76-8.6c0,0-2.286-.346-2.286,2.768Z" transform="translate(-49.909 -293.944)" fill="#1e3140"/>
      <path id="Path_9515" data-name="Path 9515" d="M91.77,417.089v7.654h3.188v-1.022l3.368,1.022h10.467s.121-1.5-1.083-1.865-7.459-1.985-7.76-8.6c0,0-2.285-.346-2.285,2.768Z" transform="translate(-46.277 -293.944)" fill="#1e3140"/>
      <g id="Group_4339" data-name="Group 4339" transform="translate(19.066 85.639)">
        <path id="Path_9516" data-name="Path 9516" d="M96.257,374.47a3.835,3.835,0,1,1,3.019-4.505A3.836,3.836,0,0,1,96.257,374.47Z" transform="translate(-65.318 -366.4)" fill="#f7b386"/>
        <path id="Path_9517" data-name="Path 9517" d="M59.738,373.816a3.835,3.835,0,1,1,3.02-4.505A3.835,3.835,0,0,1,59.738,373.816Z" transform="translate(-55.16 -366.219)" fill="#f7b386"/>
        <path id="Path_9518" data-name="Path 9518" d="M87,366.695l-.382,7.657-26.18-.462.039-7.671Z" transform="translate(-56.629 -366.219)" fill="#f7b386"/>
      </g>
      <path id="Path_9519" data-name="Path 9519" d="M40.275,366.219s-2.286,11.617,0,15.73,6.987,6.168,16.246,6.168H77.176v-21.9Z" transform="translate(-31.671 -280.58)" fill="#1e3140"/>
      <path id="Path_9520" data-name="Path 9520" d="M54.076,247.615S40.2,246.4,39.511,258.387c0,5.547-4.717,8.455-3.607,14.53.995,5.446,5.89,8.293,18.277,8.293,13.787,0,10.407-15.794,10.407-15.794S67.968,249.727,54.076,247.615Z" transform="translate(-30.691 -247.58)" fill="#a82e1f"/>
      <path id="Path_9521" data-name="Path 9521" d="M56.875,279.36h0a10.222,10.222,0,0,1-10.222-10.222v-10.3c0-5.645,6.608-10.221,10.222-10.221S67.1,253.192,67.1,258.837v10.3A10.222,10.222,0,0,1,56.875,279.36Z" transform="translate(-33.728 -247.868)" fill="#f7b386"/>
      <path id="Path_9522" data-name="Path 9522" d="M68.609,349.8c.13-3.748.117-7.813-.121-12.152a136.086,136.086,0,0,0-1.564-14.437c2.526-3.708,2.891-6.592,2.707-8.6a32.481,32.481,0,0,0-1.865-6.918h0l-1.323-9.143-7.67-4.512H50.2l-10.918,5.324,1.985,27.791L37.84,347.726s2.8,6.136,12.362,6.677a15.982,15.982,0,0,0,8.572-8.752s1.714,6.136,7.068,8.752a8.113,8.113,0,0,0,2.767-4.6Z" transform="translate(-31.276 -260.503)" fill="#f34938"/>
      <path id="Path_9523" data-name="Path 9523" d="M50.77,295.383l-.971,6.748,4.09,2.193-2.045,4.993,10.948,16.749,6.316-16.809L65.441,303.6l2.459-2.064-3.184-6.155L62.1,294.039H53.528Z" transform="translate(-34.603 -260.503)" fill="#f96862"/>
      <path id="Path_9524" data-name="Path 9524" d="M54.965,294.039l9.264,31.16,1.083-23.067-1.775-8.093Z" transform="translate(-36.04 -260.503)" fill="#fff"/>
      <path id="Rectangle_474" data-name="Rectangle 474" d="M0,0H8.572a0,0,0,0,1,0,0V12.187a0,0,0,0,1,0,0H5.092A5.092,5.092,0,0,1,0,7.095V0A0,0,0,0,1,0,0Z" transform="translate(18.905 23.635)" fill="#f7b386"/>
      <g id="Group_4340" data-name="Group 4340" transform="translate(0.003 38.634)">
        <circle id="Ellipse_100" data-name="Ellipse 100" cx="3.835" cy="3.835" r="3.835" transform="translate(5.568)" fill="#f34938"/>
        <circle id="Ellipse_101" data-name="Ellipse 101" cx="3.835" cy="3.835" r="3.835" transform="translate(0 25.77)" fill="#f34938"/>
        <path id="Path_9525" data-name="Path 9525" d="M34.459,305.143,41.9,307l-5.523,25.6-7.518-1.524Z" transform="translate(-28.78 -302.225)" fill="#f34938"/>
      </g>
      <path id="Path_9526" data-name="Path 9526" d="M57.753,302.93l2.866-7.092-5.654-3.549v1.263Z" transform="translate(-36.04 -260.016)" fill="#fff"/>
      <path id="Path_9527" data-name="Path 9527" d="M62.8,295.8l4.692,5.807-1.775-9.446Z" transform="translate(-38.219 -259.981)" fill="#fff"/>
      <ellipse id="Ellipse_102" data-name="Ellipse 102" cx="0.64" cy="0.881" rx="0.64" ry="0.881" transform="translate(21.882 17.377)" fill="#2e2930"/>
      <path id="Path_9528" data-name="Path 9528" d="M71.787,272.534c0,.486-.287.881-.64.881s-.64-.395-.64-.881.287-.881.64-.881S71.787,272.047,71.787,272.534Z" transform="translate(-40.363 -254.276)" fill="#2e2930"/>
      <g id="Group_4341" data-name="Group 4341" transform="translate(27.2 21.474)">
        <path id="Path_9529" data-name="Path 9529" d="M66.609,280.257a.181.181,0,0,1-.068-.348,2.01,2.01,0,0,0,1.291-1.135,1.526,1.526,0,0,0-.171-1.167.18.18,0,0,1,.3-.2,1.867,1.867,0,0,1,.215,1.469,2.341,2.341,0,0,1-1.5,1.365A.189.189,0,0,1,66.609,280.257Z" transform="translate(-66.428 -277.329)" fill="#e4866a"/>
      </g>
      <g id="Group_4342" data-name="Group 4342" transform="translate(0 64.402)">
        <path id="Path_9530" data-name="Path 9530" d="M69.844,345.05a3.835,3.835,0,1,1,3.019-4.505A3.835,3.835,0,0,1,69.844,345.05Z" transform="translate(-38.905 -336.98)" fill="#f34938"/>
        <path id="Path_9531" data-name="Path 9531" d="M33.325,344.4a3.835,3.835,0,1,1,3.019-4.505A3.835,3.835,0,0,1,33.325,344.4Z" transform="translate(-28.747 -336.798)" fill="#f34938"/>
        <path id="Path_9532" data-name="Path 9532" d="M60.591,337.275l-.382,7.657-26.18-.462.039-7.671Z" transform="translate(-30.216 -336.798)" fill="#f34938"/>
      </g>
      <g id="Group_4348" data-name="Group 4348" transform="translate(52.5 60.256)">
        <path id="Path_9533" data-name="Path 9533" d="M114.428,333.181a1.068,1.068,0,1,0-1.205-.91A1.068,1.068,0,0,0,114.428,333.181Z" transform="translate(-104.742 -331.055)" fill="#f7b386"/>
        <path id="Path_9534" data-name="Path 9534" d="M106.911,341.523a1.44,1.44,0,1,0-1.626-1.227A1.44,1.44,0,0,0,106.911,341.523Z" transform="translate(-102.533 -333.169)" fill="#f7b386"/>
        <path id="Path_9535" data-name="Path 9535" d="M113.076,333.011,108.17,338.9l-1.943-2.034,5.368-5.4Z" transform="translate(-102.799 -331.17)" fill="#f7b386"/>
        <g id="Group_4343" data-name="Group 4343" transform="translate(9.598 2.876)">
          <rect id="Rectangle_475" data-name="Rectangle 475" width="1.569" height="5.116" transform="translate(0.96 2.689) rotate(-102.898)" fill="#f7b386"/>
          <path id="Path_9536" data-name="Path 9536" d="M122.294,335.058a.785.785,0,1,0,.94.59A.785.785,0,0,0,122.294,335.058Z" transform="translate(-116.696 -335.038)" fill="#f7b386"/>
          <path id="Path_9537" data-name="Path 9537" d="M115.384,336.636a.785.785,0,1,0,.94.59A.785.785,0,0,0,115.384,336.636Z" transform="translate(-114.774 -335.477)" fill="#f7b386"/>
        </g>
        <g id="Group_4344" data-name="Group 4344" transform="translate(9.298 5.008)">
          <rect id="Rectangle_476" data-name="Rectangle 476" width="1.569" height="5.725" transform="translate(0.881 2.264) rotate(-97.039)" fill="#f7b386"/>
          <path id="Path_9538" data-name="Path 9538" d="M122.918,338a.784.784,0,1,0,.875.682A.784.784,0,0,0,122.918,338Z" transform="translate(-116.548 -337.993)" fill="#f7b386"/>
          <path id="Path_9539" data-name="Path 9539" d="M115.047,338.97a.784.784,0,1,0,.875.683A.784.784,0,0,0,115.047,338.97Z" transform="translate(-114.359 -338.263)" fill="#f7b386"/>
        </g>
        <g id="Group_4345" data-name="Group 4345" transform="translate(9.033 7.264)">
          <rect id="Rectangle_477" data-name="Rectangle 477" width="1.569" height="4.801" transform="translate(0.821 1.794) rotate(-92.626)" fill="#f7b386"/>
          <path id="Path_9540" data-name="Path 9540" d="M121.413,341.119a.784.784,0,1,0,.82.748A.784.784,0,0,0,121.413,341.119Z" transform="translate(-115.848 -341.118)" fill="#f7b386"/>
          <path id="Path_9541" data-name="Path 9541" d="M114.741,341.432a.785.785,0,1,0,.82.748A.785.785,0,0,0,114.741,341.432Z" transform="translate(-113.992 -341.205)" fill="#f7b386"/>
        </g>
        <g id="Group_4346" data-name="Group 4346" transform="translate(8.634 9.318)">
          <rect id="Rectangle_478" data-name="Rectangle 478" width="1.569" height="4.433" transform="matrix(-0.002, -1, 1, -0.002, 0.786, 1.577)" fill="#f7b386"/>
          <path id="Path_9542" data-name="Path 9542" d="M120.367,343.975a.784.784,0,1,0,.785.782A.784.784,0,0,0,120.367,343.975Z" transform="translate(-115.148 -343.966)" fill="#f7b386"/>
          <path id="Path_9543" data-name="Path 9543" d="M114.222,343.974a.785.785,0,1,0,.785.783A.785.785,0,0,0,114.222,343.974Z" transform="translate(-113.439 -343.966)" fill="#f7b386"/>
        </g>
        <path id="Path_9544" data-name="Path 9544" d="M114.539,339.251a.784.784,0,1,0,1.1-.105A.784.784,0,0,0,114.539,339.251Z" transform="translate(-105.061 -333.255)" fill="#f7b386"/>
        <path id="Path_9545" data-name="Path 9545" d="M114.955,336.9a.784.784,0,1,0,1.1-.105A.784.784,0,0,0,114.955,336.9Z" transform="translate(-105.176 -332.602)" fill="#f7b386"/>
        <path id="Path_9546" data-name="Path 9546" d="M114.181,341.724a.784.784,0,1,0,1.1-.1A.784.784,0,0,0,114.181,341.724Z" transform="translate(-104.961 -333.943)" fill="#f7b386"/>
        <path id="Path_9547" data-name="Path 9547" d="M113.623,344.259a.784.784,0,1,0,1.1-.1A.784.784,0,0,0,113.623,344.259Z" transform="translate(-104.806 -334.648)" fill="#f7b386"/>
        <g id="Group_4347" data-name="Group 4347" transform="translate(0 4.044)">
          <path id="Path_9548" data-name="Path 9548" d="M104.24,343.6a2.426,2.426,0,1,0-2.738-2.067A2.426,2.426,0,0,0,104.24,343.6Z" transform="translate(-101.478 -337.245)" fill="#f7b386"/>
          <path id="Path_9549" data-name="Path 9549" d="M104.373,338.207l8.081-1.55.3.184.262,3.135-1.3,3.532-6.671-.5Z" transform="translate(-102.283 -336.657)" fill="#f7b386"/>
        </g>
      </g>
      <path id="Path_9550" data-name="Path 9550" d="M61.627,249.82a13.231,13.231,0,0,1-4.675,9.852,12.631,12.631,0,0,1-7.5,2.694V271s.128,4.37,4.486,2.978a5.162,5.162,0,0,1-6.154,2.913s-2.536-2.853-2.536-9.984-1.215-19.281,11.463-19.281Z" transform="translate(-33.329 -247.593)" fill="#a82e1f"/>
      <path id="Path_9551" data-name="Path 9551" d="M67.718,250.775a10.185,10.185,0,0,0,2.113,7.078,9.489,9.489,0,0,0,3.117,2.483,9.049,9.049,0,0,0-5.23-9.562Z" transform="translate(-39.579 -248.469)" fill="#a82e1f"/>
      <g id="Group_4354" data-name="Group 4354" transform="translate(27.789 60.366)">
        <path id="Path_9552" data-name="Path 9552" d="M79.947,333.329a1.069,1.069,0,1,0-1.231-.875A1.07,1.07,0,0,0,79.947,333.329Z" transform="translate(-70.431 -331.207)" fill="#f7b386"/>
        <path id="Path_9553" data-name="Path 9553" d="M72.674,341.879a1.44,1.44,0,1,0-1.66-1.18A1.44,1.44,0,0,0,72.674,341.879Z" transform="translate(-68.287 -333.38)" fill="#f7b386"/>
        <path id="Path_9554" data-name="Path 9554" d="M78.638,333.15,73.9,339.18l-2-1.978,5.211-5.549Z" transform="translate(-68.539 -331.331)" fill="#f7b386"/>
        <g id="Group_4349" data-name="Group 4349" transform="translate(9.503 2.708)">
          <rect id="Rectangle_479" data-name="Rectangle 479" width="1.569" height="5.116" transform="matrix(-0.251, -0.968, 0.968, -0.251, 0.982, 2.825)" fill="#f7b386"/>
          <path id="Path_9555" data-name="Path 9555" d="M87.86,334.984a.784.784,0,1,0,.956.562A.783.783,0,0,0,87.86,334.984Z" transform="translate(-82.318 -334.959)" fill="#f7b386"/>
          <path id="Path_9556" data-name="Path 9556" d="M81,336.759a.784.784,0,1,0,.956.562A.784.784,0,0,0,81,336.759Z" transform="translate(-80.409 -335.453)" fill="#f7b386"/>
        </g>
        <g id="Group_4350" data-name="Group 4350" transform="translate(9.251 4.828)">
          <rect id="Rectangle_480" data-name="Rectangle 480" width="1.569" height="5.725" transform="matrix(-0.151, -0.989, 0.989, -0.151, 0.903, 2.424)" fill="#f7b386"/>
          <path id="Path_9557" data-name="Path 9557" d="M88.566,337.9a.785.785,0,1,0,.894.658A.785.785,0,0,0,88.566,337.9Z" transform="translate(-82.241 -337.896)" fill="#f7b386"/>
          <path id="Path_9558" data-name="Path 9558" d="M80.726,339.1a.785.785,0,1,0,.894.657A.784.784,0,0,0,80.726,339.1Z" transform="translate(-80.06 -338.228)" fill="#f7b386"/>
        </g>
        <g id="Group_4351" data-name="Group 4351" transform="translate(9.038 7.116)">
          <rect id="Rectangle_481" data-name="Rectangle 481" width="1.569" height="4.801" transform="translate(0.843 1.931) rotate(-94.263)" fill="#f7b386"/>
          <path id="Path_9559" data-name="Path 9559" d="M87.152,341.067a.785.785,0,1,0,.84.724A.784.784,0,0,0,87.152,341.067Z" transform="translate(-81.618 -341.065)" fill="#f7b386"/>
          <path id="Path_9560" data-name="Path 9560" d="M80.491,341.571a.784.784,0,1,0,.841.724A.784.784,0,0,0,80.491,341.571Z" transform="translate(-79.765 -341.205)" fill="#f7b386"/>
        </g>
        <g id="Group_4352" data-name="Group 4352" transform="translate(8.691 9.192)">
          <rect id="Rectangle_482" data-name="Rectangle 482" width="1.569" height="4.433" transform="matrix(-0.03, -1, 1, -0.03, 0.809, 1.703)" fill="#f7b386"/>
          <path id="Path_9561" data-name="Path 9561" d="M86.188,343.952a.785.785,0,1,0,.808.76A.784.784,0,0,0,86.188,343.952Z" transform="translate(-80.993 -343.944)" fill="#f7b386"/>
          <path id="Path_9562" data-name="Path 9562" d="M80.045,344.127a.785.785,0,1,0,.808.761A.785.785,0,0,0,80.045,344.127Z" transform="translate(-79.285 -343.992)" fill="#f7b386"/>
        </g>
        <path id="Path_9563" data-name="Path 9563" d="M80.227,339.4a.785.785,0,1,0,1.1-.136A.785.785,0,0,0,80.227,339.4Z" transform="translate(-70.809 -333.401)" fill="#f7b386"/>
        <path id="Path_9564" data-name="Path 9564" d="M80.575,337.036a.785.785,0,1,0,1.1-.136A.785.785,0,0,0,80.575,337.036Z" transform="translate(-70.906 -332.744)" fill="#f7b386"/>
        <path id="Path_9565" data-name="Path 9565" d="M79.939,341.88a.785.785,0,1,0,1.1-.136A.784.784,0,0,0,79.939,341.88Z" transform="translate(-70.729 -334.092)" fill="#f7b386"/>
        <path id="Path_9566" data-name="Path 9566" d="M79.454,344.429a.785.785,0,1,0,1.1-.136A.785.785,0,0,0,79.454,344.429Z" transform="translate(-70.594 -334.801)" fill="#f7b386"/>
        <g id="Group_4353" data-name="Group 4353" transform="translate(0 4.025)">
          <path id="Path_9567" data-name="Path 9567" d="M70.075,344.019a2.426,2.426,0,1,0-2.8-1.987A2.425,2.425,0,0,0,70.075,344.019Z" transform="translate(-67.244 -337.456)" fill="#f7b386"/>
          <path id="Path_9568" data-name="Path 9568" d="M70.044,338.563l8.033-1.78.309.175.352,3.126-1.2,3.568-6.682-.306Z" transform="translate(-68.023 -336.783)" fill="#f7b386"/>
        </g>
      </g>
      <path id="Path_9569" data-name="Path 9569" d="M59,306.28l1.321-3.342,2.151,2.3H63.8l1.038-2.166,1.526,1.805.023-.48-1.775-2.2-4.372-.012-1.412,3.493Z" transform="translate(-37.114 -262.77)" fill="#b3bdbf"/>
      <path id="Path_9570" data-name="Path 9570" d="M60.783,300.8l2.237,3.048h1.323l.812-3.036-2.917-3.611Z" transform="translate(-37.658 -261.384)" fill="#f34938"/>
      <path id="Path_9571" data-name="Path 9571" d="M63.455,306.414l-1.108,8.99,1.052,3.54,1.379-12.53Z" transform="translate(-38.093 -263.945)" fill="#f34938"/>
      <path id="Path_9572" data-name="Path 9572" d="M65.205,306.414l2.131,8.858-.179,3.815-3.276-12.674Z" transform="translate(-38.52 -263.945)" fill="#f34938"/>
      <path id="Path_9573" data-name="Path 9573" d="M60.292,283.5a5.672,5.672,0,0,0,7.76,0" transform="translate(-37.522 -257.571)" fill="none" stroke="#e4866a" stroke-linecap="round" stroke-miterlimit="10" stroke-width="0.75"/>
    </g>
    <g id="Group_4362" data-name="Group 4362" transform="translate(253.356 205.051)">
      <g id="Group_4361" data-name="Group 4361">
        <g id="Group_4356" data-name="Group 4356" transform="translate(47.82 15.356)">
          <path id="Path_9574" data-name="Path 9574" d="M417.7,287.849a.764.764,0,0,1-.764-.764V250.822a39.868,39.868,0,0,0-3.062-16.195l-1.779-4.085a.764.764,0,0,1,1.4-.61l1.779,4.085a41.358,41.358,0,0,1,3.189,16.8v36.263A.764.764,0,0,1,417.7,287.849Z" transform="translate(-412.029 -229.473)" fill="#e5e3e3"/>
        </g>
        <path id="Path_9575" data-name="Path 9575" d="M412.866,234.4s4.972-7.662,2.973-14.138c-2.278-7.376-10.046-8.873-12.249-11.716a.852.852,0,0,0-1.369-.007c-1.8,2.452-5.589,8.923-2.365,16.506C403.972,234.733,412.866,234.4,412.866,234.4Z" transform="translate(-360.474 -208.2)" fill="#e5e3e3"/>
        <g id="Group_4357" data-name="Group 4357" transform="translate(40.192 33.064)">
          <path id="Path_9576" data-name="Path 9576" d="M414.757,273.7a.765.765,0,0,1-.748-.611c-.024-.118-2.516-11.828-12.178-17.661a.764.764,0,0,1,.79-1.308c10.249,6.186,12.783,18.157,12.886,18.664a.763.763,0,0,1-.6.9A.739.739,0,0,1,414.757,273.7Z" transform="translate(-401.461 -254.005)" fill="#e5e3e3"/>
        </g>
        <path id="Path_9577" data-name="Path 9577" d="M390.713,255.492s-4.157-8.018-10.7-8.745-7.991,2.27-13.167,1.907-9.717-3.541-14.167-2.815-6.9,7.083-6.9,7.083l15.075-3s8.536,11.17,16.981,10.9A18.59,18.59,0,0,0,390.713,255.492Z" transform="translate(-345.782 -218.639)" fill="#e5e3e3"/>
        <g id="Group_4358" data-name="Group 4358" transform="translate(42.179 65.218)">
          <path id="Path_9578" data-name="Path 9578" d="M415.631,315.456a.657.657,0,0,1-.642-.525c-.02-.1-2.16-10.156-10.457-15.164a.656.656,0,1,1,.678-1.123c8.8,5.312,10.976,15.591,11.064,16.026a.656.656,0,0,1-.512.773A.631.631,0,0,1,415.631,315.456Z" transform="translate(-404.214 -298.548)" fill="#e5e3e3"/>
        </g>
        <path id="Path_9579" data-name="Path 9579" d="M394.985,299.825s-3.57-6.886-9.184-7.509-6.862,1.95-11.306,1.638-8.344-3.041-12.164-2.417-5.926,6.082-5.926,6.082l12.944-2.573s7.33,9.591,14.582,9.357A15.961,15.961,0,0,0,394.985,299.825Z" transform="translate(-348.737 -231.355)" fill="#e5e3e3"/>
        <g id="Group_4359" data-name="Group 4359" transform="translate(52.724 74.061)">
          <path id="Path_9580" data-name="Path 9580" d="M419.479,327.707a.657.657,0,0,0,.642-.525c.021-.1,2.16-10.156,10.457-15.165a.656.656,0,1,0-.678-1.122c-8.8,5.312-10.976,15.591-11.064,16.026a.656.656,0,0,0,.512.773A.629.629,0,0,0,419.479,327.707Z" transform="translate(-418.823 -310.799)" fill="#e5e3e3"/>
        </g>
        <path id="Path_9581" data-name="Path 9581" d="M429.91,312.076s3.57-6.885,9.184-7.509,6.862,1.949,11.306,1.637,8.344-3.041,12.165-2.417,5.926,6.082,5.926,6.082L455.547,307.3s-7.33,9.591-14.582,9.357A15.96,15.96,0,0,1,429.91,312.076Z" transform="translate(-369.183 -234.762)" fill="#e5e3e3"/>
        <path id="Path_9582" data-name="Path 9582" d="M423.315,282.066s-2.361-5.994.636-10.262,11.079-7.356,14.439-13.44,4.722-10.535,14.8-7.356l-12.078,8.173s2.476,13.712-3.3,18.979S423.315,282.066,423.315,282.066Z" transform="translate(-367.102 -219.814)" fill="#e5e3e3"/>
        <g id="Group_4360" data-name="Group 4360" transform="translate(52.724 58.219)">
          <path id="Path_9583" data-name="Path 9583" d="M419.587,300.007a.731.731,0,0,1-.141-.013.764.764,0,0,1-.61-.891c1.13-6.027,6.066-9.925,6.275-10.088a.764.764,0,0,1,.939,1.205c-.049.038-4.691,3.72-5.713,9.165A.764.764,0,0,1,419.587,300.007Z" transform="translate(-418.823 -288.853)" fill="#e5e3e3"/>
        </g>
      </g>
      <rect id="Rectangle_483" data-name="Rectangle 483" width="1.528" height="35.671" transform="translate(52.724 72.082)" fill="#e5e3e3"/>
    </g>
    <g id="Group_4368" data-name="Group 4368" transform="translate(178.704 248.774)">
      <path id="Path_9584" data-name="Path 9584" d="M253.942,270.863a1.068,1.068,0,1,0-1.327-.721A1.069,1.069,0,0,0,253.942,270.863Z" transform="translate(-245.203 -268.77)" fill="#f7b386"/>
      <path id="Path_9585" data-name="Path 9585" d="M247.76,280.2a1.44,1.44,0,1,0-1.789-.972A1.441,1.441,0,0,0,247.76,280.2Z" transform="translate(-243.351 -271.165)" fill="#f7b386"/>
      <path id="Path_9586" data-name="Path 9586" d="M252.831,270.654l-3.981,6.553-2.222-1.724,4.511-6.132Z" transform="translate(-243.55 -268.931)" fill="#f7b386"/>
      <g id="Group_4363" data-name="Group 4363" transform="translate(9.038 1.985)">
        <rect id="Rectangle_484" data-name="Rectangle 484" width="1.569" height="5.116" transform="matrix(-0.365, -0.931, 0.931, -0.365, 1.071, 3.379)" fill="#f7b386"/>
        <path id="Path_9587" data-name="Path 9587" d="M261.984,271.573a.785.785,0,1,0,1.017.445A.786.786,0,0,0,261.984,271.573Z" transform="translate(-256.721 -271.519)" fill="#f7b386"/>
        <path id="Path_9588" data-name="Path 9588" d="M255.384,274.156a.785.785,0,1,0,1.016.444A.784.784,0,0,0,255.384,274.156Z" transform="translate(-254.885 -272.238)" fill="#f7b386"/>
      </g>
      <g id="Group_4364" data-name="Group 4364" transform="translate(8.992 4.035)">
        <rect id="Rectangle_485" data-name="Rectangle 485" width="1.569" height="5.725" transform="matrix(-0.268, -0.963, 0.963, -0.268, 0.995, 3.075)" fill="#f7b386"/>
        <path id="Path_9589" data-name="Path 9589" d="M263.036,274.389a.784.784,0,1,0,.966.546A.785.785,0,0,0,263.036,274.389Z" transform="translate(-256.946 -274.36)" fill="#f7b386"/>
        <path id="Path_9590" data-name="Path 9590" d="M255.395,276.514a.785.785,0,1,0,.967.546A.785.785,0,0,0,255.395,276.514Z" transform="translate(-254.82 -274.951)" fill="#f7b386"/>
      </g>
      <g id="Group_4365" data-name="Group 4365" transform="translate(8.994 6.433)">
        <rect id="Rectangle_486" data-name="Rectangle 486" width="1.569" height="4.801" transform="translate(0.936 2.491) rotate(-101.13)" fill="#f7b386"/>
        <path id="Path_9591" data-name="Path 9591" d="M262.009,277.7a.785.785,0,1,0,.921.619A.785.785,0,0,0,262.009,277.7Z" transform="translate(-256.646 -277.682)" fill="#f7b386"/>
        <path id="Path_9592" data-name="Path 9592" d="M255.456,278.994a.785.785,0,1,0,.921.618A.784.784,0,0,0,255.456,278.994Z" transform="translate(-254.823 -278.043)" fill="#f7b386"/>
      </g>
      <g id="Group_4366" data-name="Group 4366" transform="translate(8.87 8.589)">
        <rect id="Rectangle_487" data-name="Rectangle 487" width="1.569" height="4.433" transform="matrix(-0.15, -0.989, 0.989, -0.15, 0.902, 2.216)" fill="#f7b386"/>
        <path id="Path_9593" data-name="Path 9593" d="M261.4,280.677a.784.784,0,1,0,.893.658A.784.784,0,0,0,261.4,280.677Z" transform="translate(-256.342 -280.668)" fill="#f7b386"/>
        <path id="Path_9594" data-name="Path 9594" d="M255.319,281.585a.785.785,0,1,0,.893.659A.786.786,0,0,0,255.319,281.585Z" transform="translate(-254.652 -280.92)" fill="#f7b386"/>
      </g>
      <path id="Path_9595" data-name="Path 9595" d="M254.934,276.867a.785.785,0,1,0,1.077-.266A.785.785,0,0,0,254.934,276.867Z" transform="translate(-245.829 -270.917)" fill="#f7b386"/>
      <path id="Path_9596" data-name="Path 9596" d="M255,274.482a.785.785,0,1,0,1.077-.267A.785.785,0,0,0,255,274.482Z" transform="translate(-245.847 -270.253)" fill="#f7b386"/>
      <path id="Path_9597" data-name="Path 9597" d="M254.946,279.367a.784.784,0,1,0,1.077-.267A.784.784,0,0,0,254.946,279.367Z" transform="translate(-245.832 -271.612)" fill="#f7b386"/>
      <path id="Path_9598" data-name="Path 9598" d="M254.769,281.956a.785.785,0,1,0,1.077-.267A.785.785,0,0,0,254.769,281.956Z" transform="translate(-245.783 -272.332)" fill="#f7b386"/>
      <g id="Group_4367" data-name="Group 4367" transform="translate(0 3.918)">
        <path id="Path_9599" data-name="Path 9599" d="M245.478,282.59a2.426,2.426,0,1,0-3.014-1.639A2.425,2.425,0,0,0,245.478,282.59Z" transform="translate(-242.364 -275.21)" fill="#f7b386"/>
        <path id="Path_9600" data-name="Path 9600" d="M244.773,276.925l7.763-2.728.328.137.723,3.061-.767,3.686-6.671.5Z" transform="translate(-243.034 -274.197)" fill="#f7b386"/>
      </g>
    </g>
    <g id="Group_4369" data-name="Group 4369" transform="translate(75.939 244.581)">
      <rect id="Rectangle_488" data-name="Rectangle 488" width="34.829" height="26.213" fill="#f4f0ef"/>
      <path id="Path_9601" data-name="Path 9601" d="M117.667,283.485l5.775,20.385H134.51l-5.294-20.385Z" transform="translate(-104.914 -268.67)" fill="#f4f0ef"/>
      <rect id="Rectangle_489" data-name="Rectangle 489" width="1.323" height="26.213" fill="#b8c9d0"/>
      <path id="Path_9602" data-name="Path 9602" d="M117.667,283.833V294.98H120.9Z" transform="translate(-104.914 -268.767)" fill="#b8c9d0"/>
      <rect id="Rectangle_490" data-name="Rectangle 490" width="15.038" height="1.384" transform="translate(9.023 33.654)" fill="#f4f0ef"/>
    </g>
    <g id="Group_4383" data-name="Group 4383" transform="translate(117.818 201.796)">
      <g id="Group_4370" data-name="Group 4370" transform="translate(12.359 120.411)">
        <rect id="Rectangle_491" data-name="Rectangle 491" width="7.579" height="31.4" transform="translate(0 3.79)" fill="#f7b386"/>
        <circle id="Ellipse_103" data-name="Ellipse 103" cx="3.79" cy="3.79" r="3.79" transform="translate(0 31.4)" fill="#f7b386"/>
        <circle id="Ellipse_104" data-name="Ellipse 104" cx="3.79" cy="3.79" r="3.79" fill="#f7b386"/>
      </g>
      <g id="Group_4371" data-name="Group 4371" transform="translate(28.2 120.411)">
        <rect id="Rectangle_492" data-name="Rectangle 492" width="7.579" height="31.4" transform="translate(0 3.79)" fill="#f7b386"/>
        <circle id="Ellipse_105" data-name="Ellipse 105" cx="3.79" cy="3.79" r="3.79" transform="translate(0 31.4)" fill="#f7b386"/>
        <circle id="Ellipse_106" data-name="Ellipse 106" cx="3.79" cy="3.79" r="3.79" fill="#f7b386"/>
      </g>
      <path id="Path_9603" data-name="Path 9603" d="M199.029,326.728V364.5H166.787s-1.083-16.722,3.248-43.672h26.85Z" transform="translate(-160.422 -236.274)" fill="#1e3140"/>
      <path id="Path_9604" data-name="Path 9604" d="M175.772,207.518c-4.141,4.579-1.5,8.521-6.1,21.445-1.492,4.2-2.5,7.626-1.337,11.23a16.547,16.547,0,0,0,5.08,6.6c6.283,4.559,16.9,3.877,21.338-2.326s1.433-11.925,1.433-15.775c0-12.028,1.728-15.987-2.212-20.943-2.631-3.31-7.017-4.387-10.884-3.982A11.86,11.86,0,0,0,175.772,207.518Z" transform="translate(-160.746 -203.69)" fill="#2e2930"/>
      <path id="Path_9605" data-name="Path 9605" d="M176.315,232.7s-7.61,20.257,9.164,22.562c16.613-2.134,10.084-21.011,10.084-21.011Z" transform="translate(-162.627 -211.759)" fill="#1c171e"/>
      <path id="Path_9606" data-name="Path 9606" d="M188.808,237.08h0a10.106,10.106,0,0,1-9.847-10.348V216.3c0-5.715,6.365-10.348,9.847-10.348s9.847,4.633,9.847,10.348v10.428A10.107,10.107,0,0,1,188.808,237.08Z" transform="translate(-163.842 -204.32)" fill="#f7b386"/>
      <path id="Path_9607" data-name="Path 9607" d="M199.644,307.512c.13-3.747.116-7.813-.121-12.151a136.254,136.254,0,0,0-1.564-14.437c2.526-3.709,2.891-6.593,2.707-8.6a32.455,32.455,0,0,0-1.865-6.917h0l-1.323-9.144-7.67-4.512h-8.572l-10.918,5.324,1.985,27.791-3.429,20.573s2.8,6.136,12.362,6.677a15.981,15.981,0,0,0,8.572-8.752s1.714,6.136,7.068,8.752a8.113,8.113,0,0,0,2.767-4.6Z" transform="translate(-161.037 -217.058)" fill="#f34938"/>
      <path id="Path_9608" data-name="Path 9608" d="M172.965,285.537l3.351-20.109-4.26,7.383Z" transform="translate(-161.921 -220.863)" fill="#c93c35"/>
      <path id="Path_9609" data-name="Path 9609" d="M181.8,253.095l-.971,6.748,4.09,2.193-2.045,4.993,10.948,16.749,6.316-16.809-3.667-5.655,2.46-2.064-3.184-6.155-2.616-1.345h-8.572Z" transform="translate(-164.363 -217.058)" fill="#f96862"/>
      <path id="Path_9610" data-name="Path 9610" d="M186,251.75l9.264,31.16,1.083-23.067-1.775-8.093Z" transform="translate(-165.8 -217.058)" fill="#fff"/>
      <path id="Path_9611" data-name="Path 9611" d="M190.286,252.981h0A4.285,4.285,0,0,1,186,248.7v-5.82h8.572v5.82A4.286,4.286,0,0,1,190.286,252.981Z" transform="translate(-165.8 -214.589)" fill="#f7b386"/>
      <g id="Group_4372" data-name="Group 4372" transform="translate(1.278 39.79)">
        <circle id="Ellipse_107" data-name="Ellipse 107" cx="3.835" cy="3.835" r="3.835" transform="translate(5.568)" fill="#f34938"/>
        <circle id="Ellipse_108" data-name="Ellipse 108" cx="3.835" cy="3.835" r="3.835" transform="translate(0 25.77)" fill="#f34938"/>
        <path id="Path_9612" data-name="Path 9612" d="M165.494,262.854l7.438,1.858-5.523,25.6-7.518-1.524Z" transform="translate(-159.815 -259.937)" fill="#f34938"/>
      </g>
      <g id="Group_4373" data-name="Group 4373" transform="translate(0 62.884)">
        <path id="Path_9613" data-name="Path 9613" d="M201.208,298.288a3.835,3.835,0,1,1,2.459-4.833A3.835,3.835,0,0,1,201.208,298.288Z" transform="translate(-168.633 -290.805)" fill="#f34938"/>
        <circle id="Ellipse_109" data-name="Ellipse 109" cx="3.835" cy="3.835" r="3.835" transform="matrix(0.455, -0.891, 0.891, 0.455, 0, 8.188)" fill="#f34938"/>
        <path id="Path_9614" data-name="Path 9614" d="M190.941,290.82l.536,7.648-26.048,2.67-.878-7.62Z" transform="translate(-159.834 -290.809)" fill="#f34938"/>
      </g>
      <g id="Group_4374" data-name="Group 4374" transform="translate(31.461 38.95)">
        <path id="Path_9615" data-name="Path 9615" d="M208.963,259.977a3.835,3.835,0,1,1-5.033-2.02A3.834,3.834,0,0,1,208.963,259.977Z" transform="translate(-201.601 -257.648)" fill="#f34938"/>
        <path id="Path_9616" data-name="Path 9616" d="M215.892,295.838a3.835,3.835,0,1,1-5.033-2.02A3.835,3.835,0,0,1,215.892,295.838Z" transform="translate(-203.528 -267.623)" fill="#f34938"/>
        <path id="Path_9617" data-name="Path 9617" d="M201.671,263.352l7.57-1.213,4.973,25.708L206.7,289.4Z" transform="translate(-201.62 -258.897)" fill="#f34938"/>
      </g>
      <g id="Group_4375" data-name="Group 4375" transform="translate(36.509 52.056)">
        <path id="Path_9618" data-name="Path 9618" d="M246.908,282.527a3.834,3.834,0,1,1,.364-5.411A3.835,3.835,0,0,1,246.908,282.527Z" transform="translate(-217.483 -275.805)" fill="#f34938"/>
        <path id="Path_9619" data-name="Path 9619" d="M214.953,300.216a3.835,3.835,0,1,1,.363-5.412A3.835,3.835,0,0,1,214.953,300.216Z" transform="translate(-208.594 -280.725)" fill="#f34938"/>
        <path id="Path_9620" data-name="Path 9620" d="M234.479,276.4l3.5,6.823L215.07,295.906l-3.8-6.663Z" transform="translate(-209.338 -275.97)" fill="#f34938"/>
      </g>
      <path id="Path_9621" data-name="Path 9621" d="M175.563,218.826c1.314.274,8.631,1.667,14.653-2.995a16.309,16.309,0,0,0,4.492-5.454l-1.254-4.613a13.776,13.776,0,0,0-11.875,1.1A13.26,13.26,0,0,0,175.563,218.826Z" transform="translate(-162.891 -204.025)" fill="#2e2930"/>
      <path id="Path_9622" data-name="Path 9622" d="M201.241,213.647a8.354,8.354,0,0,0,3.847,5.186,11.359,11.359,0,0,0-1.448-7.216,11.031,11.031,0,0,0-3.469-3.586Z" transform="translate(-169.742 -204.897)" fill="#2e2930"/>
      <path id="Path_9623" data-name="Path 9623" d="M190.04,263.992l1.321-3.342,2.151,2.3h1.323l1.038-2.166,1.526,1.805.023-.48-1.775-2.2-4.372-.012-1.412,3.493Z" transform="translate(-166.874 -219.325)" fill="#b3bdbf"/>
      <path id="Path_9624" data-name="Path 9624" d="M188.788,260.641l2.866-7.092L186,250v1.263Z" transform="translate(-165.8 -216.571)" fill="#fff"/>
      <path id="Path_9625" data-name="Path 9625" d="M193.833,253.514l4.692,5.807-1.775-9.446Z" transform="translate(-167.979 -216.536)" fill="#fff"/>
      <path id="Path_9626" data-name="Path 9626" d="M197.083,420.717v7.654h3.188v-1.023l3.369,1.023h10.467s.12-1.5-1.083-1.865-7.46-1.985-7.76-8.6c0,0-2.286-.346-2.286,2.767Z" transform="translate(-168.883 -263.272)" fill="#1e3140"/>
      <path id="Path_9627" data-name="Path 9627" d="M175.138,420.717v7.654h3.188v-1.023l3.368,1.023h10.467s.121-1.5-1.083-1.865-7.459-1.985-7.76-8.6c0,0-2.285-.346-2.285,2.767Z" transform="translate(-162.779 -263.272)" fill="#1e3140"/>
      <path id="Path_9628" data-name="Path 9628" d="M179.583,223.347v4.011h-1.564l-2.447-3.4Z" transform="translate(-162.899 -209.157)" fill="#2e2930"/>
      <ellipse id="Ellipse_110" data-name="Ellipse 110" cx="0.729" cy="1.003" rx="0.729" ry="1.003" transform="translate(23.736 17.479)" fill="#2e2930"/>
      <path id="Path_9629" data-name="Path 9629" d="M204.091,228.906c0,.554-.326,1-.728,1s-.729-.449-.729-1,.326-1,.729-1S204.091,228.352,204.091,228.906Z" transform="translate(-170.427 -210.425)" fill="#2e2930"/>
      <g id="Group_4376" data-name="Group 4376" transform="translate(28.856 21.55)">
        <path id="Path_9630" data-name="Path 9630" d="M198.172,236.471a.181.181,0,0,1-.068-.348,2.006,2.006,0,0,0,1.291-1.134,1.522,1.522,0,0,0-.17-1.167.181.181,0,0,1,.3-.2,1.869,1.869,0,0,1,.214,1.469,2.337,2.337,0,0,1-1.5,1.365A.182.182,0,0,1,198.172,236.471Z" transform="translate(-197.992 -233.544)" fill="#e4866a"/>
      </g>
      <g id="Group_4382" data-name="Group 4382" transform="translate(28.962 57.6)">
        <path id="Path_9631" data-name="Path 9631" d="M209.717,285.578a1.068,1.068,0,1,0-1.327-.721A1.069,1.069,0,0,0,209.717,285.578Z" transform="translate(-200.978 -283.485)" fill="#f7b386"/>
        <path id="Path_9632" data-name="Path 9632" d="M203.535,294.918a1.44,1.44,0,1,0-1.789-.973A1.44,1.44,0,0,0,203.535,294.918Z" transform="translate(-199.125 -285.88)" fill="#f7b386"/>
        <path id="Path_9633" data-name="Path 9633" d="M208.606,285.369l-3.981,6.553L202.4,290.2l4.511-6.132Z" transform="translate(-199.324 -283.647)" fill="#f7b386"/>
        <g id="Group_4377" data-name="Group 4377" transform="translate(9.039 1.985)">
          <rect id="Rectangle_493" data-name="Rectangle 493" width="1.569" height="5.116" transform="translate(1.071 3.379) rotate(-111.4)" fill="#f7b386"/>
          <path id="Path_9634" data-name="Path 9634" d="M217.759,286.289a.785.785,0,1,0,1.017.445A.785.785,0,0,0,217.759,286.289Z" transform="translate(-212.496 -286.235)" fill="#f7b386"/>
          <path id="Path_9635" data-name="Path 9635" d="M211.158,288.871a.785.785,0,1,0,1.017.445A.785.785,0,0,0,211.158,288.871Z" transform="translate(-210.66 -286.953)" fill="#f7b386"/>
        </g>
        <g id="Group_4378" data-name="Group 4378" transform="translate(8.992 4.036)">
          <rect id="Rectangle_494" data-name="Rectangle 494" width="1.569" height="5.725" transform="matrix(-0.268, -0.963, 0.963, -0.268, 0.995, 3.074)" fill="#f7b386"/>
          <path id="Path_9636" data-name="Path 9636" d="M218.811,289.1a.784.784,0,1,0,.966.546A.784.784,0,0,0,218.811,289.1Z" transform="translate(-212.72 -289.076)" fill="#f7b386"/>
          <path id="Path_9637" data-name="Path 9637" d="M211.17,291.23a.784.784,0,1,0,.966.546A.785.785,0,0,0,211.17,291.23Z" transform="translate(-210.595 -289.667)" fill="#f7b386"/>
        </g>
        <g id="Group_4379" data-name="Group 4379" transform="translate(8.993 6.434)">
          <rect id="Rectangle_495" data-name="Rectangle 495" width="1.569" height="4.801" transform="translate(0.936 2.49) rotate(-101.13)" fill="#f7b386"/>
          <path id="Path_9638" data-name="Path 9638" d="M217.784,292.413a.785.785,0,1,0,.921.619A.785.785,0,0,0,217.784,292.413Z" transform="translate(-212.42 -292.398)" fill="#f7b386"/>
          <path id="Path_9639" data-name="Path 9639" d="M211.231,293.71a.784.784,0,1,0,.921.618A.784.784,0,0,0,211.231,293.71Z" transform="translate(-210.597 -292.759)" fill="#f7b386"/>
        </g>
        <g id="Group_4380" data-name="Group 4380" transform="translate(8.87 8.589)">
          <rect id="Rectangle_496" data-name="Rectangle 496" width="1.569" height="4.433" transform="translate(0.902 2.216) rotate(-98.607)" fill="#f7b386"/>
          <path id="Path_9640" data-name="Path 9640" d="M217.172,295.393a.784.784,0,1,0,.893.658A.784.784,0,0,0,217.172,295.393Z" transform="translate(-212.117 -295.384)" fill="#f7b386"/>
          <path id="Path_9641" data-name="Path 9641" d="M211.094,296.3a.784.784,0,1,0,.893.658A.785.785,0,0,0,211.094,296.3Z" transform="translate(-210.427 -295.636)" fill="#f7b386"/>
        </g>
        <path id="Path_9642" data-name="Path 9642" d="M210.709,291.583a.785.785,0,1,0,1.077-.267A.785.785,0,0,0,210.709,291.583Z" transform="translate(-201.603 -285.632)" fill="#f7b386"/>
        <path id="Path_9643" data-name="Path 9643" d="M210.773,289.2a.785.785,0,1,0,1.077-.266A.785.785,0,0,0,210.773,289.2Z" transform="translate(-201.621 -284.968)" fill="#f7b386"/>
        <path id="Path_9644" data-name="Path 9644" d="M210.72,294.082a.785.785,0,1,0,1.077-.267A.785.785,0,0,0,210.72,294.082Z" transform="translate(-201.607 -286.327)" fill="#f7b386"/>
        <path id="Path_9645" data-name="Path 9645" d="M210.544,296.672a.784.784,0,1,0,1.076-.267A.783.783,0,0,0,210.544,296.672Z" transform="translate(-201.557 -287.047)" fill="#f7b386"/>
        <g id="Group_4381" data-name="Group 4381" transform="translate(0 3.918)">
          <path id="Path_9646" data-name="Path 9646" d="M201.253,297.306a2.426,2.426,0,1,0-3.014-1.639A2.426,2.426,0,0,0,201.253,297.306Z" transform="translate(-198.138 -289.926)" fill="#f7b386"/>
          <path id="Path_9647" data-name="Path 9647" d="M200.547,291.641l7.763-2.728.328.137.723,3.061-.767,3.686-6.671.5Z" transform="translate(-198.808 -288.913)" fill="#f7b386"/>
        </g>
      </g>
      <path id="Path_9648" data-name="Path 9648" d="M178.163,226.9s-1.284-1.663-2.446-.58-1.745,5.154,2.446,8.7Z" transform="translate(-162.704 -209.882)" fill="#f7b386"/>
      <path id="Path_9649" data-name="Path 9649" d="M195.888,213.441a13.13,13.13,0,0,1-4.893,6.228,13.455,13.455,0,0,1-9.867,1.94v.862a13.677,13.677,0,0,0,10.628-2.16,13.046,13.046,0,0,0,4.506-6.1Z" transform="translate(-164.445 -206.402)" fill="#2e2930"/>
      <path id="Path_9650" data-name="Path 9650" d="M191.818,258.515l2.237,3.048h1.323l.812-3.036-2.917-3.611Z" transform="translate(-167.418 -217.939)" fill="#f34938"/>
      <path id="Path_9651" data-name="Path 9651" d="M194.49,264.125l-1.108,8.99,1.052,3.54,1.379-12.53Z" transform="translate(-167.853 -220.5)" fill="#f34938"/>
      <path id="Path_9652" data-name="Path 9652" d="M196.24,264.125l2.131,8.858-.179,3.815-3.276-12.674Z" transform="translate(-168.28 -220.5)" fill="#f34938"/>
      <path id="Path_9653" data-name="Path 9653" d="M199.175,240.25a4.016,4.016,0,0,1-2.563,2.555,3.778,3.778,0,0,1-1.068.195,4,4,0,0,1-3.573-1.971,4.043,4.043,0,0,1-.361-.78Z" transform="translate(-167.36 -213.859)" fill="#711836"/>
      <path id="Path_9654" data-name="Path 9654" d="M198.374,240.25v.361a.451.451,0,0,1-.13.289.439.439,0,0,1-.282.13h-5.991a4.043,4.043,0,0,1-.361-.78Z" transform="translate(-167.36 -213.859)" fill="#fff"/>
      <path id="Path_9655" data-name="Path 9655" d="M197.016,243.422a3.778,3.778,0,0,1-1.068.195,3.961,3.961,0,0,1-2.887-1.1,5.918,5.918,0,0,1,3.039.411A6.372,6.372,0,0,1,197.016,243.422Z" transform="translate(-167.764 -214.475)" fill="#fe6867"/>
    </g>
    <g id="Group_4384" data-name="Group 4384" transform="translate(13.5 279.618)">
      <rect id="Rectangle_497" data-name="Rectangle 497" width="233.415" height="3.97" transform="translate(9.847)" fill="#7c3030"/>
      <rect id="Rectangle_498" data-name="Rectangle 498" width="214.381" height="83.307" transform="translate(20.218 3.97)" fill="#ea8b60"/>
      <rect id="Rectangle_499" data-name="Rectangle 499" width="44.794" height="83.307" transform="translate(20.218 3.97)" fill="#aa5443"/>
      <rect id="Rectangle_500" data-name="Rectangle 500" width="217.534" height="4.249" transform="translate(17.065 3.97)" fill="#aa5443"/>
    </g>
    <g id="Group_4390" data-name="Group 4390" transform="translate(261.341 272.976)">
      <g id="Group_4388" data-name="Group 4388">
        <g id="Group_4385" data-name="Group 4385" transform="translate(40.29 12.938)">
          <path id="Path_9656" data-name="Path 9656" d="M417.436,369.406a.644.644,0,0,1-.644-.644V338.209a33.581,33.581,0,0,0-2.579-13.644l-1.5-3.442a.644.644,0,0,1,1.18-.514l1.5,3.441a34.839,34.839,0,0,1,2.687,14.159v30.553A.644.644,0,0,1,417.436,369.406Z" transform="translate(-412.66 -320.222)" fill="#9ca521"/>
        </g>
        <path id="Path_9657" data-name="Path 9657" d="M413.366,324.375s4.19-6.456,2.5-11.912c-1.919-6.214-8.464-7.476-10.32-9.872a.719.719,0,0,0-1.154-.006c-1.514,2.066-4.708,7.518-1.992,13.907C405.873,324.654,413.366,324.375,413.366,324.375Z" transform="translate(-369.223 -302.298)" fill="#9ca521"/>
        <g id="Group_4386" data-name="Group 4386" transform="translate(33.863 27.858)">
          <path id="Path_9658" data-name="Path 9658" d="M414.959,357.481a.645.645,0,0,1-.63-.515c-.02-.1-2.119-9.965-10.26-14.879a.644.644,0,0,1,.666-1.1c8.635,5.212,10.77,15.3,10.857,15.725a.643.643,0,0,1-.5.759A.609.609,0,0,1,414.959,357.481Z" transform="translate(-403.757 -340.891)" fill="#9ca521"/>
        </g>
        <path id="Path_9659" data-name="Path 9659" d="M394.7,342.144s-3.5-6.756-9.012-7.369-6.733,1.913-11.094,1.607-8.187-2.983-11.936-2.371-5.815,5.967-5.815,5.967l12.7-2.525s7.192,9.411,14.308,9.182A15.662,15.662,0,0,0,394.7,342.144Z" transform="translate(-356.845 -311.094)" fill="#9ca521"/>
        <path id="Path_9660" data-name="Path 9660" d="M422.169,364.534s-1.989-5.05.536-8.646,9.334-6.2,12.165-11.324,3.979-8.876,12.471-6.2l-10.176,6.886s2.086,11.553-2.783,15.991S422.169,364.534,422.169,364.534Z" transform="translate(-374.808 -312.083)" fill="#9ca521"/>
        <g id="Group_4387" data-name="Group 4387" transform="translate(44.422 49.052)">
          <path id="Path_9661" data-name="Path 9661" d="M419.029,379.65a.672.672,0,0,1-.119-.011.644.644,0,0,1-.514-.751,15.544,15.544,0,0,1,5.287-8.5.644.644,0,1,1,.791,1.016c-.041.033-3.952,3.134-4.813,7.721A.645.645,0,0,1,419.029,379.65Z" transform="translate(-418.384 -370.252)" fill="#9ca521"/>
        </g>
      </g>
      <g id="Group_4389" data-name="Group 4389" transform="translate(27.008 60.459)">
        <path id="Path_9662" data-name="Path 9662" d="M398.5,396.794l.8,7.192,2.057,18.516h24.282l2.057-18.516.8-7.192Z" transform="translate(-395.44 -389.042)" fill="#5c331d"/>
        <path id="Path_9663" data-name="Path 9663" d="M398.5,396.794l.8,7.192h28.4l.8-7.192Z" transform="translate(-395.44 -389.042)" fill="#3b2416"/>
        <path id="Path_9664" data-name="Path 9664" d="M430.375,390.135v5.917H394.261v-5.917a4.081,4.081,0,0,1,4.081-4.081h27.953A4.081,4.081,0,0,1,430.375,390.135Z" transform="translate(-394.261 -386.054)" fill="#5c331d"/>
      </g>
    </g>
    <g id="Group_4409" data-name="Group 4409" transform="translate(187.391 196.882)">
      <g id="Group_4396" data-name="Group 4396" transform="translate(20.449 77.602)">
        <path id="Path_9665" data-name="Path 9665" d="M290.39,306.515a1.068,1.068,0,1,1,.925-1.194A1.069,1.069,0,0,1,290.39,306.515Z" transform="translate(-284.524 -304.387)" fill="#f7b386"/>
        <path id="Path_9666" data-name="Path 9666" d="M299.593,312.621a1.441,1.441,0,1,1,1.246-1.611A1.441,1.441,0,0,1,299.593,312.621Z" transform="translate(-286.968 -305.879)" fill="#f7b386"/>
        <path id="Path_9667" data-name="Path 9667" d="M289.96,306.445l6.282,4.4,1.34-2.473-6.6-3.8Z" transform="translate(-284.74 -304.438)" fill="#f7b386"/>
        <g id="Group_4391" data-name="Group 4391" transform="translate(0 4.105)">
          <rect id="Rectangle_501" data-name="Rectangle 501" width="1.569" height="5.116" transform="matrix(-0.041, -0.999, 0.999, -0.041, 0.817, 1.778)" fill="#f7b386"/>
          <path id="Path_9668" data-name="Path 9668" d="M283.481,310.369a.785.785,0,1,1-.752.816A.785.785,0,0,1,283.481,310.369Z" transform="translate(-282.728 -310.156)" fill="#f7b386"/>
          <path id="Path_9669" data-name="Path 9669" d="M290.563,310.075a.785.785,0,1,1-.752.816A.785.785,0,0,1,290.563,310.075Z" transform="translate(-284.698 -310.074)" fill="#f7b386"/>
        </g>
        <g id="Group_4392" data-name="Group 4392" transform="translate(0.181 5.661)">
          <rect id="Rectangle_502" data-name="Rectangle 502" width="1.569" height="5.725" transform="translate(0.897 2.377) rotate(-98.196)" fill="#f7b386"/>
          <path id="Path_9670" data-name="Path 9670" d="M283.652,313.369a.785.785,0,1,1-.665.889A.785.785,0,0,1,283.652,313.369Z" transform="translate(-282.979 -312.544)" fill="#f7b386"/>
          <path id="Path_9671" data-name="Path 9671" d="M291.5,312.238a.785.785,0,1,1-.665.889A.784.784,0,0,1,291.5,312.238Z" transform="translate(-285.162 -312.23)" fill="#f7b386"/>
        </g>
        <g id="Group_4393" data-name="Group 4393" transform="translate(1.864 7.31)">
          <rect id="Rectangle_503" data-name="Rectangle 503" width="1.569" height="4.801" transform="translate(0.977 2.599) rotate(-102.608)" fill="#f7b386"/>
          <path id="Path_9672" data-name="Path 9672" d="M285.924,315.985a.784.784,0,1,1-.594.937A.784.784,0,0,1,285.924,315.985Z" transform="translate(-285.311 -314.917)" fill="#f7b386"/>
          <path id="Path_9673" data-name="Path 9673" d="M292.444,314.533a.785.785,0,1,1-.594.937A.785.785,0,0,1,292.444,314.533Z" transform="translate(-287.124 -314.514)" fill="#f7b386"/>
        </g>
        <g id="Group_4394" data-name="Group 4394" transform="translate(3.159 8.976)">
          <rect id="Rectangle_504" data-name="Rectangle 504" width="1.569" height="4.433" transform="translate(0.99 2.699) rotate(-105.131)" fill="#f7b386"/>
          <path id="Path_9674" data-name="Path 9674" d="M287.684,318.465a.784.784,0,1,1-.552.962A.784.784,0,0,1,287.684,318.465Z" transform="translate(-287.104 -317.271)" fill="#f7b386"/>
          <path id="Path_9675" data-name="Path 9675" d="M293.612,316.849a.784.784,0,1,1-.553.962A.785.785,0,0,1,293.612,316.849Z" transform="translate(-288.753 -316.822)" fill="#f7b386"/>
        </g>
        <path id="Path_9676" data-name="Path 9676" d="M292.066,312.376a.785.785,0,1,1-1.093.189A.784.784,0,0,1,292.066,312.376Z" transform="translate(-284.982 -306.569)" fill="#f7b386"/>
        <path id="Path_9677" data-name="Path 9677" d="M291.047,310.218a.784.784,0,1,1-1.093.189A.784.784,0,0,1,291.047,310.218Z" transform="translate(-284.698 -305.969)" fill="#f7b386"/>
        <path id="Path_9678" data-name="Path 9678" d="M293.061,314.668a.785.785,0,1,1-1.094.189A.785.785,0,0,1,293.061,314.668Z" transform="translate(-285.258 -307.207)" fill="#f7b386"/>
        <path id="Path_9679" data-name="Path 9679" d="M294.266,316.967a.785.785,0,1,1-1.093.189A.785.785,0,0,1,294.266,316.967Z" transform="translate(-285.593 -307.846)" fill="#f7b386"/>
        <g id="Group_4395" data-name="Group 4395" transform="translate(5.658 3.457)">
          <path id="Path_9680" data-name="Path 9680" d="M302.068,314.009a2.426,2.426,0,1,1,2.1-2.713A2.426,2.426,0,0,1,302.068,314.009Z" transform="translate(-293.005 -309.177)" fill="#f7b386"/>
          <path id="Path_9681" data-name="Path 9681" d="M299.015,309.2l-8.2.628-.245.257.571,3.094,2.186,3.065,6.306-2.232Z" transform="translate(-290.566 -309.184)" fill="#f7b386"/>
        </g>
      </g>
      <g id="Group_4402" data-name="Group 4402" transform="translate(0 36.841)">
        <path id="Path_9682" data-name="Path 9682" d="M267.939,254.448a1.068,1.068,0,1,1,1.365.647A1.068,1.068,0,0,1,267.939,254.448Z" transform="translate(-258.148 -249.338)" fill="#f7b386"/>
        <path id="Path_9683" data-name="Path 9683" d="M263.7,264.772a1.44,1.44,0,1,1,1.841.872A1.441,1.441,0,0,1,263.7,264.772Z" transform="translate(-256.961 -252.071)" fill="#f7b386"/>
        <path id="Path_9684" data-name="Path 9684" d="M266.8,254.089l-2.946,7.079,2.7.778,2.294-7.259Z" transform="translate(-257.029 -249.635)" fill="#f7b386"/>
        <g id="Group_4397" data-name="Group 4397" transform="translate(5.012)">
          <rect id="Rectangle_505" data-name="Rectangle 505" width="1.569" height="5.116" transform="translate(0.029 0.984) rotate(-14.727)" fill="#f7b386"/>
          <path id="Path_9685" data-name="Path 9685" d="M262.886,248.5a.785.785,0,1,1-.959-.559A.785.785,0,0,1,262.886,248.5Z" transform="translate(-261.342 -247.919)" fill="#f7b386"/>
          <path id="Path_9686" data-name="Path 9686" d="M264.691,255.358a.784.784,0,1,1-.958-.559A.784.784,0,0,1,264.691,255.358Z" transform="translate(-261.845 -249.826)" fill="#f7b386"/>
        </g>
        <g id="Group_4398" data-name="Group 4398" transform="translate(2.94 0.641)">
          <rect id="Rectangle_506" data-name="Rectangle 506" width="1.569" height="5.725" transform="translate(0.051 1.06) rotate(-20.58)" fill="#f7b386"/>
          <path id="Path_9687" data-name="Path 9687" d="M259.992,249.315a.785.785,0,1,1-1.01-.458A.785.785,0,0,1,259.992,249.315Z" transform="translate(-258.472 -248.806)" fill="#f7b386"/>
          <path id="Path_9688" data-name="Path 9688" d="M262.78,256.74a.785.785,0,1,1-1.01-.459A.784.784,0,0,1,262.78,256.74Z" transform="translate(-259.248 -250.871)" fill="#f7b386"/>
        </g>
        <g id="Group_4399" data-name="Group 4399" transform="translate(1.465 2.687)">
          <rect id="Rectangle_507" data-name="Rectangle 507" width="1.569" height="4.801" transform="translate(0.078 1.137) rotate(-24.992)" fill="#f7b386"/>
          <path id="Path_9689" data-name="Path 9689" d="M257.925,252.1a.784.784,0,1,1-1.042-.38A.784.784,0,0,1,257.925,252.1Z" transform="translate(-256.429 -251.642)" fill="#f7b386"/>
          <path id="Path_9690" data-name="Path 9690" d="M260.741,258.152a.784.784,0,1,1-1.042-.38A.785.785,0,0,1,260.741,258.152Z" transform="translate(-257.212 -253.327)" fill="#f7b386"/>
        </g>
        <g id="Group_4400" data-name="Group 4400" transform="translate(0 4.335)">
          <rect id="Rectangle_508" data-name="Rectangle 508" width="1.569" height="4.433" transform="matrix(0.887, -0.462, 0.462, 0.887, 0.098, 1.146)" fill="#f7b386"/>
          <path id="Path_9691" data-name="Path 9691" d="M255.879,254.346a.785.785,0,1,1-1.058-.333A.786.786,0,0,1,255.879,254.346Z" transform="translate(-254.399 -253.924)" fill="#f7b386"/>
          <path id="Path_9692" data-name="Path 9692" d="M258.729,259.79a.785.785,0,1,1-1.058-.333A.785.785,0,0,1,258.729,259.79Z" transform="translate(-255.191 -255.438)" fill="#f7b386"/>
        </g>
        <path id="Path_9693" data-name="Path 9693" d="M262.767,257.32a.785.785,0,1,1-.419-1.027A.785.785,0,0,1,262.767,257.32Z" transform="translate(-256.307 -250.231)" fill="#f7b386"/>
        <path id="Path_9694" data-name="Path 9694" d="M264.656,255.862a.785.785,0,1,1-.419-1.027A.784.784,0,0,1,264.656,255.862Z" transform="translate(-256.832 -249.826)" fill="#f7b386"/>
        <path id="Path_9695" data-name="Path 9695" d="M260.741,258.784a.785.785,0,1,1-.419-1.027A.784.784,0,0,1,260.741,258.784Z" transform="translate(-255.744 -250.638)" fill="#f7b386"/>
        <path id="Path_9696" data-name="Path 9696" d="M258.754,260.453a.785.785,0,1,1-.419-1.027A.785.785,0,0,1,258.754,260.453Z" transform="translate(-255.191 -251.103)" fill="#f7b386"/>
        <g id="Group_4401" data-name="Group 4401" transform="translate(2.14 5.386)">
          <path id="Path_9697" data-name="Path 9697" d="M262.2,267.561a2.426,2.426,0,1,1,3.1,1.469A2.426,2.426,0,0,1,262.2,267.561Z" transform="translate(-258.67 -257.867)" fill="#f7b386"/>
          <path id="Path_9698" data-name="Path 9698" d="M265.464,263.443l-2.373-7.878-.3-.184-2.9,1.221-2.525,2.793,3.533,5.68Z" transform="translate(-257.363 -255.381)" fill="#f7b386"/>
        </g>
      </g>
      <rect id="Rectangle_509" data-name="Rectangle 509" width="8.572" height="10.106" transform="translate(37.458 33.2)" fill="#f7b386"/>
      <g id="Group_4403" data-name="Group 4403" transform="translate(50.017 43.885)">
        <path id="Path_9699" data-name="Path 9699" d="M323.689,261.5a3.835,3.835,0,1,0,3.85-3.82A3.835,3.835,0,0,0,323.689,261.5Z" transform="translate(-323.689 -257.677)" fill="#4c4151"/>
        <path id="Path_9700" data-name="Path 9700" d="M331.263,297.227a3.835,3.835,0,1,0,3.85-3.819A3.835,3.835,0,0,0,331.263,297.227Z" transform="translate(-325.796 -267.616)" fill="#4c4151"/>
        <path id="Path_9701" data-name="Path 9701" d="M331.3,261.739l-7.445,1.829,5.424,25.616,7.524-1.494Z" transform="translate(-323.734 -258.807)" fill="#4c4151"/>
      </g>
      <g id="Group_4404" data-name="Group 4404" transform="translate(31.004 69.676)">
        <path id="Path_9702" data-name="Path 9702" d="M301.826,314.589a3.834,3.834,0,1,0-4.421-3.14A3.835,3.835,0,0,0,301.826,314.589Z" transform="translate(-297.351 -297.18)" fill="#4c4151"/>
        <path id="Path_9703" data-name="Path 9703" d="M335.738,301.023a3.835,3.835,0,1,0-4.421-3.141A3.835,3.835,0,0,0,335.738,301.023Z" transform="translate(-306.783 -293.407)" fill="#4c4151"/>
        <path id="Path_9704" data-name="Path 9704" d="M327.937,300.914v.007l-.065.022-4.078,1.639-2.656,1.061L303.7,310.6l-.079.036-3.075-7.016v-.007l.209-.079,20.767-8.316,1.826-.729,1.826-.729v.007Z" transform="translate(-298.241 -293.505)" fill="#4c4151"/>
      </g>
      <path id="Path_9705" data-name="Path 9705" d="M331.726,296.042,329.07,297.1l.39-8.424.866-18.429.96,17.7.036.693.253,4.649Z" transform="translate(-275.169 -217.29)" fill="#3d313f"/>
      <path id="Path_9706" data-name="Path 9706" d="M305.314,234.509h0a10.647,10.647,0,0,1-10.647-10.647V210.147A10.647,10.647,0,0,1,305.314,199.5h0a10.647,10.647,0,0,1,10.647,10.647v13.715A10.647,10.647,0,0,1,305.314,234.509Z" transform="translate(-265.6 -197.61)" fill="#f7b386"/>
      <path id="Path_9707" data-name="Path 9707" d="M293.167,205.629a4.049,4.049,0,0,0,1.161,2.507,4.475,4.475,0,0,0,4.073.922,4.585,4.585,0,0,1,4.03,1.384,4.441,4.441,0,0,1,.962,3.549v7.038h1.5v-5.835c.71-.281,3.27-1.213,4.512-.121,1.431,1.26.985,5.1-2.119,9.084l5.967,5.571a29.436,29.436,0,0,0,5.475-10.263,21.23,21.23,0,0,0,1.083-7.82,16.061,16.061,0,0,0-2.827-8.9c-2.655-3.58-7.956-6.825-13.9-5.594C296.161,198.584,293.394,205.072,293.167,205.629Z" transform="translate(-265.182 -196.882)" fill="#723731"/>
      <g id="Group_4405" data-name="Group 4405" transform="translate(29.557 130.919)">
        <rect id="Rectangle_510" data-name="Rectangle 510" width="7.579" height="31.4" transform="translate(7.579 31.4) rotate(180)" fill="#f7b386"/>
        <circle id="Ellipse_111" data-name="Ellipse 111" cx="3.79" cy="3.79" r="3.79" transform="translate(0 27.611)" fill="#f7b386"/>
      </g>
      <path id="Path_9708" data-name="Path 9708" d="M299.285,420.717v7.654H296.1v-1.023l-3.368,1.023H282.262s-.121-1.5,1.083-1.865,7.459-1.985,7.76-8.6c0,0,2.285-.346,2.285,2.767Z" transform="translate(-262.148 -258.358)" fill="#412420"/>
      <g id="Group_4406" data-name="Group 4406" transform="translate(44.228 130.919)">
        <rect id="Rectangle_511" data-name="Rectangle 511" width="7.579" height="31.4" transform="translate(7.579 31.4) rotate(180)" fill="#f7b386"/>
        <circle id="Ellipse_112" data-name="Ellipse 112" cx="3.79" cy="3.79" r="3.79" transform="translate(0 27.611)" fill="#f7b386"/>
      </g>
      <path id="Path_9709" data-name="Path 9709" d="M319.608,420.717v7.654H316.42v-1.023l-3.369,1.023H302.585s-.121-1.5,1.083-1.865,7.459-1.985,7.76-8.6c0,0,2.286-.346,2.286,2.767Z" transform="translate(-267.801 -258.358)" fill="#412420"/>
      <path id="Path_9710" data-name="Path 9710" d="M292.711,324.94v62.079h11.235v-46.2h3.442v46.2H318.8v-57.3L298.4,317Z" transform="translate(-265.056 -230.293)" fill="#2e2930"/>
      <path id="Path_9711" data-name="Path 9711" d="M301.946,251.75,291.4,256.086l-.73,55.482a7.827,7.827,0,0,0,3.593-1.332c3.469-2.424,3.49-6.9,3.484-7.416a14.447,14.447,0,0,0,1.584,6.677,13.777,13.777,0,0,0,1.323,2.07h18.888l.1-55.327-9.128-4.491Z" transform="translate(-264.487 -212.144)" fill="#4c4151"/>
      <path id="Path_9712" data-name="Path 9712" d="M290.975,295.711a7.658,7.658,0,0,0,1.948-3.8c.559-2.526,2.156-21.477,2.156-21.477l-4.1,18.533.01,7.044" transform="translate(-264.573 -217.341)" fill="#3d313f"/>
      <ellipse id="Ellipse_113" data-name="Ellipse 113" cx="0.82" cy="1.128" rx="0.82" ry="1.128" transform="translate(29.864 18.989)" fill="#2e2930"/>
      <g id="Group_4407" data-name="Group 4407" transform="translate(19.136 43.885)">
        <path id="Path_9713" data-name="Path 9713" d="M287.553,260.063a3.835,3.835,0,1,0,5-2.1A3.835,3.835,0,0,0,287.553,260.063Z" transform="translate(-282.678 -257.677)" fill="#4c4151"/>
        <path id="Path_9714" data-name="Path 9714" d="M281.195,296.03a3.835,3.835,0,1,0,5-2.1A3.835,3.835,0,0,0,281.195,296.03Z" transform="translate(-280.909 -267.681)" fill="#4c4151"/>
        <path id="Path_9715" data-name="Path 9715" d="M293.155,263.345l-7.588-1.092L281,288.035l7.536,1.432Z" transform="translate(-280.935 -258.95)" fill="#4c4151"/>
      </g>
      <g id="Group_4408" data-name="Group 4408" transform="translate(4.44 47.907)">
        <path id="Path_9716" data-name="Path 9716" d="M260.83,268.521a3.835,3.835,0,1,0,2.119-4.992A3.835,3.835,0,0,0,260.83,268.521Z" transform="translate(-260.55 -263.249)" fill="#4c4151"/>
        <path id="Path_9717" data-name="Path 9717" d="M281.353,298.734a3.835,3.835,0,1,0,2.119-4.992A3.835,3.835,0,0,0,281.353,298.734Z" transform="translate(-266.258 -271.653)" fill="#4c4151"/>
        <path id="Path_9718" data-name="Path 9718" d="M267.782,265.452l-6.2,4.509,14.708,21.663,6.4-4.228Z" transform="translate(-260.837 -263.862)" fill="#4c4151"/>
      </g>
      <path id="Path_9719" data-name="Path 9719" d="M314.319,249.006H305.4l-1.066,2.739h11.526l-.9-2.739Z" transform="translate(-268.289 -211.381)" fill="#4c4151"/>
      <path id="Path_9720" data-name="Path 9720" d="M296.116,238.935a2.337,2.337,0,0,0,1.946-1.81" transform="translate(-266.003 -208.076)" fill="none" stroke="#711836" stroke-linecap="round" stroke-miterlimit="10" stroke-width="0.75"/>
    </g>
  </g>
</svg>
